<?xml version="1.0" standalone="no"?>
<!DOCTYPE svg PUBLIC "-//W3C//DTD SVG 20010904//EN"
 "http://www.w3.org/TR/2001/REC-SVG-20010904/DTD/svg10.dtd">
<svg version="1.0" xmlns="http://www.w3.org/2000/svg"
 width="501.000000pt" height="343.000000pt" viewBox="0 0 501.000000 343.000000"
 preserveAspectRatio="xMidYMid meet">

<g transform="translate(0.000000,343.000000) scale(0.100000,-0.100000)"
fill="#000000" stroke="none">
<path d="M0 1715 l0 -1715 558 0 c464 1 560 3 576 15 10 8 23 12 27 9 5 -3 9
1 9 9 0 7 -12 20 -27 27 l-28 13 30 8 c20 6 32 5 37 -4 4 -7 7 -4 6 9 -2 17
-8 20 -30 18 -17 -2 -31 2 -36 12 -5 9 -12 15 -15 15 -4 -1 -17 -1 -29 -1 -20
1 -19 3 7 14 17 7 37 11 45 8 10 -3 12 -2 5 6 -5 6 -23 12 -39 14 -18 2 -30 9
-32 19 -1 13 6 15 40 11 40 -4 41 -4 23 16 -17 19 -17 20 0 27 10 5 22 9 27 9
5 1 10 7 12 14 1 7 0 8 -3 2 -2 -5 -9 -7 -15 -4 -6 4 -14 0 -19 -7 -6 -10 -9
-11 -9 -1 0 6 -6 12 -14 12 -8 0 -17 -6 -19 -12 -4 -9 -6 -9 -6 -1 -1 8 -18
10 -53 8 -47 -3 -49 -3 -18 5 19 5 53 12 75 15 36 6 38 8 21 20 -10 8 -24 11
-32 8 -8 -3 -14 0 -14 7 0 6 5 8 10 5 6 -3 10 -1 10 4 0 6 15 11 33 11 43 0
107 18 107 31 0 6 -7 6 -19 -1 -11 -5 -39 -10 -63 -9 -47 1 -43 4 14 14 21 3
38 9 38 14 0 7 -84 5 -107 -4 -7 -2 -15 0 -18 5 -3 4 14 11 37 15 24 4 48 10
53 14 6 3 17 6 25 6 42 3 121 18 125 25 2 4 -14 4 -38 0 -23 -4 -71 -5 -107 0
-58 6 -60 7 -20 9 72 2 173 21 197 37 12 8 24 14 26 14 2 0 7 -27 10 -61 6
-48 14 -71 46 -114 21 -30 42 -51 46 -47 5 4 6 2 2 -3 -3 -6 7 -29 22 -52 15
-22 47 -84 71 -137 l45 -96 1121 0 1121 0 7 101 c3 56 9 204 12 328 6 206 9
239 39 376 18 83 36 175 40 205 4 30 16 82 26 114 21 65 73 319 88 431 12 83
23 275 15 258 -3 -7 -10 -13 -16 -13 -6 0 -3 10 5 23 21 32 -3 60 -30 34 -4
-5 -3 -8 2 -7 21 5 36 0 30 -9 -8 -15 -45 -9 -45 7 0 9 -6 12 -17 8 -9 -4 -19
-2 -23 4 -8 12 -30 18 -75 19 l-29 1 22 16 c13 9 29 13 37 10 8 -3 15 -1 15 4
0 6 -5 10 -11 10 -8 0 -8 4 0 14 9 11 3 16 -33 26 -24 7 -49 9 -55 5 -18 -11
-12 7 6 21 16 12 15 13 -14 14 -18 0 -33 5 -33 11 0 5 -4 7 -10 4 -6 -3 -10 1
-10 10 0 11 -5 15 -14 12 -11 -4 -13 -1 -9 10 4 11 2 14 -5 9 -7 -4 -12 -1
-12 7 0 8 7 17 15 21 17 6 20 42 5 51 -6 3 -10 14 -10 23 0 9 -7 30 -15 46
-13 24 -14 35 -4 58 7 18 17 27 26 24 8 -3 18 4 25 19 7 15 20 25 32 25 12 0
30 3 41 6 15 4 23 -3 34 -27 11 -26 15 -29 23 -16 5 9 15 14 23 11 8 -4 15 -1
15 5 0 6 7 11 15 11 9 0 15 -9 15 -21 0 -21 36 -58 57 -59 7 0 16 -6 20 -14
17 -29 78 -17 87 17 3 12 11 67 17 122 6 55 15 110 19 121 9 24 19 92 50 354
22 180 38 263 59 296 10 16 11 12 6 -21 -12 -70 -16 -88 -21 -97 -3 -4 0 -8 5
-8 6 0 2 -21 -9 -50 -24 -60 -24 -64 -7 -57 16 6 14 -167 -4 -273 -7 -41 -13
-85 -13 -97 -1 -13 -5 -23 -10 -23 -5 0 -5 -27 -1 -62 11 -89 11 -279 0 -303
-5 -11 -14 -45 -21 -75 -28 -122 -37 -155 -44 -160 -5 -3 -11 -52 -14 -110 -4
-58 -11 -132 -16 -165 -6 -33 -10 -67 -10 -75 1 -21 -1 -115 -3 -177 -1 -29
-6 -53 -12 -53 -5 0 -3 -5 5 -10 11 -7 12 -12 4 -17 -11 -8 -36 -132 -28 -144
2 -3 6 -34 10 -70 5 -58 5 -62 -9 -45 -14 19 -15 19 -26 -2 -6 -11 -11 -28
-11 -36 0 -18 -16 -21 -25 -6 -3 5 -12 10 -18 10 -7 -1 2 -12 18 -26 17 -13
23 -22 14 -19 -9 3 -16 0 -17 -7 -5 -51 -10 -76 -15 -86 -4 -6 -2 -16 5 -24
14 -15 20 -78 8 -78 -5 0 -11 6 -13 13 -4 9 -6 9 -6 -1 -1 -7 6 -15 14 -18 12
-5 13 -10 4 -20 -6 -8 -8 -14 -5 -14 4 0 2 -9 -4 -20 -6 -11 -16 -18 -21 -14
-6 3 -10 -2 -9 -12 4 -33 0 -45 -11 -38 -7 4 -7 -1 1 -16 6 -12 9 -24 6 -28
-3 -3 -6 0 -6 8 0 10 -3 10 -15 0 -8 -6 -14 -15 -13 -18 0 -4 0 -9 -2 -12 -1
-3 -3 -15 -6 -28 -3 -17 -1 -21 8 -16 10 6 10 4 2 -7 -6 -8 -15 -45 -19 -83
-7 -67 -29 -133 -50 -148 -5 -4 -6 -8 -1 -8 5 0 3 -7 -4 -15 -9 -10 -14 -60
-16 -145 l-3 -130 569 0 570 0 0 1715 0 1715 -312 -2 -313 -3 -7 -30 -7 -30 3
33 3 32 -2189 0 -2188 0 0 -1715z m1800 1285 c0 -5 -5 -10 -11 -10 -5 0 -7 5
-4 10 3 6 8 10 11 10 2 0 4 -4 4 -10z m221 -147 c13 -16 12 -17 -3 -4 -17 13
-22 21 -14 21 2 0 10 -8 17 -17z m61 -84 c11 -12 13 -21 7 -25 -13 -8 -15 -5
-34 42 -8 22 -10 31 -2 20 6 -11 20 -27 29 -37z m-15 -161 c-27 -25 -29 -31
-25 -78 5 -46 2 -54 -20 -75 -14 -13 -30 -21 -35 -18 -5 3 -7 -3 -4 -13 11
-39 19 -144 10 -144 -13 0 -21 130 -12 195 5 32 -7 50 -43 64 -17 7 -19 10 -5
10 10 1 17 9 17 22 0 16 5 20 20 16 13 -3 20 0 20 9 0 8 9 14 21 14 14 0 19 5
16 14 -7 17 17 41 32 32 11 -7 20 15 22 52 1 15 5 5 9 -23 7 -47 5 -52 -23
-77z m-760 -140 c-3 -8 -6 -5 -6 6 -1 11 2 17 5 13 3 -3 4 -12 1 -19z m4 -46
c-5 -9 -19 -26 -31 -37 l-22 -20 22 38 c22 37 50 55 31 19z m299 -112 c47 -24
107 -90 130 -144 19 -45 36 -58 70 -51 11 2 18 0 15 -5 -7 -11 63 -50 120 -67
l40 -12 -45 5 c-25 3 -81 23 -125 45 -44 21 -107 44 -140 49 -103 19 -117 28
-71 46 24 9 24 10 10 52 -17 49 -42 77 -87 98 l-32 15 40 -6 c21 -4 55 -15 75
-25z m2438 -45 c-3 -3 -13 7 -23 22 l-17 28 23 -22 c12 -12 20 -25 17 -28z
m-2128 -25 c-8 -6 -11 -10 -7 -10 5 0 5 -5 2 -10 -4 -6 -11 -8 -16 -4 -6 4 -3
14 7 25 9 11 20 17 23 14 3 -4 -1 -10 -9 -15z m315 10 c3 -5 1 -10 -4 -10 -6
0 -11 5 -11 10 0 6 2 10 4 10 3 0 8 -4 11 -10z m1497 -70 c17 -15 18 -20 6
-20 -8 0 -23 9 -33 20 -11 12 -13 20 -6 20 6 0 21 -9 33 -20z m-1852 -15 c0
-25 -18 -25 -22 -1 -4 17 -1 23 9 19 7 -3 13 -11 13 -18z m612 11 c7 4 8 2 4
-5 -9 -13 -26 -5 -25 12 0 9 2 8 6 -1 2 -6 10 -9 15 -6z m-218 -45 c9 -16 13
-31 10 -33 -3 -3 6 -8 20 -10 14 -3 23 -1 20 3 -3 5 1 9 9 9 8 0 22 10 30 23
12 17 16 18 16 6 1 -19 31 -48 31 -30 0 6 -4 11 -10 11 -5 0 -10 9 -10 21 0
27 23 20 30 -10 3 -12 9 -22 15 -21 5 1 11 -3 13 -9 2 -7 -4 -9 -15 -5 -15 6
-15 4 2 -9 28 -21 87 -26 93 -8 3 10 -1 12 -17 8 -27 -7 -26 -2 1 25 16 16 20
17 15 5 -4 -11 -1 -17 9 -17 8 0 17 6 20 14 3 8 26 17 52 21 26 4 50 12 54 18
5 8 8 8 8 -2 0 -8 8 -23 18 -34 9 -11 12 -17 6 -14 -14 8 -39 -47 -29 -62 3
-7 0 -8 -9 -5 -9 3 -16 1 -16 -5 0 -6 5 -11 12 -11 16 0 3 -11 -19 -15 -10 -2
-20 -4 -22 -4 -2 -1 2 -7 8 -14 6 -8 9 -16 6 -19 -5 -5 -108 12 -245 41 -52
12 -113 21 -135 22 -36 1 -37 2 -11 8 44 9 56 35 28 61 -22 21 -31 70 -12 70
5 0 16 -13 24 -29z m31 9 c3 -6 -1 -7 -9 -4 -18 7 -21 14 -7 14 6 0 13 -4 16
-10z m168 -50 c3 -12 0 -20 -8 -20 -8 0 -11 8 -8 20 3 11 7 20 8 20 1 0 5 -9
8 -20z m770 -11 c40 -6 94 -23 121 -37 56 -31 123 -103 156 -170 26 -51 41
-150 21 -138 -6 4 -11 20 -11 36 0 46 -109 211 -172 259 -25 19 -143 41 -271
50 l-112 8 98 2 c54 0 131 -4 170 -10z m-355 -39 c-22 -30 -35 -41 -22 -17 9
16 36 47 41 47 2 0 -6 -13 -19 -30z m1064 -189 c17 -11 36 -17 41 -14 6 3 7 1
3 -5 -9 -15 -33 -15 -38 -1 -3 8 -16 10 -41 5 -28 -5 -35 -11 -31 -24 5 -16 5
-16 -9 1 -19 23 -37 22 -37 -3 0 -12 -7 -20 -16 -20 -9 0 -18 9 -21 20 -3 11
-13 20 -22 21 -11 0 -10 3 7 11 16 8 32 8 57 1 31 -10 37 -9 45 8 13 24 22 24
62 0z m-192 -11 c0 -5 -5 -10 -11 -10 -5 0 -7 5 -4 10 3 6 8 10 11 10 2 0 4
-4 4 -10z m-40 -4 c0 -11 -19 -15 -25 -6 -3 5 1 10 9 10 9 0 16 -2 16 -4z m45
-26 c-3 -5 -12 -7 -20 -3 -21 7 -19 13 6 13 11 0 18 -4 14 -10z m264 -9 c8 -5
9 -11 3 -15 -5 -3 -15 1 -22 9 -14 16 -3 20 19 6z m-299 -11 c0 -5 -2 -10 -4
-10 -3 0 -8 5 -11 10 -3 6 -1 10 4 10 6 0 11 -4 11 -10z m55 0 c3 -5 1 -10 -4
-10 -6 0 -11 5 -11 10 0 6 2 10 4 10 3 0 8 -4 11 -10z m-9 -32 c5 4 5 3 1 -2
-12 -15 -34 -15 -34 0 0 9 4 11 12 4 7 -5 16 -6 21 -2z m-68 -12 c-2 -1 -12
-8 -22 -16 -18 -14 -18 -14 -6 7 8 12 18 19 23 16 4 -3 7 -6 5 -7z m-2354 -61
c-15 -71 -46 -136 -62 -133 -22 5 -21 66 1 111 8 18 20 45 27 62 11 29 12 29
26 10 10 -13 12 -30 8 -50z m2167 -34 c-33 -64 -42 -57 -13 9 15 34 28 54 30
46 2 -8 -6 -33 -17 -55z m-1842 -63 c-2 -126 -14 -146 -15 -25 -1 59 3 107 7
107 5 0 9 -37 8 -82z m980 48 c0 -6 -4 -20 -8 -31 -7 -17 -9 -16 -13 11 -3 21
0 31 9 31 7 0 13 -5 12 -11z m371 -7 c34 -7 34 -7 5 -7 -16 -1 -43 5 -60 13
-24 12 -25 14 -5 8 14 -3 41 -10 60 -14z m69 4 c-4 -26 5 -45 34 -75 26 -26
27 -30 7 -17 -38 24 -74 81 -58 91 16 10 18 10 17 1z m851 -18 c0 -8 -2 -15
-4 -15 -2 0 -6 7 -10 15 -3 8 -1 15 4 15 6 0 10 -7 10 -15z m-1414 -7 c5 -8 2
-9 -9 -5 -9 3 -19 2 -22 -4 -4 -5 -1 -8 6 -7 7 2 13 -2 14 -9 0 -18 15 -28 15
-10 0 10 8 17 18 17 9 0 13 -4 7 -8 -9 -7 -17 -42 -9 -42 2 0 12 17 23 38 19
36 20 36 18 8 -1 -18 3 -30 13 -33 11 -3 11 -2 3 4 -7 5 -10 18 -6 33 l7 25 6
-25 c4 -14 13 -24 21 -22 9 2 8 -3 -5 -16 -17 -20 -17 -20 16 -13 31 7 33 6
33 -21 1 -15 -3 -28 -7 -28 -5 0 -5 -12 -2 -26 5 -19 4 -25 -5 -20 -6 4 -10 4
-9 -1 4 -14 -13 -53 -23 -53 -5 0 -4 9 3 20 10 16 10 22 -1 32 -11 10 -12 10
-7 1 4 -7 2 -13 -3 -13 -6 0 -10 -3 -10 -7 3 -21 -2 -33 -12 -28 -5 4 -19 -1
-29 -10 -10 -9 -24 -14 -31 -9 -8 5 -10 3 -4 -6 6 -10 4 -12 -9 -7 -10 4 -15
3 -11 -3 3 -6 14 -10 23 -11 12 0 11 -3 -5 -9 -13 -5 -23 -14 -23 -20 0 -5 -7
-10 -16 -10 -13 0 -14 3 -5 13 8 10 7 14 -4 14 -8 0 -15 -4 -15 -9 0 -4 -6 -8
-14 -8 -8 0 -16 -7 -20 -15 -3 -8 -12 -15 -20 -15 -10 0 -13 -6 -9 -17 6 -16
5 -16 -10 -4 -9 7 -14 18 -10 24 3 6 1 7 -5 3 -8 -5 -9 -13 -3 -24 5 -9 5 -26
0 -37 -11 -30 -11 -35 6 -35 8 0 15 -6 15 -14 0 -8 4 -18 10 -21 14 -9 52 14
44 27 -5 8 -1 9 10 5 10 -4 22 -7 27 -7 5 0 9 -8 9 -17 0 -14 -2 -15 -9 -5 -7
11 -9 10 -14 -3 -4 -9 -3 -14 2 -11 4 3 17 -1 27 -9 18 -13 17 -14 -8 -9 -28
4 -38 -9 -16 -22 7 -5 8 -2 3 7 -5 8 -4 10 0 6 12 -10 15 -38 4 -31 -5 3 -9
-5 -9 -16 0 -15 5 -20 15 -17 8 4 17 2 19 -2 3 -5 -5 -8 -17 -7 -16 1 -23 8
-25 29 -3 27 -16 35 -27 17 -4 -6 -10 -8 -14 -6 -4 3 -8 -4 -8 -15 -1 -11 5
-19 15 -20 11 0 12 -2 4 -6 -6 -2 -10 -9 -6 -14 3 -5 0 -9 -5 -9 -6 0 -11 7
-11 16 0 10 -5 12 -12 7 -23 -13 -34 -11 -35 7 -1 10 5 21 13 24 8 3 12 2 9
-3 -3 -5 -1 -12 5 -16 5 -3 10 3 10 14 0 20 -12 25 -50 22 -18 -1 -46 52 -30
57 5 2 10 13 11 25 l0 22 9 -21 c4 -12 16 -24 25 -28 11 -4 14 -12 10 -26 -4
-14 -2 -20 8 -20 22 0 9 48 -15 56 -11 3 -17 12 -14 19 3 8 -2 19 -9 25 -12
10 -16 9 -21 -4 -3 -9 -11 -13 -17 -9 -6 4 -7 1 -2 -7 11 -18 -16 -32 -34 -17
-12 10 -13 9 -2 -10 6 -13 17 -23 24 -23 7 0 20 -14 29 -30 16 -27 16 -31 2
-37 -8 -3 -21 0 -27 6 -9 9 -8 11 6 6 10 -4 17 -2 17 4 0 6 -5 11 -10 11 -6 0
-9 6 -8 13 2 7 -6 11 -21 9 -18 -3 -22 0 -18 12 8 20 -11 32 -26 16 -9 -10 -9
-11 2 -5 9 5 12 4 7 -3 -10 -17 -26 -15 -26 3 0 8 -3 14 -7 14 -22 -4 -25 3
-7 16 13 10 14 14 4 13 -8 -2 -23 -13 -33 -25 -10 -13 -24 -20 -33 -16 -8 3
-12 8 -10 11 7 7 -14 32 -26 32 -6 0 -6 -6 1 -14 10 -12 8 -13 -11 -9 -13 3
-29 13 -35 21 -18 23 -15 1 3 -23 15 -20 19 -22 62 -24 25 -1 29 -16 6 -25 -8
-3 -13 -2 -10 3 3 5 -1 11 -9 15 -10 3 -15 -1 -15 -11 0 -12 -7 -8 -26 13 -16
17 -24 22 -21 12 5 -14 1 -17 -17 -16 -13 1 -22 7 -20 13 3 6 -5 11 -16 12
-11 1 -20 -3 -20 -8 0 -6 4 -7 10 -4 5 3 7 0 4 -8 -2 -7 -15 -12 -27 -11 -12
1 -26 3 -32 3 -5 1 1 8 13 17 21 14 22 17 7 28 -14 10 -15 14 -3 23 7 7 26 13
40 15 15 2 31 8 35 12 4 5 -1 7 -12 4 -11 -3 -26 1 -33 8 -17 18 -53 -3 -44
-25 5 -14 4 -14 -12 -2 -15 13 -16 15 -2 23 24 14 19 25 -15 32 -18 3 -28 10
-24 17 4 6 13 8 21 5 20 -8 25 8 9 30 -11 16 -16 17 -27 6 -11 -11 -10 -12 6
-6 13 5 17 4 12 -4 -3 -6 -15 -10 -26 -9 -13 1 -16 5 -10 13 6 6 6 15 2 19 -4
5 -2 5 5 2 14 -9 46 21 37 34 -3 5 -10 7 -15 4 -5 -3 -6 2 -2 11 4 11 3 15 -4
11 -7 -5 -9 0 -6 13 3 11 9 23 14 26 5 3 6 -2 3 -10 -3 -9 -1 -16 5 -16 6 0
11 7 11 16 0 9 5 13 13 9 6 -4 3 1 -7 9 -12 10 -15 16 -7 16 8 0 11 6 7 15 -3
8 0 15 7 16 9 0 9 2 -1 6 -6 2 -9 9 -6 14 3 6 12 5 22 -3 15 -11 15 -11 6 2
-6 8 -13 21 -16 29 -2 8 -22 -14 -47 -52 -38 -59 -116 -137 -137 -137 -5 0 8
14 28 31 22 17 58 67 84 116 l47 85 71 -8 c124 -15 294 -11 369 10 52 14 70
16 81 7 10 -8 16 -9 21 -1 3 5 0 10 -7 11 -7 1 -2 5 12 9 37 12 48 11 56 -2z
m1377 -48 c-4 -16 -2 -19 11 -14 9 3 14 10 11 14 -3 5 0 12 7 16 7 4 10 4 6
-1 -4 -4 -3 -14 3 -22 13 -15 43 -18 34 -4 -3 5 -1 12 4 15 5 4 8 -1 7 -10 -1
-8 -9 -20 -17 -25 -11 -7 -9 -9 9 -9 16 0 22 -6 23 -22 0 -13 2 -33 3 -45 2
-13 -1 -23 -6 -23 -4 0 -8 12 -8 26 0 14 -4 23 -10 19 -6 -4 -8 -10 -5 -16 3
-5 3 -24 -1 -44 -5 -30 -10 -35 -33 -35 -18 0 -22 3 -13 9 11 7 10 9 -3 14 -9
4 -14 3 -11 -2 3 -5 -6 -17 -20 -26 -17 -11 -24 -12 -18 -4 5 8 10 25 12 39 2
13 8 28 14 31 7 4 7 13 -1 26 -5 11 -7 24 -3 29 4 5 3 6 -2 2 -5 -4 -15 -3
-22 3 -15 12 -28 -5 -20 -27 3 -9 1 -12 -4 -9 -6 3 -10 15 -10 26 0 10 -5 19
-11 19 -5 0 -7 -5 -3 -12 4 -7 3 -8 -4 -4 -9 5 -9 13 -2 27 6 10 13 19 16 19
3 0 2 -5 -2 -11 -4 -7 -1 -10 7 -7 8 3 13 11 12 17 -2 6 2 11 8 11 6 0 9 -6 6
-14 -3 -8 1 -17 10 -20 20 -8 32 3 14 13 -10 7 -11 13 -2 30 15 27 21 27 14 1z
m121 -56 c3 -8 2 -12 -4 -9 -6 3 -10 10 -10 16 0 14 7 11 14 -7z m-788 -4 c9
0 13 -4 10 -8 -4 -7 -23 -7 -71 -3 -5 1 -3 6 5 11 8 5 21 8 28 5 8 -3 20 -5
28 -5z m113 -31 c-20 -12 -51 -11 -44 2 4 6 13 8 21 5 8 -3 14 -1 14 5 0 6 5
7 11 3 8 -4 7 -9 -2 -15z m524 -55 c-3 -8 -7 -14 -10 -14 -3 0 -3 6 0 14 3 7
0 20 -6 27 -10 11 -9 11 5 0 9 -7 14 -19 11 -27z m-1173 10 c0 -8 -19 -13 -24
-6 -3 5 1 9 9 9 8 0 15 -2 15 -3z m1145 -4 c3 -5 2 -10 -4 -10 -5 0 -13 5 -16
10 -3 6 -2 10 4 10 5 0 13 -4 16 -10z m157 -7 c-6 -2 -10 -9 -6 -14 3 -5 0 -9
-5 -9 -12 0 -14 13 -4 23 3 4 11 7 17 6 6 0 5 -3 -2 -6z m-2370 -35 c-8 -8 -9
-4 -5 13 4 13 8 18 11 10 2 -7 -1 -18 -6 -23z m2244 -40 c4 -7 3 -8 -4 -4 -6
3 -16 -3 -23 -15 -8 -16 -8 -23 1 -29 8 -5 5 -9 -8 -12 -16 -5 -19 -2 -14 11
5 14 4 14 -11 2 -30 -24 -18 -3 16 28 37 36 34 34 43 19z m-1294 -35 c-10 -4
-9 -9 5 -20 10 -8 12 -11 5 -8 -7 4 -22 -1 -32 -10 -15 -14 -23 -15 -33 -6 -8
6 -16 9 -19 6 -2 -3 -5 2 -5 10 0 20 7 19 22 -2 11 -14 15 -15 29 -4 8 7 15
16 14 19 -2 16 3 22 15 21 9 0 9 -2 -1 -6z m-125 -17 c0 -7 -10 -19 -21 -26
-19 -12 -20 -12 -7 3 7 10 10 17 5 17 -6 0 14 18 22 20 0 0 1 -6 1 -14z m-547
-35 c0 -6 -4 -12 -8 -15 -5 -3 -9 1 -9 9 0 8 4 15 9 15 4 0 8 -4 8 -9z m600
-9 c24 -10 24 -13 -2 -16 -7 -1 -12 -7 -10 -14 1 -7 -3 -12 -9 -12 -7 0 -9 11
-5 28 3 15 3 21 0 14 -3 -6 -10 -10 -14 -7 -5 3 -12 0 -16 -6 -4 -8 -3 -9 4
-5 7 4 12 2 12 -3 0 -6 -7 -11 -16 -11 -11 0 -14 -5 -10 -16 5 -14 4 -15 -9
-4 -12 10 -15 10 -15 0 0 -8 -3 -11 -6 -8 -3 4 -1 16 6 27 6 12 7 21 3 20 -17
-3 -33 1 -33 9 0 5 14 7 30 4 18 -2 30 0 30 7 0 12 22 10 60 -7z m1330 14 c0
-2 -7 -7 -16 -10 -8 -3 -12 -2 -9 4 6 10 25 14 25 6z m-1216 -24 c3 -5 -1 -9
-9 -9 -8 0 -12 4 -9 9 3 4 7 8 9 8 2 0 6 -4 9 -8z m-87 -34 c-3 -8 -6 -5 -6 6
-1 11 2 17 5 13 3 -3 4 -12 1 -19z m-9 -27 c10 -29 10 -32 -3 -21 -8 7 -15 24
-15 38 0 31 3 27 18 -17z m82 19 c0 -5 -5 -10 -11 -10 -5 0 -7 5 -4 10 3 6 8
10 11 10 2 0 4 -4 4 -10z m-53 -32 c-3 -8 -6 -5 -6 6 -1 11 2 17 5 13 3 -3 4
-12 1 -19z m37 1 c-6 -11 -24 -2 -24 11 0 5 7 7 15 4 8 -4 12 -10 9 -15z
m-405 -16 c-12 -15 -12 -16 3 -11 9 4 23 -1 32 -11 16 -17 15 -18 -10 -18 -18
0 -22 2 -13 8 10 6 8 9 -8 9 -25 0 -29 10 -11 28 18 18 22 15 7 -5z m1661 7
c0 -5 -4 -10 -10 -10 -5 0 -10 5 -10 10 0 6 5 10 10 10 6 0 10 -4 10 -10z m30
-4 c0 -2 -8 -10 -17 -17 -16 -13 -17 -12 -4 4 13 16 21 21 21 13z m15 -55 c-6
-5 -25 10 -25 20 0 5 6 4 14 -3 8 -7 12 -15 11 -17z m-2338 -23 c-3 -8 -6 -5
-6 6 -1 11 2 17 5 13 3 -3 4 -12 1 -19z m903 12 c0 -5 -5 -10 -11 -10 -5 0 -7
5 -4 10 3 6 8 10 11 10 2 0 4 -4 4 -10z m-205 -10 c4 -6 1 -9 -7 -8 -7 2 -12
-3 -10 -11 3 -12 1 -12 -15 -1 -28 22 -29 24 -11 17 10 -3 20 -2 23 3 8 13 12
12 20 0z m289 -6 c3 -8 2 -12 -4 -9 -6 3 -10 10 -10 16 0 14 7 11 14 -7z
m-214 -8 c0 -3 -4 -8 -10 -11 -5 -3 -10 -1 -10 4 0 6 5 11 10 11 6 0 10 -2 10
-4z m-795 -61 c-22 -60 -29 -53 -7 7 9 26 18 45 21 43 2 -3 -4 -25 -14 -50z
m685 34 c0 -5 -4 -9 -8 -9 -5 0 -9 7 -9 15 0 8 4 12 9 9 4 -3 8 -9 8 -15z m57
-1 c-3 -8 -6 -5 -6 6 -1 11 2 17 5 13 3 -3 4 -12 1 -19z m298 12 c-3 -5 -12
-10 -18 -10 -7 0 -6 4 3 10 19 12 23 12 15 0z m-68 -6 c-3 -3 -12 -4 -19 -1
-8 3 -5 6 6 6 11 1 17 -2 13 -5z m-253 -17 c-2 -7 -15 -13 -27 -14 -21 -2 -21
-1 3 12 31 18 30 18 24 2z m229 0 c7 4 5 -2 -3 -13 -8 -10 -16 -21 -17 -23 -2
-2 -3 9 -2 25 0 16 3 23 6 16 2 -6 10 -9 16 -5z m-43 -7 c0 -5 -4 -10 -10 -10
-5 0 -10 5 -10 10 0 6 5 10 10 10 6 0 10 -4 10 -10z m54 -43 c6 4 5 1 -4 -7
-8 -8 -16 -24 -18 -35 -2 -11 -10 -27 -18 -35 -13 -13 -13 -11 0 15 14 26 14
32 0 53 -15 23 -15 23 6 12 12 -6 27 -8 34 -3z m53 -3 c-3 -3 -12 -4 -19 -1
-8 3 -5 6 6 6 11 1 17 -2 13 -5z m-104 -29 c-7 -21 -13 -19 -13 6 0 11 4 18
10 14 5 -3 7 -12 3 -20z m-945 -27 c-8 -13 -21 -53 -28 -90 -7 -38 -15 -68
-19 -68 -4 0 -6 -14 -3 -30 5 -37 -24 -148 -46 -172 -18 -21 -40 -24 -23 -4 7
8 8 15 2 18 -5 2 -3 14 5 28 15 25 15 25 8 1 -4 -17 -3 -21 6 -16 6 4 10 18 7
31 -2 13 -1 21 3 19 4 -3 8 7 9 20 1 14 3 36 4 49 1 13 5 22 8 20 6 -4 8 8 9
77 0 38 57 156 68 144 3 -2 -2 -15 -10 -27z m806 6 c3 -8 2 -12 -4 -9 -6 3
-10 10 -10 16 0 14 7 11 14 -7z m226 12 c0 -2 -8 -10 -17 -17 -16 -13 -17 -12
-4 4 13 16 21 21 21 13z m47 -21 c0 -10 -6 -14 -14 -10 -8 3 -20 5 -26 6 -7 1
-1 5 13 9 14 4 25 8 26 9 0 1 1 -6 1 -14z m-111 -57 c-9 -5 -14 -13 -11 -19 4
-5 1 -9 -4 -9 -14 0 -14 17 -1 25 6 4 8 11 5 16 -3 5 1 6 11 2 15 -5 15 -7 0
-15z m171 6 c-3 -3 -12 -4 -19 -1 -8 3 -5 6 6 6 11 1 17 -2 13 -5z m608 -112
c-3 -3 -11 0 -18 7 -9 10 -8 11 6 5 10 -3 15 -9 12 -12z m-1889 -148 c-3 -9
-6 -23 -7 -32 0 -13 -2 -13 -8 3 -9 23 -4 45 11 45 6 0 7 -7 4 -16z m-136 -28
c0 -2 -8 -10 -17 -17 -16 -13 -17 -12 -4 4 13 16 21 21 21 13z m26 -31 c1 -8
-4 -15 -11 -15 -8 0 -11 7 -8 20 6 22 15 19 19 -5z m-209 -227 c-3 -8 -6 -5
-6 6 -1 11 2 17 5 13 3 -3 4 -12 1 -19z m2789 -124 c1 -9 0 -13 -4 -10 -3 4
-7 14 -8 22 -1 9 0 13 4 10 3 -4 7 -14 8 -22z m-41 -23 c3 -5 2 -12 -3 -15 -5
-3 -9 1 -9 9 0 17 3 19 12 6z m-2669 -106 l29 -15 -25 0 c-37 0 -71 11 -64 21
8 13 28 11 60 -6z"/>
<path d="M2004 2469 c-19 -22 -19 -22 3 -10 24 12 39 31 25 31 -5 0 -17 -10
-28 -21z"/>
<path d="M2656 2112 c-3 -5 1 -9 9 -9 8 0 12 4 9 9 -3 4 -7 8 -9 8 -2 0 -6 -4
-9 -8z"/>
<path d="M3810 1819 c0 -5 5 -7 10 -4 6 3 10 8 10 11 0 2 -4 4 -10 4 -5 0 -10
-5 -10 -11z"/>
<path d="M2420 1586 c0 -2 7 -9 15 -16 13 -11 14 -10 9 4 -5 14 -24 23 -24 12z"/>
<path d="M1990 1549 c0 -5 6 -9 13 -10 6 0 3 -4 -8 -8 -17 -7 -17 -8 7 -13 15
-3 25 -2 23 3 -3 4 -1 9 5 11 5 1 -2 8 -15 15 -14 6 -25 7 -25 2z"/>
<path d="M2097 1535 c3 -8 9 -12 14 -9 12 7 11 11 -5 17 -10 4 -13 1 -9 -8z"/>
<path d="M2139 1533 c-13 -16 -12 -17 4 -4 9 7 17 15 17 17 0 8 -8 3 -21 -13z"/>
<path d="M2575 1540 c-3 -5 -1 -10 4 -10 6 0 11 5 11 10 0 6 -2 10 -4 10 -3 0
-8 -4 -11 -10z"/>
<path d="M1978 1273 c7 -3 16 -2 19 1 4 3 -2 6 -13 5 -11 0 -14 -3 -6 -6z"/>
<path d="M2030 1261 c0 -6 4 -13 10 -16 6 -3 7 1 4 9 -7 18 -14 21 -14 7z"/>
<path d="M2365 1250 c3 -5 8 -10 11 -10 2 0 4 5 4 10 0 6 -5 10 -11 10 -5 0
-7 -4 -4 -10z"/>
<path d="M1975 1189 c-4 -5 3 -8 14 -6 28 4 34 12 11 14 -11 1 -22 -2 -25 -8z"/>
<path d="M2038 1193 c7 -3 16 -2 19 1 4 3 -2 6 -13 5 -11 0 -14 -3 -6 -6z"/>
<path d="M2445 1150 c-3 -5 -1 -10 5 -10 6 0 8 -5 4 -12 -4 -7 -3 -8 4 -4 6 4
9 13 5 21 -6 18 -10 19 -18 5z"/>
<path d="M2420 1141 c0 -6 4 -13 10 -16 6 -3 7 1 4 9 -7 18 -14 21 -14 7z"/>
<path d="M3930 1505 c0 -8 2 -15 4 -15 2 0 6 7 10 15 3 8 1 15 -4 15 -6 0 -10
-7 -10 -15z"/>
<path d="M3930 1460 c0 -5 5 -10 11 -10 5 0 7 5 4 10 -3 6 -8 10 -11 10 -2 0
-4 -4 -4 -10z"/>
<path d="M3880 2289 c0 -9 7 -22 15 -29 19 -16 19 0 0 26 -12 16 -14 16 -15 3z"/>
<path d="M3984 1908 c-3 -4 -2 -8 3 -8 4 0 1 -5 -7 -11 -12 -8 -10 -9 10 -7
27 3 41 35 15 35 -9 0 -18 -4 -21 -9z"/>
<path d="M3985 1030 c10 -11 20 -20 23 -20 3 0 -3 9 -13 20 -10 11 -20 20 -23
20 -3 0 3 -9 13 -20z"/>
<path d="M1250 390 c-8 -5 -12 -11 -9 -14 2 -3 11 -1 19 4 8 5 12 11 9 14 -2
3 -11 1 -19 -4z"/>
<path d="M1146 323 c-3 -3 -3 -10 0 -14 7 -12 44 -12 44 0 0 10 -36 21 -44 14z"/>
<path d="M1205 320 c4 -6 11 -8 16 -5 14 9 11 15 -7 15 -8 0 -12 -5 -9 -10z"/>
<path d="M1135 130 c-3 -5 1 -10 10 -10 9 0 13 5 10 10 -3 6 -8 10 -10 10 -2
0 -7 -4 -10 -10z"/>
</g>
</svg>
