<?xml version="1.0" standalone="no"?>
<!DOCTYPE svg PUBLIC "-//W3C//DTD SVG 20010904//EN"
 "http://www.w3.org/TR/2001/REC-SVG-20010904/DTD/svg10.dtd">
<svg version="1.0" xmlns="http://www.w3.org/2000/svg"
 width="612.000000pt" height="408.000000pt" viewBox="0 0 612.000000 408.000000"
 preserveAspectRatio="xMidYMid meet">

<g transform="translate(0.000000,408.000000) scale(0.100000,-0.100000)"
fill="#000000" stroke="none">
<path d="M370 4008 c-1 -165 9 -341 21 -352 6 -6 9 -6 9 0 0 5 2 59 5 119 3
61 4 119 3 130 -1 11 -2 55 -2 98 -1 66 -3 77 -18 77 -15 0 -18 -11 -18 -72z"/>
<path d="M1497 3933 l-48 -4 38 -28 c39 -28 117 -61 144 -61 42 0 270 -138
308 -186 34 -43 28 -57 -21 -50 -24 4 -71 10 -105 14 -45 5 -68 14 -83 30 -11
12 -22 22 -23 23 -1 0 -37 4 -80 8 -54 6 -88 15 -107 29 -15 12 -39 24 -53 27
-29 8 -44 35 -51 94 -3 25 -10 49 -15 54 -15 15 -43 -1 -37 -20 3 -10 10 -83
15 -163 6 -80 16 -217 23 -305 8 -103 11 -346 10 -682 -1 -331 2 -524 8 -528
19 -12 65 20 83 57 24 48 29 255 9 343 -7 33 -11 71 -8 85 3 14 -2 59 -10 101
-11 53 -14 120 -12 230 4 175 23 270 68 356 17 31 30 66 30 78 0 26 36 75 54
75 28 0 46 -36 46 -93 0 -56 6 -67 26 -47 7 7 19 -1 36 -26 21 -28 24 -41 17
-62 -5 -15 -11 -40 -14 -56 -5 -24 -10 -27 -31 -23 -21 4 -28 -1 -41 -28 -14
-29 -14 -35 1 -63 9 -17 16 -38 16 -47 0 -45 135 -261 217 -347 44 -46 63 -74
63 -92 0 -15 8 -30 20 -36 11 -6 20 -19 20 -29 0 -22 -25 -45 -40 -36 -15 9
-21 -15 -12 -46 10 -37 110 -125 124 -111 8 8 8 22 -2 51 -12 37 -11 42 11 69
13 17 35 36 48 43 23 13 23 17 18 96 -3 54 0 96 8 120 16 47 27 272 15 313 -8
30 7 60 30 60 19 0 42 -50 38 -81 -3 -18 0 -32 6 -34 118 -31 151 -53 144 -98
-3 -20 -9 -22 -73 -22 l-70 0 -6 -47 c-4 -26 -4 -134 -1 -240 l7 -193 18 34
c11 18 17 45 14 58 -4 20 2 29 27 44 17 10 42 19 56 19 40 0 53 31 40 93 -18
76 -12 102 23 100 15 -1 27 2 27 7 0 15 31 40 42 34 5 -4 17 -22 25 -41 9 -24
19 -33 29 -29 8 3 31 -9 53 -29 21 -19 48 -35 59 -35 12 0 36 -18 58 -45 20
-25 42 -45 49 -45 7 0 19 -10 27 -22 9 -13 34 -42 57 -64 45 -46 53 -79 20
-87 -18 -5 -20 -11 -15 -39 3 -18 8 -44 10 -57 7 -38 55 -57 73 -28 11 18 55
47 71 47 25 0 23 -28 -8 -74 -17 -25 -29 -49 -26 -54 10 -16 -11 -32 -47 -34
-26 -2 -40 -9 -48 -26 -27 -49 -68 -63 -181 -60 l-103 3 -3 27 c-2 19 3 31 17
40 12 7 21 23 21 37 0 13 -3 21 -7 18 -3 -4 -17 0 -29 8 -30 19 -38 6 -24 -45
13 -47 3 -135 -16 -151 -8 -6 -14 -21 -14 -33 0 -11 -11 -34 -24 -51 -53 -65
-85 18 -47 121 20 53 26 95 16 106 -3 3 -23 -3 -44 -14 -37 -18 -42 -18 -92
-3 -86 26 -99 33 -108 59 -7 18 -15 22 -33 19 -14 -3 -32 4 -46 17 -19 18 -22
28 -16 53 6 29 5 30 -10 14 -27 -27 -60 -30 -98 -10 -43 22 -138 133 -172 200
-32 65 -73 113 -95 113 -23 0 -46 27 -55 62 -3 15 -15 32 -26 38 -16 8 -21 6
-31 -12 -15 -28 -22 -108 -10 -122 5 -6 14 -28 21 -50 14 -42 74 -116 96 -116
14 0 51 -46 74 -93 8 -16 26 -39 40 -51 32 -26 80 -95 80 -114 0 -8 -9 -25
-20 -40 -14 -17 -17 -28 -9 -32 6 -4 10 -10 10 -14 -4 -25 1 -35 14 -30 16 6
65 -38 65 -58 0 -7 18 -31 41 -53 59 -57 142 -155 132 -155 -5 0 -14 5 -21 12
-9 9 -12 9 -12 1 0 -7 4 -14 9 -17 4 -3 11 -24 15 -47 5 -31 10 -40 22 -35 9
3 18 6 21 6 3 0 -2 11 -11 25 -19 30 -17 30 29 8 26 -13 35 -23 35 -42 0 -13
10 -36 23 -49 l22 -25 -26 17 c-25 15 -27 15 -53 -5 -35 -28 -21 -42 28 -28
21 6 48 8 60 5 33 -8 76 15 76 41 0 29 16 30 23 1 4 -12 8 -20 11 -17 11 11
-11 59 -42 93 -18 20 -33 39 -34 43 -4 17 -83 93 -93 90 -6 -3 -28 -1 -50 3
-22 4 -30 8 -18 9 37 2 37 20 0 56 -19 19 -40 50 -47 69 -7 23 -18 36 -33 39
-20 3 -20 4 -4 12 28 12 142 -51 184 -102 28 -34 34 -48 28 -71 -4 -21 0 -35
17 -54 44 -50 85 -103 97 -126 7 -13 43 -43 81 -67 37 -24 71 -48 75 -54 3 -6
19 -11 36 -11 18 0 28 -5 27 -12 -2 -7 7 -14 19 -16 12 -2 32 -14 45 -27 13
-14 31 -25 41 -25 9 0 17 -4 17 -10 0 -5 7 -10 15 -10 8 0 15 -4 15 -8 0 -12
77 -61 106 -68 13 -3 24 -10 24 -14 0 -43 155 -175 172 -147 5 8 8 6 8 -5 0
-10 7 -18 15 -18 8 0 15 -9 15 -20 0 -25 -21 -26 -102 -1 -35 10 -93 24 -131
29 -63 10 -134 38 -237 97 -42 23 -54 25 -177 25 l-131 0 -32 39 c-36 47 -57
55 -95 41 -37 -14 -80 -4 -110 26 -40 40 -33 57 18 49 41 -7 41 -6 20 10 -13
9 -23 23 -23 31 0 8 -7 26 -16 39 -9 14 -14 31 -11 38 3 7 -1 21 -9 32 -8 10
-14 27 -14 36 0 10 -9 20 -19 24 -10 3 -34 24 -52 47 -19 23 -45 52 -59 64
-14 11 -62 54 -107 93 -46 40 -83 76 -83 81 0 11 -108 100 -121 100 -15 0 38
-87 117 -192 74 -97 85 -122 62 -130 -26 -10 -40 6 -118 125 -44 67 -92 140
-109 162 -16 22 -39 58 -52 80 -45 79 -43 78 -118 40 -36 -19 -79 -43 -96 -54
-16 -12 -39 -21 -50 -21 -26 0 -114 -62 -136 -97 -20 -30 -17 -43 11 -43 21 0
42 -27 95 -125 20 -38 41 -74 45 -80 4 -5 27 -46 51 -90 68 -128 88 -155 124
-172 29 -14 115 -118 115 -139 0 -4 11 -19 25 -36 14 -16 25 -38 25 -48 0 -10
4 -21 9 -24 5 -4 35 -45 67 -94 59 -89 139 -182 158 -182 6 -1 29 -9 51 -20
22 -11 45 -19 50 -20 6 0 28 -9 50 -20 23 -12 60 -20 90 -21 27 0 43 -3 35 -6
-8 -3 -18 -11 -22 -17 -6 -8 -8 -8 -8 0 0 7 -11 11 -25 10 -14 0 -25 -4 -25
-8 0 -5 -16 -8 -37 -8 -75 0 -19 -14 105 -26 70 -7 159 -17 197 -23 90 -13
261 -31 350 -36 178 -10 261 -18 278 -27 15 -8 33 5 107 78 49 48 87 90 85 94
-2 4 -77 10 -166 13 -89 4 -167 11 -173 17 -7 5 -104 12 -217 15 -112 3 -231
12 -263 18 -59 12 -59 13 -70 57 -11 45 -2 128 17 158 5 7 32 12 70 12 71 0
125 -22 158 -64 11 -14 25 -26 30 -26 5 0 49 -25 97 -56 l87 -55 -51 48 c-28
27 -72 64 -97 83 -51 38 -59 66 -24 79 25 9 268 -5 308 -18 25 -9 263 -183
274 -201 3 -6 11 -10 16 -10 12 0 4 371 -10 454 -10 57 -21 85 -21 54 0 -9 -6
-21 -14 -27 -12 -10 -22 -6 -53 22 -33 30 -41 33 -66 24 -21 -7 -36 -6 -53 4
-18 9 -33 10 -57 2 -27 -8 -41 -7 -68 8 -24 12 -29 19 -19 22 30 10 76 19 125
24 28 3 54 9 59 14 6 5 -25 25 -77 49 -66 30 -87 45 -87 60 0 32 34 42 135 38
l93 -3 37 112 c23 69 41 110 48 106 6 -4 8 -47 4 -125 -7 -125 5 -188 36 -188
48 0 69 -177 60 -484 l-6 -198 22 11 c35 19 61 71 61 123 0 60 13 120 60 288
77 272 85 328 56 409 -29 79 -16 186 34 297 31 70 62 96 168 144 72 33 73 33
108 17 19 -10 45 -17 59 -17 33 0 66 -14 93 -40 22 -21 22 -23 6 -41 -9 -10
-25 -19 -34 -19 -10 0 -21 -7 -24 -16 -10 -26 -7 -82 5 -86 6 -2 10 -32 8 -78
-4 -137 0 -170 21 -197 11 -15 18 -33 16 -42 -2 -9 -7 -41 -11 -73 -5 -46 -10
-57 -28 -62 -12 -3 -34 -24 -50 -46 -28 -41 -79 -178 -98 -260 -12 -54 -25
-70 -55 -70 -20 0 -24 -5 -24 -30 0 -23 6 -33 25 -42 25 -11 34 -28 15 -28 -5
0 -10 -7 -10 -16 0 -8 4 -13 9 -9 11 6 26 -33 17 -42 -3 -4 -6 2 -6 11 0 10
-6 16 -12 14 -12 -4 -23 -34 -76 -207 -16 -49 -53 -101 -73 -101 -5 0 -8 -4
-6 -9 1 -5 -7 -17 -18 -25 -16 -12 -17 -15 -4 -16 8 0 19 4 25 8 23 21 84 53
84 44 0 -5 -19 -19 -42 -30 -24 -11 -70 -41 -103 -66 -33 -25 -65 -46 -72 -46
-8 0 -8 -7 0 -30 8 -22 16 -28 32 -25 15 4 29 -6 54 -41 34 -45 34 -46 18 -74
-9 -15 -17 -37 -17 -48 0 -12 -5 -24 -10 -27 -14 -9 -61 23 -58 38 3 14 -27
60 -59 90 -28 26 -30 63 -3 79 11 7 20 17 20 22 0 6 -5 5 -11 -1 -6 -6 -18 -9
-25 -6 -10 4 -12 0 -7 -13 6 -17 5 -17 -10 -5 -10 8 -17 9 -17 3 0 -6 5 -14
11 -18 14 -8 -20 -38 -101 -91 -51 -33 -59 -42 -65 -78 -13 -79 -15 -221 -4
-287 l11 -68 1391 0 1392 0 93 22 92 22 0 78 0 78 -39 0 c-22 0 -55 9 -73 19
-18 10 -55 22 -83 26 -72 9 -86 15 -83 33 5 27 -59 37 -139 24 -74 -12 -336
-27 -749 -42 -143 -5 -275 -13 -292 -16 -29 -6 -32 -4 -32 19 0 55 4 57 119
58 58 0 144 4 191 9 138 14 971 41 1020 34 40 -6 42 -8 20 -15 -16 -5 5 -7 55
-6 l80 2 -3 70 c-3 76 -3 119 4 1977 3 999 2 1247 -8 1243 -18 -7 -237 -35
-270 -35 -38 0 -44 30 -17 86 12 25 23 67 24 92 2 26 4 52 4 58 1 16 70 31
179 40 69 5 92 10 92 21 0 11 -65 13 -414 13 -252 -1 -429 3 -453 9 -21 6
-195 11 -393 13 l-355 3 1 -50 c10 -624 13 -2006 6 -2618 -5 -439 -7 -808 -5
-821 3 -15 14 -27 29 -30 29 -8 46 -38 42 -74 -3 -23 -7 -27 -32 -25 -29 2
-193 80 -203 96 -10 16 -14 2876 -5 3192 4 160 4 300 0 312 l-7 23 -333 -3
c-315 -3 -443 -13 -487 -37 -11 -5 -21 -26 -25 -49 -3 -22 -12 -43 -19 -48 -6
-4 -43 -13 -82 -19 -38 -7 -95 -19 -125 -27 -30 -8 -111 -24 -180 -36 -69 -12
-183 -35 -255 -51 -71 -16 -146 -31 -166 -33 -37 -5 -69 5 -51 17 17 10 6 55
-19 82 -21 23 -29 25 -71 20 -29 -4 -73 -1 -114 9 -76 17 -91 24 -75 34 6 4
-42 15 -107 25 -119 18 -157 27 -203 51 -96 51 -307 74 -522 58z m3788 -104
c8 -37 0 -49 -35 -49 -33 0 -47 23 -41 69 1 12 30 18 53 13 9 -2 20 -17 23
-33z m-285 -77 c46 -6 55 -10 55 -27 0 -19 -9 -20 -185 -28 -123 -6 -187 -12
-192 -20 -4 -7 -8 -40 -8 -73 0 -103 4 -106 203 -112 171 -5 204 -13 192 -44
-10 -25 -22 -27 -221 -30 -149 -2 -184 0 -199 12 -16 13 -17 28 -11 155 9 182
2 175 180 174 72 -1 156 -4 186 -7z m520 -102 c93 -5 156 -13 158 -19 2 -6 10
-11 17 -11 8 0 17 -5 20 -10 4 -6 -5 -10 -22 -8 -34 2 -56 -9 -47 -24 5 -8 -4
-9 -29 -5 -31 5 -40 2 -57 -20 -11 -14 -20 -31 -20 -39 0 -17 -35 -22 -180
-26 l-125 -3 -5 71 c-7 107 -9 104 68 104 37 -1 137 -5 222 -10z m-3200 -10
c0 -6 -39 -10 -96 -10 -61 0 -93 4 -89 10 3 6 46 10 96 10 53 0 89 -4 89 -10z
m-300 -134 c76 -1 94 2 92 13 -3 14 25 51 40 51 4 0 8 -7 8 -15 0 -12 17 -15
90 -15 88 0 120 -13 63 -26 -49 -10 -52 -13 -59 -38 -4 -17 -1 -31 10 -41 9
-9 16 -18 16 -20 0 -20 -149 -55 -236 -55 -21 0 -45 -7 -55 -16 -27 -25 -49
-11 -49 31 0 53 -14 71 -63 85 -53 14 -79 4 -99 -38 -16 -34 -54 -42 -63 -13
-7 23 12 129 26 147 7 8 34 3 97 -19 73 -26 102 -31 182 -31z m1443 -6 c7 -28
-24 -44 -49 -26 -15 12 -16 16 -5 30 19 22 48 20 54 -4z m182 -190 c3 -63 7
-263 9 -443 l4 -329 33 -36 c19 -20 45 -47 59 -59 l25 -23 -30 0 c-40 -1 -99
-43 -153 -110 -25 -30 -81 -93 -126 -140 -45 -47 -103 -117 -130 -157 -52 -79
-82 -110 -94 -99 -4 4 -6 44 -5 89 2 87 32 208 61 240 14 15 13 20 -4 53 -25
47 -32 51 -52 23 -28 -39 -53 -120 -59 -194 -8 -101 -22 -116 -23 -24 0 82 27
182 62 232 11 15 17 34 14 43 -4 9 0 14 9 12 20 -4 75 34 75 52 0 13 2 13 9 1
11 -17 18 16 26 128 4 54 11 78 23 87 24 19 29 17 36 -11 4 -14 11 -25 16 -25
6 0 10 -6 10 -12 0 -7 12 -26 26 -42 l26 -29 24 27 c24 26 26 26 49 9 13 -10
25 -24 25 -32 0 -7 6 -11 15 -7 9 3 15 0 15 -9 0 -8 5 -15 10 -15 17 0 11 33
-22 136 -28 89 -31 111 -31 224 0 69 2 173 5 232 4 63 2 106 -3 102 -5 -3 -9
4 -9 15 0 11 -4 22 -10 26 -5 3 -6 13 -3 22 4 10 2 14 -4 10 -7 -5 -12 9 -15
38 -2 31 1 45 9 45 7 0 13 6 13 13 0 6 15 35 32 62 l31 50 9 -30 c5 -16 11
-82 13 -145z m-625 75 c0 -8 5 -15 11 -15 19 0 -2 -20 -41 -40 -22 -11 -51
-20 -65 -20 -64 0 -162 -78 -186 -147 -13 -39 -47 -45 -79 -13 -23 23 -30 94
-19 193 l3 28 106 -2 c128 -2 244 8 248 21 6 16 22 12 22 -5z m2270 -54 c0
-12 -37 -24 -50 -16 -20 12 -10 25 20 25 17 0 30 -4 30 -9z m485 -55 c13 -19
16 -56 16 -182 0 -88 -2 -206 -5 -264 -3 -58 -6 -180 -6 -271 0 -127 -4 -170
-15 -185 -11 -15 -17 -17 -32 -8 -17 10 -18 38 -19 450 -1 360 1 443 13 462
17 28 29 28 48 -2z m-3605 -16 c0 -5 -7 -10 -15 -10 -8 0 -15 5 -15 10 0 6 7
10 15 10 8 0 15 -4 15 -10z m-211 -44 c18 -19 21 -31 16 -62 -11 -64 -16 -74
-34 -74 -33 0 -54 36 -53 90 0 28 4 55 7 60 11 17 41 11 64 -14z m1064 -124
c9 -9 15 -31 15 -49 -1 -33 9 -47 55 -76 17 -11 27 -26 27 -42 0 -23 18 -75
31 -85 10 -9 19 -40 11 -40 -5 0 -16 -24 -26 -52 -11 -29 -27 -62 -37 -74 -11
-11 -19 -29 -19 -39 0 -16 -2 -17 -17 -3 -10 9 -32 19 -49 22 -20 5 -34 15
-37 27 -7 25 -27 25 -27 -1 0 -11 -7 -23 -15 -26 -8 -4 -13 -10 -10 -14 3 -5
-4 -6 -15 -3 -12 3 -20 0 -20 -7 0 -6 -10 -10 -22 -8 -20 3 -23 8 -21 43 1 22
8 70 14 107 11 59 16 67 38 71 76 14 87 20 76 36 -9 16 -55 13 -89 -4 -38 -20
-42 -13 -49 83 l-6 77 32 27 c54 47 132 61 160 30z m-1007 -89 c19 -20 34 -41
34 -46 0 -5 14 -39 31 -75 60 -129 69 -158 56 -176 -11 -15 -16 -14 -47 17
-19 18 -49 43 -66 55 -18 12 -44 48 -62 84 -17 35 -39 75 -49 90 -17 27 -17
28 12 58 16 16 35 30 43 30 8 0 30 -17 48 -37z m625 -33 c32 -33 59 -66 59
-73 0 -40 -62 -48 -133 -18 -41 18 -46 24 -65 80 l-20 60 31 4 c18 2 40 5 50
5 11 1 44 -23 78 -58z m722 -99 c9 -10 6 -10 -16 -2 -44 17 -96 13 -130 -10
l-32 -21 29 27 c26 24 36 27 83 23 30 -3 59 -10 66 -17z m-579 -120 c23 -24
24 -29 12 -46 -12 -17 -17 -17 -45 -6 -18 8 -34 23 -37 37 -14 57 22 65 70 15z
m293 -176 c15 -24 17 -101 3 -110 -5 -3 -10 -15 -10 -26 0 -12 -4 -17 -11 -14
-6 4 -9 23 -7 44 3 32 1 36 -19 33 -18 -3 -24 4 -33 37 -6 23 -16 41 -23 42
-25 1 29 16 58 16 19 -1 34 -8 42 -22z m-776 -476 c14 -27 -6 -59 -36 -59 -51
0 -67 57 -22 77 27 12 44 7 58 -18z m1624 -19 c3 -6 -1 -7 -9 -4 -18 7 -21 14
-7 14 6 0 13 -4 16 -10z m1987 -17 c48 -52 51 -68 56 -274 4 -165 2 -202 -11
-228 -14 -28 -14 -33 -1 -38 17 -6 19 -64 2 -81 -7 -7 -39 -12 -75 -12 -61 0
-63 1 -88 37 -31 46 -32 79 -4 109 20 21 21 27 10 86 -9 51 -8 71 5 107 16 48
13 104 -13 184 -24 78 2 137 62 137 21 0 39 -9 57 -27z m-3762 -83 c0 -5 -4
-10 -10 -10 -5 0 -10 5 -10 10 0 6 5 10 10 10 6 0 10 -4 10 -10z m-9 -30 c5 0
9 -7 9 -15 0 -8 5 -15 12 -15 6 0 9 -3 6 -6 -9 -8 -68 24 -68 37 0 6 7 8 16 5
9 -3 20 -6 25 -6z m-486 -80 c3 -5 1 -10 -4 -10 -6 0 -11 5 -11 10 0 6 2 10 4
10 3 0 8 -4 11 -10z m599 -80 c28 -10 36 -40 12 -40 -8 0 -28 11 -43 25 -31
27 -17 34 31 15z m496 -65 c22 -27 4 -45 -44 -45 -45 0 -61 14 -50 45 8 20 77
20 94 0z m-1096 -155 l7 -25 -26 28 c-14 16 -22 33 -19 39 9 13 30 -10 38 -42z
m4067 14 c20 -25 18 -109 -3 -131 -16 -15 -36 -17 -150 -15 -98 2 -128 0 -115
-8 11 -8 17 -24 17 -50 0 -36 3 -40 24 -40 43 0 56 -10 56 -46 0 -30 -3 -34
-34 -39 -18 -4 -44 -5 -57 -3 -21 3 -24 8 -23 41 1 36 0 37 -32 37 -32 0 -34
-2 -34 -35 0 -42 -19 -53 -81 -47 -40 4 -41 5 -36 37 5 30 3 33 -33 44 -30 9
-40 18 -45 41 -3 16 -1 38 5 50 9 17 9 29 0 51 -7 16 -9 40 -6 54 14 57 78 71
347 74 164 2 188 0 200 -15z m-1656 -67 c-4 -15 -11 -24 -16 -21 -5 3 -6 -2
-3 -11 7 -18 -14 -48 -27 -39 -5 3 -9 2 -8 -3 3 -18 -1 -36 -8 -30 -3 4 -12
-2 -20 -13 -8 -11 -24 -25 -36 -31 -21 -11 -21 -11 2 15 20 21 22 26 8 26 -9
0 -17 5 -17 10 0 6 7 10 16 10 8 0 13 4 10 9 -3 5 1 25 9 44 8 19 11 38 7 43
-4 5 1 2 11 -5 15 -12 17 -12 12 1 -4 9 1 18 9 21 9 4 16 14 16 24 0 16 2 15
21 -3 15 -15 18 -28 14 -47z m-174 -164 c-12 -20 -14 -14 -5 12 4 9 9 14 11
11 3 -2 0 -13 -6 -23z m-13 -38 c-3 -3 -9 2 -12 12 -6 14 -5 15 5 6 7 -7 10
-15 7 -18z m-1531 -27 c-3 -7 -5 -2 -5 12 0 14 2 19 5 13 2 -7 2 -19 0 -25z
m1510 -10 c-3 -7 -5 -2 -5 12 0 14 2 19 5 13 2 -7 2 -19 0 -25z m-1589 -146
c2 -66 0 -82 -12 -82 -20 0 -26 22 -26 102 0 61 2 69 18 66 14 -3 17 -16 20
-86z m1535 21 c-3 -7 -6 -13 -8 -13 -2 0 -5 6 -8 13 -3 8 1 14 8 14 7 0 11 -6
8 -14z m-1619 -10 c9 -33 3 -162 -8 -166 -17 -7 -84 22 -90 38 -7 18 64 145
80 145 7 0 15 -8 18 -17z m1593 -34 c-15 -24 -20 -18 -11 16 4 18 9 23 14 14
5 -7 3 -20 -3 -30z m2121 14 c71 -6 72 -6 72 -35 0 -22 -7 -31 -27 -40 -37
-15 -142 -19 -165 -7 -37 20 -7 109 31 94 9 -4 49 -9 89 -12z m-180 -30 c-3
-38 -20 -51 -46 -35 -19 13 5 72 30 72 16 0 19 -6 16 -37z m-1981 -59 c-11
-22 -15 -24 -20 -10 -4 9 -2 16 3 16 5 0 12 10 16 23 4 12 9 17 11 10 2 -6 -2
-24 -10 -39z m1896 -36 c64 -3 81 -7 93 -22 26 -37 14 -135 -20 -158 -17 -12
-98 2 -132 23 -49 29 -186 52 -279 46 -95 -7 -115 3 -115 56 0 63 19 69 210
62 91 -3 200 -6 243 -7z m-537 -14 c23 -6 44 -42 44 -74 0 -55 -93 -82 -124
-38 -24 33 -20 84 6 102 24 17 40 19 74 10z m739 -18 c11 -7 40 -17 65 -21 25
-4 57 -14 71 -23 25 -14 27 -22 34 -105 6 -80 5 -93 -13 -116 -17 -24 -26 -26
-102 -29 -46 -2 -95 1 -110 7 -24 8 -29 6 -39 -15 -12 -28 -23 -30 -41 -9 -16
20 -138 20 -206 1 -71 -21 -280 -31 -299 -16 -19 16 -19 54 0 70 10 8 71 16
168 22 84 4 199 12 257 17 62 5 110 5 116 0 17 -14 25 40 17 126 -6 81 3 105
41 105 12 0 30 -6 41 -14z m-1597 -32 c45 -32 16 -104 -43 -104 -42 0 -69 34
-59 74 11 45 60 60 102 30z"/>
<path d="M2225 3510 c3 -5 8 -10 11 -10 2 0 4 5 4 10 0 6 -5 10 -11 10 -5 0
-7 -4 -4 -10z"/>
<path d="M2962 2826 c-34 -19 -35 -23 -14 -35 16 -8 24 -5 47 19 25 26 26 30
9 29 -10 -1 -29 -7 -42 -13z"/>
<path d="M476 3903 c-7 -23 -35 -233 -46 -348 -10 -100 -28 -209 -60 -359 -11
-55 -18 -101 -15 -104 7 -8 298 -9 400 -2 89 6 89 6 40 14 -27 5 -53 10 -58
13 -10 6 5 31 43 73 17 19 34 47 37 62 7 38 28 52 76 52 l41 1 27 130 c15 72
34 164 43 205 9 42 15 98 13 125 l-3 50 -49 0 c-30 0 -50 5 -52 13 -3 6 -11
12 -19 12 -8 0 -22 9 -31 20 -13 15 -30 20 -70 20 -29 0 -99 9 -155 20 -128
25 -155 25 -162 3z"/>
<path d="M4410 3900 c-7 -14 -7 -196 0 -612 5 -326 10 -615 10 -641 0 -30 4
-46 10 -42 6 4 10 156 10 423 1 229 5 513 10 631 6 150 5 220 -2 237 -14 29
-24 30 -38 4z"/>
<path d="M3 3765 c0 -38 2 -53 4 -32 2 20 2 52 0 70 -2 17 -4 1 -4 -38z"/>
<path d="M1133 3743 c-35 -3 -43 -8 -43 -24 0 -10 5 -19 10 -19 6 0 9 -3 9 -7
-4 -22 3 -33 19 -33 10 0 26 -9 35 -21 11 -12 25 -18 34 -15 8 4 21 2 28 -4
17 -14 24 9 21 75 -1 50 -2 50 -36 51 -19 1 -54 -1 -77 -3z"/>
<path d="M3 3595 c0 -27 2 -38 4 -22 2 15 2 37 0 50 -2 12 -4 0 -4 -28z"/>
<path d="M1652 3280 c-47 -26 -48 -28 -4 -26 30 0 38 4 34 15 -3 9 -1 12 6 7
8 -5 10 -2 6 8 -3 9 -7 15 -8 15 0 -1 -16 -10 -34 -19z"/>
<path d="M873 3125 c-14 -16 -18 -27 -11 -31 12 -8 38 22 38 43 0 17 -1 17
-27 -12z"/>
<path d="M4422 2215 l2 -300 6 290 c4 160 3 294 -1 300 -5 5 -8 -125 -7 -290z"/>
<path d="M830 2188 c1 -333 1 -348 -15 -361 -5 -5 1 -5 14 -2 17 5 22 4 16 -5
-5 -9 -4 -11 4 -6 6 4 9 12 6 17 -4 5 -3 9 2 9 9 0 7 600 -2 638 -3 12 -10 22
-16 22 -7 0 -10 -100 -9 -312z"/>
<path d="M2695 2443 c11 -3 35 -16 55 -29 35 -24 74 -30 98 -15 10 6 4 14 -23
30 -26 15 -51 21 -93 20 -31 -1 -48 -4 -37 -6z"/>
<path d="M1969 1933 c5 -10 19 -44 31 -75 26 -67 50 -94 50 -57 0 13 5 31 10
39 7 11 -2 27 -37 63 -48 48 -70 61 -54 30z"/>
<path d="M915 1821 c-73 -18 -106 -54 -136 -150 -14 -46 -19 -89 -18 -142 1
-42 -1 -82 -6 -88 -4 -7 0 -18 8 -24 8 -7 34 -39 58 -72 24 -33 46 -62 49 -65
3 -3 21 -30 40 -60 19 -30 39 -58 44 -61 5 -4 6 -14 3 -24 -4 -10 -3 -14 4
-10 6 4 8 -2 6 -17 -2 -12 -2 -17 0 -10 4 10 11 8 29 -9 27 -25 31 -49 9 -49
-8 0 -15 8 -15 17 0 15 -2 15 -17 -2 -19 -19 -24 -71 -10 -92 5 -7 4 -13 0
-13 -15 0 -37 44 -24 48 16 5 14 29 -4 36 -8 3 -21 3 -29 0 -9 -4 -20 7 -31
30 -9 19 -23 40 -31 47 -8 6 -14 17 -14 25 0 7 -4 16 -10 19 -16 10 1 -26 40
-85 83 -124 110 -161 110 -151 0 6 5 11 10 11 6 0 8 -10 5 -22 -4 -16 3 -33
19 -53 18 -21 25 -25 26 -14 0 9 -7 22 -15 29 -16 14 -20 30 -7 30 14 0 33
-51 27 -70 -3 -10 0 -24 7 -31 8 -8 29 -39 48 -69 19 -30 38 -56 42 -58 5 -2
8 -8 8 -14 0 -5 24 -44 53 -86 53 -75 110 -158 217 -315 30 -43 58 -81 63 -84
9 -5 6 71 -5 117 -2 11 5 15 23 13 23 -1 26 2 22 20 -4 22 -4 22 11 3 9 -11
16 -25 16 -30 1 -19 69 94 124 204 64 126 99 227 101 295 2 35 6 49 15 47 38
-9 39 67 2 122 -230 336 -366 528 -398 560 -6 6 -13 17 -15 25 -3 8 -9 3 -17
-14 -7 -14 -8 -23 -2 -20 6 4 10 -5 10 -20 0 -25 -3 -23 -42 26 -57 72 -148
206 -148 218 0 21 -69 61 -130 75 -71 17 -80 18 -125 7z m239 -417 c3 -8 2
-12 -4 -9 -6 3 -10 10 -10 16 0 14 7 11 14 -7z m54 -19 c-3 -3 -9 2 -12 12 -6
14 -5 15 5 6 7 -7 10 -15 7 -18z m-38 -77 c1 -21 -19 -3 -39 35 l-24 42 31
-35 c17 -19 31 -38 32 -42z m21 40 c8 -15 8 -18 0 -14 -6 4 -16 16 -22 28 -8
15 -8 18 0 14 6 -4 16 -16 22 -28z m0 -75 c13 -16 12 -17 -3 -4 -17 13 -22 21
-14 21 2 0 10 -8 17 -17z m149 -215 c0 -18 -18 -6 -31 20 -22 45 -21 48 5 17
14 -16 26 -33 26 -37z m-256 19 c-3 -9 -10 -17 -15 -17 -11 0 -12 34 -2 44 11
11 24 -9 17 -27z m44 -54 c-4 -22 -22 -20 -26 1 -2 10 3 16 13 16 10 0 15 -7
13 -17z m-198 -9 c0 -8 -4 -12 -10 -9 -5 3 -10 10 -10 16 0 5 5 9 10 9 6 0 10
-7 10 -16z m240 -54 c0 -19 -11 -26 -23 -14 -8 8 3 34 14 34 5 0 9 -9 9 -20z
m-140 -30 c0 -5 -4 -10 -10 -10 -5 0 -10 5 -10 10 0 6 5 10 10 10 6 0 10 -4
10 -10z m184 -35 c-4 -8 -11 -15 -16 -15 -6 0 -5 6 2 15 7 8 14 15 16 15 2 0
1 -7 -2 -15z m356 -313 c0 -15 -2 -15 -10 -2 -13 20 -13 33 0 25 6 -3 10 -14
10 -23z m25 -22 c3 -5 1 -10 -4 -10 -6 0 -11 5 -11 10 0 6 2 10 4 10 3 0 8 -4
11 -10z m-95 -200 c0 -5 -2 -10 -4 -10 -3 0 -8 5 -11 10 -3 6 -1 10 4 10 6 0
11 -4 11 -10z m-33 -152 c-3 -8 -6 -5 -6 6 -1 11 2 17 5 13 3 -3 4 -12 1 -19z"/>
<path d="M2080 1731 c0 -5 7 -11 15 -15 8 -3 15 -1 15 3 0 5 -7 11 -15 15 -8
3 -15 1 -15 -3z"/>
<path d="M4417 1225 c-5 -253 -10 -535 -12 -627 l-4 -168 24 0 25 0 -5 273
c-2 149 -5 396 -6 547 -2 481 -14 468 -22 -25z"/>
<path d="M2453 1572 c-6 -11 -43 -28 -86 -40 -42 -12 -78 -26 -81 -30 -2 -4
30 -7 72 -7 58 0 77 4 80 15 3 8 12 20 21 27 9 6 13 15 9 19 -4 4 -3 13 3 21
6 7 7 13 3 13 -5 0 -14 -8 -21 -18z"/>
<path d="M0 1415 c0 -58 4 -105 9 -105 10 0 22 158 14 189 -13 50 -23 14 -23
-84z"/>
<path d="M761 1374 c0 -11 3 -14 6 -6 3 7 2 16 -1 19 -3 4 -6 -2 -5 -13z"/>
<path d="M883 1211 c0 -11 5 -18 9 -15 4 3 5 11 1 19 -7 21 -12 19 -10 -4z"/>
<path d="M865 1174 c7 -15 11 -34 7 -43 -5 -13 -7 -13 -10 4 -5 28 -22 44 -22
21 0 -10 10 -30 22 -44 11 -15 19 -20 15 -11 -3 9 -2 22 3 29 9 14 -7 70 -20
70 -5 0 -3 -12 5 -26z"/>
<path d="M0 436 l0 -436 340 0 c187 0 340 4 340 8 0 13 -56 95 -89 131 -18 18
-86 113 -151 210 -66 97 -124 181 -130 188 -5 7 -10 16 -11 20 0 4 -37 62 -82
128 -82 120 -132 167 -189 181 l-28 6 0 -436z"/>
<path d="M395 799 c-11 -17 1 -21 15 -4 8 9 8 15 2 15 -6 0 -14 -5 -17 -11z"/>
<path d="M3513 785 c-3 -9 -3 -18 -1 -21 3 -3 8 4 11 16 6 23 -1 27 -10 5z"/>
<path d="M1836 757 c3 -10 9 -15 12 -12 3 3 0 11 -7 18 -10 9 -11 8 -5 -6z"/>
<path d="M2960 700 c-14 -4 -18 -9 -10 -9 12 -1 11 -5 -4 -16 -20 -15 -20 -15
1 -15 18 0 53 28 53 43 0 8 -7 8 -40 -3z"/>
<path d="M1880 692 c0 -5 7 -15 15 -22 8 -7 15 -8 15 -2 0 5 -7 15 -15 22 -8
7 -15 8 -15 2z"/>
<path d="M620 585 c0 -17 2 -18 24 -9 18 7 12 24 -10 24 -8 0 -14 -7 -14 -15z"/>
<path d="M1982 562 c-51 -51 -36 -161 39 -285 27 -45 54 -99 60 -119 5 -21 15
-38 20 -38 7 0 8 8 4 17 -12 33 -10 38 23 41 27 3 32 0 32 -18 0 -20 25 -38
37 -26 4 3 -1 22 -10 41 -25 53 -22 65 16 66 29 0 30 1 10 9 -28 11 -30 30 -4
30 14 0 21 10 25 35 8 39 17 43 45 18 23 -21 31 -27 95 -72 39 -27 50 -31 57
-20 15 24 10 38 -18 53 -16 8 -59 46 -97 85 -38 39 -73 71 -77 71 -5 0 -24 25
-44 55 -19 30 -40 56 -47 57 -7 0 -24 3 -38 5 -106 15 -108 15 -128 -5z"/>
<path d="M925 531 c5 -16 4 -21 -4 -17 -6 4 -11 3 -11 -3 0 -5 -20 -30 -44
-56 -37 -40 -44 -56 -50 -101 -3 -30 -3 -79 0 -110 6 -50 9 -55 28 -50 12 3
25 6 30 6 5 0 6 13 3 29 -5 25 -2 31 21 40 15 5 44 13 64 17 49 8 63 27 61 81
-2 46 -48 136 -87 171 -18 16 -18 16 -11 -7z"/>
<path d="M2839 294 c-12 -15 -11 -16 11 -9 46 14 58 24 29 25 -15 0 -33 -7
-40 -16z"/>
<path d="M1504 278 c-4 -6 1 -17 11 -24 16 -12 17 -18 6 -53 -6 -22 -16 -43
-22 -47 -7 -4 -7 2 1 17 11 23 11 23 -5 4 -15 -19 -14 -21 6 -37 12 -10 17
-18 13 -18 -5 0 -4 -4 2 -8 6 -4 26 -31 44 -60 l32 -52 74 0 74 0 -71 106
c-67 99 -137 184 -151 184 -4 0 -10 -5 -14 -12z"/>
<path d="M2785 260 c3 -5 8 -10 11 -10 2 0 4 5 4 10 0 6 -5 10 -11 10 -5 0 -7
-4 -4 -10z"/>
<path d="M708 245 c-3 -6 -9 -27 -13 -48 -4 -20 -11 -37 -16 -37 -5 0 -9 -14
-9 -30 0 -30 0 -30 29 -16 31 17 44 39 31 52 -5 5 -10 27 -12 49 -2 22 -6 35
-10 30z"/>
<path d="M2682 184 c-12 -8 -22 -23 -22 -32 0 -10 3 -13 8 -7 4 6 16 15 26 21
21 11 33 34 19 34 -5 0 -19 -7 -31 -16z"/>
<path d="M2610 95 c0 -8 2 -15 4 -15 2 0 6 7 10 15 3 8 1 15 -4 15 -6 0 -10
-7 -10 -15z"/>
<path d="M2473 55 c0 -22 2 -30 4 -17 2 12 2 30 0 40 -3 9 -5 -1 -4 -23z"/>
<path d="M2441 63 c0 -12 -5 -25 -11 -28 -5 -3 -10 -11 -10 -16 0 -6 4 -8 9
-5 5 4 11 0 14 -6 9 -25 13 -2 6 37 -3 22 -7 30 -8 18z"/>
<path d="M2500 61 c-12 -24 -13 -31 -1 -31 5 0 11 11 13 25 6 30 2 32 -12 6z"/>
<path d="M2563 65 c-17 -19 -16 -35 2 -35 9 0 15 9 15 23 0 17 2 19 10 7 5 -8
12 -11 17 -7 4 5 1 12 -7 17 -19 12 -23 12 -37 -5z"/>
<path d="M2287 63 c-4 -3 -7 -11 -7 -17 0 -6 5 -5 12 2 6 6 9 14 7 17 -3 3 -9
2 -12 -2z"/>
<path d="M2118 43 c-15 -4 -33 -31 -25 -39 5 -6 77 30 77 38 0 8 -23 9 -52 1z"/>
<path d="M2320 15 c-10 -12 -10 -15 4 -15 9 0 16 7 16 15 0 8 -2 15 -4 15 -2
0 -9 -7 -16 -15z"/>
</g>
</svg>
