<?xml version="1.0" standalone="no"?>
<!DOCTYPE svg PUBLIC "-//W3C//DTD SVG 20010904//EN"
 "http://www.w3.org/TR/2001/REC-SVG-20010904/DTD/svg10.dtd">
<svg version="1.0" xmlns="http://www.w3.org/2000/svg"
 width="509.000000pt" height="339.000000pt" viewBox="0 0 509.000000 339.000000"
 preserveAspectRatio="xMidYMid meet">

<g transform="translate(0.000000,339.000000) scale(0.100000,-0.100000)"
fill="#000000" stroke="none">
<path d="M0 1695 l0 -1695 2545 0 2545 0 0 1695 0 1695 -1575 0 c-1414 0
-1575 -2 -1575 -15 0 -9 11 -98 25 -198 13 -100 29 -218 35 -262 10 -70 20
-139 36 -252 4 -26 10 -33 26 -33 33 0 170 -41 193 -57 19 -13 18 -14 -10 -7
-16 4 -43 12 -60 19 -16 6 -63 20 -103 30 -42 10 -69 21 -62 25 8 5 4 9 -10
13 -15 4 -20 2 -17 -7 4 -9 -2 -12 -16 -11 -12 1 -29 3 -37 4 -13 1 -13 3 -1
10 8 5 20 7 28 4 17 -7 16 4 -2 130 -9 56 -15 113 -13 127 1 14 0 30 -4 35
-16 28 -18 72 -3 85 13 11 15 8 16 -16 0 -16 5 -38 10 -49 11 -24 9 -5 -22
248 l-22 177 -69 0 c-46 0 -70 -4 -72 -12 -2 -7 -16 -58 -32 -113 -20 -71 -29
-123 -29 -179 0 -43 -3 -68 -6 -55 -7 23 -7 23 -8 -4 -1 -15 5 -30 13 -33 15
-6 30 -53 46 -149 6 -33 17 -84 25 -114 15 -59 13 -71 -14 -71 -14 0 -21 13
-30 63 -7 34 -24 99 -38 144 -14 46 -23 90 -19 98 3 9 1 38 -5 66 -8 37 -8 54
0 62 8 8 6 16 -6 29 -16 18 -16 18 2 12 15 -6 17 -4 11 11 -4 11 -9 40 -11 65
l-5 45 14 -53 c7 -29 15 -55 18 -57 3 -3 10 36 17 87 7 51 14 107 17 125 l5
32 -876 1 -875 0 0 -1695z m1677 1583 c-3 -7 -5 -2 -5 12 0 14 2 19 5 13 2 -7
2 -19 0 -25z m-84 -141 c-9 -32 -18 -56 -20 -53 -4 3 5 43 23 105 3 8 7 12 9
9 3 -2 -3 -30 -12 -61z m339 11 c3 -7 4 -23 3 -35 -1 -13 1 -23 5 -23 4 0 5
-12 2 -26 -6 -35 -17 -14 -25 49 -6 43 4 65 15 35z m-401 -208 c-21 -69 -60
-190 -86 -269 -33 -98 -45 -146 -37 -149 15 -5 15 -42 2 -77 -9 -24 -8 -25 10
-15 17 9 20 8 20 -13 0 -16 9 -28 26 -35 20 -10 24 -17 18 -35 -9 -29 -16 -35
-21 -19 -3 6 -9 10 -14 7 -5 -4 -6 1 -3 10 4 10 13 14 23 11 9 -4 6 2 -8 14
-22 19 -24 19 -53 2 -25 -14 -48 -47 -48 -69 0 -3 11 2 25 11 35 23 45 20 45
-12 0 -17 10 -38 24 -51 24 -22 24 -25 21 -178 -3 -123 -7 -160 -21 -180 -12
-19 -13 -27 -4 -33 13 -8 -155 -180 -177 -180 -13 0 -63 -57 -63 -72 0 -5 -13
-22 -29 -37 -17 -16 -33 -41 -37 -57 -12 -53 -48 -124 -56 -111 -5 7 -8 3 -8
-11 0 -15 -22 -47 -59 -85 -36 -38 -61 -75 -66 -95 -8 -37 -10 -37 -58 -17
-49 20 -86 67 -84 107 2 29 5 33 30 33 16 1 31 5 35 10 4 6 25 12 47 13 22 2
41 8 43 13 2 5 8 9 13 9 6 0 7 -5 3 -12 -5 -8 0 -9 17 -5 13 4 34 7 47 7 15 0
22 6 22 19 0 20 -16 25 -162 52 -43 8 -68 17 -68 26 0 7 4 13 9 13 4 0 21 12
37 27 21 20 29 36 30 66 1 21 7 42 13 46 6 4 9 15 6 23 -3 8 0 22 7 30 20 22
38 56 38 74 0 8 6 22 14 30 13 12 15 12 18 -3 2 -14 7 -12 21 10 10 15 14 27
10 26 -18 -3 -33 2 -33 10 0 5 9 7 20 4 19 -5 20 -3 9 20 -6 14 -16 25 -22 24
-6 -1 -12 11 -13 28 -2 20 0 25 5 16 5 -8 7 -20 4 -27 -4 -12 20 -14 32 -2 7
7 17 66 16 97 -1 15 4 21 12 18 16 -6 52 19 38 27 -10 7 4 62 20 81 5 5 9 20
9 33 0 20 -3 22 -14 12 -8 -6 -13 -17 -10 -24 3 -8 -1 -20 -8 -27 -7 -8 -13
-21 -13 -29 1 -8 -3 -23 -7 -32 -6 -12 -5 -18 3 -18 7 0 10 -3 7 -6 -15 -15
-22 0 -22 51 -1 30 4 57 9 59 6 2 0 3 -13 3 -26 -1 -33 -19 -28 -64 3 -18 0
-33 -5 -33 -6 0 -5 -9 2 -21 8 -15 8 -19 0 -15 -7 5 -12 -3 -12 -21 -2 -23 -2
-24 -6 -5 -2 12 -11 22 -18 22 -9 0 -17 15 -20 38 -3 20 -18 64 -33 96 -19 41
-23 60 -15 63 7 2 10 10 7 18 -3 7 -1 16 5 20 6 3 11 15 11 26 0 10 4 27 9 37
20 39 41 93 41 105 0 7 9 18 20 25 11 7 20 18 20 25 0 7 8 20 18 29 39 38 54
58 73 92 20 38 10 49 -20 22 -9 -8 -33 -19 -54 -24 -35 -10 -38 -9 -32 6 4 9
9 24 12 34 4 14 18 15 106 11 69 -4 117 -12 149 -25 65 -28 71 -37 53 -82 -8
-20 -11 -36 -6 -36 5 0 21 33 35 73 32 91 176 520 176 526 0 2 2 2 4 0 3 -3
-12 -61 -33 -129z m140 -39 c-5 -9 -12 -38 -15 -66 -4 -27 -21 -103 -38 -168
-28 -109 -29 -119 -13 -131 21 -15 36 -144 15 -131 -7 4 -27 10 -44 12 -46 5
-67 13 -61 24 4 5 1 9 -4 9 -16 0 -14 56 2 72 7 7 26 63 41 123 16 61 40 135
54 165 14 30 26 60 28 65 1 6 7 23 14 40 8 22 13 26 20 15 5 -8 5 -21 1 -29z
m409 -316 c36 -9 85 -20 110 -25 72 -16 75 -18 107 -63 53 -74 66 -137 89
-437 3 -36 7 -73 9 -83 2 -12 -10 -6 -39 21 -24 22 -65 49 -91 61 -51 22 -80
28 -55 10 11 -8 0 -9 -40 -5 -57 6 -54 2 23 -28 41 -17 47 -30 17 -46 -24 -13
-28 -65 -6 -73 9 -4 12 -14 9 -27 -4 -16 -8 -18 -14 -8 -7 10 -9 9 -9 -4 0 -9
6 -19 13 -21 6 -3 -1 -6 -18 -7 -16 -1 -23 -4 -13 -7 26 -7 30 -34 9 -57 -18
-19 -19 -26 -9 -58 19 -64 -23 -124 -64 -90 -9 8 -41 16 -70 17 -29 2 -73 9
-98 15 -85 21 -99 22 -144 7 -42 -15 -47 -14 -70 4 -23 18 -28 40 -13 55 3 4
21 -8 39 -27 l33 -34 5 40 c3 25 10 40 19 40 24 0 37 31 21 50 -7 9 -15 29
-17 45 -4 39 17 34 67 -15 44 -43 50 -41 20 7 -11 18 -20 41 -20 51 0 9 -7 17
-15 17 -26 0 -16 19 13 26 15 3 37 11 50 17 18 8 33 7 65 -4 57 -21 71 -16 53
20 -8 15 -22 33 -30 40 -9 8 -16 22 -16 33 0 12 -4 16 -11 12 -7 -4 -10 -1 -7
7 7 20 63 29 143 24 59 -4 65 -3 40 6 -34 13 -395 18 -435 7 l-25 -7 0 217 c0
119 -3 236 -6 260 l-6 42 39 0 c21 0 38 -4 38 -10 0 -5 5 -10 10 -10 6 0 9 5
8 11 -2 7 16 13 42 16 25 2 46 6 48 7 3 4 107 -16 202 -39z m-404 13 c5 -7 3
-8 -7 -3 -11 7 -12 6 -2 -6 7 -8 12 -68 15 -155 3 -128 1 -140 -14 -136 -24 6
-31 33 -12 47 12 8 15 18 9 31 -4 10 -7 39 -6 64 1 25 -3 70 -8 100 -5 30 -7
58 -4 63 6 11 21 9 29 -5z m-646 -74 c0 -13 -21 -44 -30 -44 -11 0 -14 33 -3
43 8 8 33 9 33 1z m451 -65 c-5 -13 -10 -19 -10 -12 -1 15 10 45 15 40 3 -2 0
-15 -5 -28z m207 -281 c-1 -57 -3 -86 -5 -65 -2 20 -9 37 -15 37 -10 0 -4 102
8 121 12 20 14 5 12 -93z m849 -29 c1 -15 0 -17 -3 -6 -3 9 -9 15 -13 13 -4
-3 -8 2 -8 10 0 24 22 9 24 -17z m-1641 -44 c17 -13 17 -14 2 -15 -9 0 -20 5
-23 10 -4 6 -11 7 -17 4 -7 -4 -8 -2 -4 4 9 16 18 15 42 -3z m-36 -26 c0 -5
16 -26 34 -47 19 -20 45 -48 56 -62 l21 -25 -5 28 c-15 71 -15 79 1 36 12 -32
23 -45 33 -42 12 4 12 3 2 -5 -10 -7 -13 -28 -10 -74 2 -44 -1 -69 -9 -77 -7
-7 -13 -21 -13 -32 0 -15 -4 -19 -16 -15 -13 5 -15 2 -11 -14 3 -11 0 -18 -6
-17 -6 1 -20 -16 -33 -38 -12 -22 -27 -45 -33 -52 -6 -7 -11 -14 -11 -17 0 -3
-4 -15 -9 -28 -5 -13 -8 -25 -7 -28 2 -10 -29 -38 -36 -33 -5 2 -8 -3 -8 -12
0 -9 -4 -13 -10 -10 -5 3 -10 2 -10 -3 0 -5 -12 -21 -26 -36 -15 -14 -24 -26
-20 -26 4 0 -6 -11 -21 -24 l-28 -25 -21 22 c-12 12 -31 48 -44 80 -19 48 -22
70 -17 127 3 39 15 86 26 109 12 22 18 47 15 56 -5 13 -2 15 20 9 24 -6 27 -4
25 17 -4 43 1 59 17 59 10 0 14 6 11 14 -8 21 36 106 77 149 20 21 36 42 36
47 0 5 7 7 15 4 8 -4 15 -10 15 -15z m70 -9 c0 -5 -2 -10 -4 -10 -3 0 -8 5
-11 10 -3 6 -1 10 4 10 6 0 11 -4 11 -10z m741 -33 c-8 -8 -11 -7 -11 4 0 9 3
19 7 23 4 4 9 2 11 -4 3 -7 -1 -17 -7 -23z m769 19 c0 -3 -4 -8 -10 -11 -5 -3
-10 -1 -10 4 0 6 5 11 10 11 6 0 10 -2 10 -4z m-400 -107 c0 -6 -4 -7 -10 -4
-5 3 -10 11 -10 16 0 6 5 7 10 4 6 -3 10 -11 10 -16z m400 -9 c0 -5 -4 -10
-10 -10 -5 0 -10 5 -10 10 0 6 5 10 10 10 6 0 10 -4 10 -10z m34 -98 c3 -5 -1
-9 -9 -9 -8 0 -12 4 -9 9 3 4 7 8 9 8 2 0 6 -4 9 -8z m-44 -102 c0 -5 -2 -10
-4 -10 -3 0 -8 5 -11 10 -3 6 -1 10 4 10 6 0 11 -4 11 -10z m48 -97 c-14 -17
-25 -16 -32 2 -4 11 1 14 19 13 18 -2 21 -5 13 -15z m-1898 -23 c0 -11 -4 -20
-9 -20 -5 0 -7 9 -4 20 3 11 7 20 9 20 2 0 4 -9 4 -20z m-3 -62 c-3 -8 -6 -5
-6 6 -1 11 2 17 5 13 3 -3 4 -12 1 -19z m1463 -93 c-7 -8 -19 -15 -27 -15 -13
0 -13 3 -3 15 7 8 19 15 27 15 13 0 13 -3 3 -15z m-10 -45 c0 -5 -4 -10 -10
-10 -5 0 -10 5 -10 10 0 6 5 10 10 10 6 0 10 -4 10 -10z m466 -266 l-15 -29
-1 28 c0 15 5 27 11 27 5 0 7 6 3 13 -5 9 -4 9 5 1 10 -9 10 -18 -3 -40z"/>
<path d="M1320 2358 c-14 -11 -20 -17 -13 -14 6 3 13 0 15 -6 3 -8 9 -4 17 10
17 32 11 35 -19 10z"/>
<path d="M1156 2271 c-8 -12 18 -21 33 -11 10 5 8 9 -4 14 -21 8 -23 8 -29 -3z"/>
<path d="M1316 2255 c-3 -8 -1 -15 4 -15 6 0 10 7 10 15 0 8 -2 15 -4 15 -2 0
-6 -7 -10 -15z"/>
<path d="M1361 2228 c-30 -18 -50 -33 -44 -35 6 -2 9 -13 6 -23 -6 -23 3 -25
37 -5 37 21 42 19 35 -19 -6 -29 -4 -35 14 -41 28 -9 37 -1 45 35 5 26 1 35
-26 59 -28 25 -30 31 -19 45 18 22 14 20 -48 -16z"/>
<path d="M1272 2210 c-16 -26 -15 -30 7 -30 15 0 19 5 16 21 -6 30 -9 31 -23
9z"/>
<path d="M1252 2095 c5 -5 -1 -15 -12 -22 -28 -19 -15 -36 21 -28 l30 7 -7
-43 c-8 -46 -8 -46 47 -8 31 22 40 16 33 -21 -5 -21 -1 -31 18 -44 26 -18 29
-14 42 47 4 16 13 27 24 27 9 1 -5 13 -33 27 -62 32 -63 32 -45 43 8 5 12 11
9 14 -6 6 -84 -16 -95 -27 -4 -4 -14 -7 -22 -7 -11 0 -12 3 -3 14 9 11 9 16
-1 22 -7 4 -10 4 -6 -1z"/>
<path d="M1305 1910 c-16 -11 -38 -19 -48 -16 -9 2 -15 0 -11 -5 3 -5 1 -9 -5
-9 -5 0 -11 7 -13 15 -2 10 -8 12 -17 6 -20 -13 -4 -31 29 -31 20 0 31 -6 35
-21 12 -35 45 -39 99 -11 l49 26 -42 14 c-34 11 -42 18 -38 33 6 24 -1 24 -38
-1z"/>
<path d="M1085 1840 c3 -5 8 -10 11 -10 2 0 4 5 4 10 0 6 -5 10 -11 10 -5 0
-7 -4 -4 -10z"/>
<path d="M1535 2450 c3 -5 11 -10 16 -10 6 0 7 5 4 10 -3 6 -11 10 -16 10 -6
0 -7 -4 -4 -10z"/>
<path d="M2025 1904 c30 -26 42 -29 64 -15 18 11 1 22 -52 32 l-39 7 27 -24z"/>
<path d="M2025 1810 c3 -5 8 -10 11 -10 2 0 4 5 4 10 0 6 -5 10 -11 10 -5 0
-7 -4 -4 -10z"/>
<path d="M796 2001 c5 -5 20 -12 34 -15 l25 -7 -25 15 c-28 17 -50 21 -34 7z"/>
<path d="M897 1949 c7 -7 15 -10 18 -7 3 3 -2 9 -12 12 -14 6 -15 5 -6 -5z"/>
<path d="M963 1915 c0 -14 3 -28 8 -31 5 -3 9 6 9 20 0 14 -4 27 -9 30 -5 3
-8 -6 -8 -19z"/>
<path d="M1982 2840 c0 -14 2 -19 5 -12 2 6 2 18 0 25 -3 6 -5 1 -5 -13z"/>
<path d="M1991 2784 c0 -11 3 -14 6 -6 3 7 2 16 -1 19 -3 4 -6 -2 -5 -13z"/>
</g>
</svg>
