<?xml version="1.0" standalone="no"?>
<!DOCTYPE svg PUBLIC "-//W3C//DTD SVG 20010904//EN"
 "http://www.w3.org/TR/2001/REC-SVG-20010904/DTD/svg10.dtd">
<svg version="1.0" xmlns="http://www.w3.org/2000/svg"
 width="1400.000000pt" height="1003.000000pt" viewBox="0 0 1400.000000 1003.000000"
 preserveAspectRatio="xMidYMid meet">

<g transform="translate(0.000000,1003.000000) scale(0.100000,-0.100000)"
fill="#000000" stroke="none">
<path d="M0 9102 l0 -928 84 4 c80 4 86 3 110 -21 21 -21 26 -36 26 -76 0 -56
-7 -51 104 -71 88 -15 136 -13 136 5 0 8 5 15 10 15 6 0 10 6 10 13 0 21 67
93 99 106 24 11 43 10 108 -5 43 -9 97 -25 121 -35 24 -11 53 -19 65 -19 12 0
39 -9 60 -20 20 -11 44 -20 54 -20 9 0 25 -7 35 -17 19 -17 18 -20 22 36 1 8
6 16 13 18 14 5 28 -89 16 -114 -5 -10 -10 -34 -12 -53 -1 -19 -7 -38 -14 -42
-7 -4 -9 -8 -5 -8 4 0 2 -15 -3 -32 -11 -38 -3 -68 17 -68 23 0 16 -17 -11
-24 -14 -4 -25 -13 -25 -20 0 -8 -4 -16 -8 -18 -13 -5 -24 -58 -12 -58 5 0 10
7 10 15 0 8 4 15 10 15 5 0 7 -13 4 -30 -5 -22 -3 -30 7 -30 12 0 12 -2 0 -9
-21 -13 10 -41 46 -41 27 -1 27 -1 9 -15 -20 -15 -20 -15 0 -16 10 -1 22 -1
27 0 4 0 7 -1 7 -4 0 -10 -115 -119 -122 -117 -5 1 -8 -5 -8 -13 0 -8 -9 -20
-20 -27 -11 -7 -20 -21 -20 -31 0 -10 -7 -20 -15 -23 -8 -4 -15 -13 -15 -20 0
-8 -8 -18 -17 -21 -38 -15 -113 -89 -113 -111 0 -13 2 -14 9 -3 7 10 13 11 30
2 12 -7 25 -10 29 -7 4 2 31 -2 60 -9 49 -13 57 -12 128 11 84 28 111 27 94
-5 -6 -12 -17 -18 -24 -15 -21 8 2 -67 26 -84 10 -7 18 -18 18 -24 0 -11 76
-88 87 -88 2 0 11 7 19 15 16 15 49 21 40 7 -8 -13 49 -87 71 -90 12 -2 25
-12 28 -23 4 -10 11 -19 16 -19 18 0 41 -30 35 -45 -6 -17 10 -30 19 -15 10
17 25 11 35 -12 5 -13 9 -17 9 -10 1 17 19 15 38 -4 13 -12 13 -20 4 -40 -18
-40 -14 -74 9 -74 10 0 24 -9 30 -19 13 -26 13 -34 -2 -25 -10 5 -10 4 -1 -6
7 -8 27 -15 45 -16 19 -2 45 -9 59 -16 32 -17 64 -48 50 -48 -6 0 -11 -4 -11
-10 0 -5 9 -10 19 -10 10 0 21 -6 24 -13 12 -31 87 -68 202 -97 66 -18 124
-35 130 -40 5 -4 26 -11 45 -15 19 -4 57 -18 84 -31 72 -35 88 -18 34 36 l-33
32 30 -6 c32 -6 57 7 68 37 4 11 17 17 36 17 23 0 29 -4 25 -15 -7 -18 7 -20
23 -4 14 14 73 -24 73 -47 0 -15 56 -54 77 -54 7 0 29 -11 49 -25 73 -50 114
-24 121 77 8 105 4 141 -16 161 -5 5 -7 15 -4 23 7 18 -16 84 -29 84 -6 0 -7
-15 -3 -40 4 -25 3 -40 -3 -40 -16 0 -20 26 -20 115 -1 127 20 246 50 286 66
87 98 187 75 237 -8 16 -8 25 0 30 6 4 13 17 17 30 11 35 33 26 39 -15 4 -21
9 -97 13 -169 l7 -131 34 -12 c46 -17 88 -60 103 -107 20 -61 25 -64 108 -64
70 0 266 -16 320 -26 12 -3 32 -16 44 -29 21 -25 58 -34 58 -15 0 6 7 10 16
10 17 0 44 -23 44 -38 0 -6 3 -12 8 -14 4 -1 15 -19 25 -39 14 -27 16 -42 9
-55 -5 -11 -7 -25 -5 -32 12 -33 -37 -112 -70 -112 -7 0 -39 -21 -72 -45 -33
-24 -65 -48 -71 -52 -26 -20 -52 -35 -84 -49 -19 -8 -54 -24 -78 -35 -24 -11
-48 -17 -54 -13 -23 14 5 -74 66 -211 35 -77 75 -167 89 -200 26 -59 26 -59
36 -32 6 16 11 34 11 40 0 16 54 171 78 227 11 25 35 66 54 92 18 26 49 70 68
97 19 28 36 48 38 46 5 -5 -47 -95 -72 -124 -12 -13 -15 -21 -8 -16 11 6 12 3
2 -14 -6 -12 -16 -18 -22 -15 -7 5 -9 2 -5 -9 3 -8 0 -18 -8 -20 -23 -9 -85
-190 -136 -397 -11 -45 -10 -189 1 -215 7 -16 9 -12 9 20 1 50 19 35 25 -21 5
-45 48 -213 59 -230 4 -7 37 -72 74 -145 65 -130 67 -136 75 -237 4 -57 6
-117 4 -134 -3 -33 5 -47 63 -104 19 -19 31 -34 27 -34 -8 0 -68 41 -76 52 -8
10 -62 29 -67 24 -3 -3 11 -15 31 -28 20 -13 36 -26 36 -31 0 -4 -17 4 -37 18
-57 38 -64 40 -76 19 -6 -10 -31 -39 -56 -64 l-45 -45 -8 65 c-9 80 -17 114
-25 106 -3 -3 -12 2 -19 12 -12 16 -13 15 -14 -6 l0 -23 -22 21 c-12 11 -27
20 -34 20 -7 0 -19 10 -26 23 -35 61 -54 87 -66 87 -7 0 -18 12 -25 27 -15 34
-56 72 -78 73 -21 0 -55 -39 -62 -70 -8 -39 -31 -92 -51 -122 -10 -15 -15 -31
-12 -36 3 -5 -1 -18 -9 -28 -8 -10 -15 -32 -15 -48 0 -17 -9 -37 -22 -48 -13
-11 -23 -25 -23 -32 -1 -21 -60 -95 -80 -99 -18 -4 -18 -5 5 -13 18 -7 -3 -10
-80 -14 -84 -5 -107 -3 -116 9 -7 8 -16 11 -24 6 -10 -6 -12 -4 -7 7 4 11 -1
15 -19 15 -13 0 -39 12 -58 27 -19 14 -39 26 -44 26 -6 0 -12 6 -14 12 -3 7
-13 13 -24 14 -59 3 -64 5 -64 23 0 14 -5 18 -19 14 -12 -3 -25 5 -39 21 -11
14 -28 26 -39 26 -25 0 -103 77 -103 102 0 10 -11 22 -24 28 -13 5 -28 15 -33
22 -4 7 -21 22 -38 32 -16 11 -34 26 -40 35 -9 17 -10 23 -13 81 -2 42 -13 32
-38 -34 -18 -49 -18 -49 -29 -23 l-11 27 -13 -33 c-11 -29 -13 -30 -20 -12 -7
16 -11 9 -20 -33 -6 -29 -11 -61 -11 -70 -1 -16 -2 -16 -14 1 -7 9 -16 17 -19
17 -14 0 -38 -119 -38 -183 0 -67 3 -77 77 -226 87 -177 158 -382 179 -516 42
-276 44 -546 5 -735 -38 -186 -41 -209 -25 -246 8 -19 16 -34 18 -34 21 0 136
56 162 78 18 17 47 38 64 48 17 10 31 22 31 26 0 4 5 8 10 8 6 0 23 8 38 19
15 10 62 41 104 70 77 51 77 51 89 28 7 -12 32 -41 55 -65 24 -23 44 -44 44
-46 0 -3 30 -35 68 -73 100 -103 114 -121 165 -216 7 -12 24 -40 39 -62 20
-30 28 -55 30 -100 3 -57 2 -60 -20 -59 -12 0 -21 -4 -19 -10 2 -6 -9 -16 -25
-23 -20 -9 -28 -19 -28 -37 0 -18 -6 -26 -21 -28 -22 -3 -32 -16 -43 -51 -5
-14 -10 -16 -25 -8 -14 8 -22 7 -32 -5 -11 -14 -13 -14 -21 0 -5 9 -14 16 -20
16 -6 0 -17 8 -24 18 -13 16 -13 16 -14 -1 0 -16 -7 -18 -42 -17 -69 4 -88 1
-88 -14 0 -23 -27 -69 -32 -54 -4 11 -9 10 -31 -1 -24 -13 -28 -12 -45 9 -21
26 -42 20 -42 -11 0 -10 -7 -19 -15 -19 -8 0 -15 -7 -15 -15 0 -9 -6 -12 -15
-9 -8 4 -15 15 -15 25 0 10 -5 19 -10 19 -16 0 -24 -31 -10 -40 9 -5 9 -9 1
-14 -17 -11 -71 32 -72 57 -1 12 -1 25 0 30 0 4 -6 7 -14 7 -8 0 -15 5 -15 11
0 8 -4 8 -14 -1 -8 -6 -13 -17 -11 -23 3 -7 0 -19 -5 -27 -9 -13 -12 -13 -21
3 -5 9 -22 17 -36 17 -20 0 -24 -4 -20 -20 5 -20 -13 -31 -58 -35 -27 -3 -22
-43 9 -70 24 -21 24 -21 5 -45 -10 -14 -19 -36 -19 -50 l-1 -25 -12 23 c-8 18
-8 28 1 43 7 10 12 23 12 29 0 14 -27 13 -32 -2 -3 -8 -11 -7 -28 5 -34 24
-37 22 -32 -20 l5 -38 -23 20 -23 20 7 -28 c5 -23 3 -27 -15 -27 -17 0 -20 4
-16 21 14 53 -18 104 -48 79 -10 -8 -19 -8 -35 2 -17 11 -22 11 -30 -1 -7 -12
-12 -11 -29 10 -12 14 -18 32 -15 43 4 12 2 16 -6 11 -6 -4 -18 1 -25 11 -13
17 -14 17 -15 2 0 -9 6 -18 13 -21 6 -2 9 -8 5 -12 -4 -4 -14 -5 -23 -2 -11 5
-15 22 -15 74 0 73 -3 96 -14 128 -15 40 -23 49 -53 57 -21 5 -35 18 -43 38
-7 16 -18 30 -25 30 -11 0 -24 25 -29 55 -1 6 -9 9 -18 7 -18 -3 -35 49 -23
69 4 6 7 28 7 50 0 21 3 41 9 44 5 4 9 15 9 26 0 10 5 19 10 19 6 0 10 6 10
14 0 7 9 20 20 27 26 18 16 57 -16 65 -27 7 -31 19 -9 28 8 3 15 12 15 20 0
35 -95 51 -103 19 -4 -17 -5 -17 -6 0 0 10 -8 26 -17 35 -15 15 -15 17 5 30
11 8 21 18 21 22 0 12 -101 60 -112 54 -5 -3 -6 5 -3 19 5 17 2 26 -10 31 -24
9 -36 -2 -33 -32 2 -20 -2 -27 -22 -32 l-25 -7 25 -4 c19 -3 26 -12 30 -34 4
-21 11 -31 28 -33 17 -3 23 -12 28 -43 4 -21 11 -39 17 -39 6 0 0 -12 -14 -26
-16 -18 -20 -28 -11 -31 17 -6 15 -60 -2 -66 -8 -3 -16 -16 -18 -29 -2 -16
-11 -24 -28 -26 -20 -2 -22 -1 -10 7 8 6 10 11 4 11 -6 0 -16 18 -23 40 -6 22
-16 40 -21 40 -4 0 -11 18 -15 40 -4 22 -12 40 -19 40 -7 0 -21 9 -31 20 -16
18 -16 20 -1 26 9 3 16 13 16 21 0 12 -3 13 -14 4 -10 -8 -16 -8 -25 2 -13 17
-5 27 23 28 21 0 21 0 0 9 -29 12 -32 18 -38 78 -5 56 -18 80 -59 112 -14 11
-39 44 -56 73 -16 29 -44 63 -60 75 -17 12 -31 29 -31 36 0 7 -7 19 -15 26
-11 9 -12 17 -4 31 7 14 6 19 -3 19 -14 1 -48 61 -48 86 0 8 -11 19 -25 24
-14 5 -25 17 -25 25 0 9 -13 30 -30 48 -16 18 -30 40 -30 49 0 9 -4 20 -10 23
-5 3 -10 17 -10 30 0 13 -4 27 -10 30 -14 9 -12 62 2 68 10 4 9 8 -2 17 -12 9
-11 10 7 5 18 -5 20 -2 16 14 -4 14 3 24 26 36 18 9 29 20 25 26 -6 10 21 6
81 -12 62 -18 299 -11 389 12 26 6 50 9 53 5 3 -3 12 2 19 12 13 16 13 16 14
0 0 -12 8 -18 21 -18 15 0 19 4 15 16 -4 9 1 28 10 42 13 19 13 24 3 20 -11
-4 -14 5 -14 38 0 24 4 44 9 44 12 0 -1 154 -14 158 -6 2 -10 8 -10 14 0 6
-15 29 -32 51 -32 40 -45 97 -23 97 6 0 2 7 -7 14 -10 7 -18 22 -18 32 0 11
-9 38 -21 59 -11 22 -22 54 -24 70 -11 90 -20 109 -68 152 -28 24 -31 32 -19
39 11 8 7 17 -27 49 -56 55 -69 65 -80 65 -5 0 -11 7 -15 15 -3 8 -14 15 -24
15 -29 0 -55 35 -50 65 3 14 1 28 -3 31 -5 3 -9 -1 -9 -9 0 -21 -35 -27 -60
-10 -13 9 -19 21 -15 33 3 10 -2 25 -12 34 -10 9 -37 35 -60 59 -37 37 -40 43
-28 58 35 37 -2 139 -49 139 -17 0 -18 2 -6 10 12 8 12 11 -3 28 -9 10 -15 21
-12 24 13 12 -15 58 -35 58 -12 0 -18 5 -15 10 3 6 -1 13 -9 16 -9 3 -16 12
-16 20 0 7 -10 20 -22 28 -12 9 -17 16 -10 16 6 0 12 7 12 15 0 9 -7 15 -16
13 -10 -2 -19 3 -21 10 -3 6 0 12 6 12 6 0 11 11 11 25 0 19 -5 25 -22 25 -21
0 -21 0 -2 14 14 11 16 17 7 27 -6 6 -9 17 -7 24 3 7 1 16 -5 20 -6 3 -11 1
-11 -5 0 -6 -4 -8 -10 -5 -5 3 -10 13 -10 22 0 9 -15 30 -33 47 -35 33 -54 76
-34 77 7 0 2 4 -10 9 -13 5 -23 18 -23 29 0 13 -8 21 -22 23 -19 2 -22 8 -20
36 2 22 -1 32 -11 32 -20 0 -44 30 -52 68 -3 17 -11 32 -16 32 -6 0 -7 4 -4
10 4 6 -1 7 -10 3 -10 -3 -21 0 -26 8 -6 10 -9 10 -9 2 0 -7 -4 -13 -10 -13
-5 0 -10 9 -10 20 0 16 -5 19 -30 14 -19 -4 -38 -1 -53 9 -23 15 -58 20 -129
18 l-38 -1 0 -3085 0 -3085 2455 0 c2176 0 2455 2 2455 15 0 8 5 15 10 15 6 0
10 -7 10 -15 0 -18 16 -20 23 -2 4 9 6 9 6 0 2 -22 19 -14 25 12 8 30 21 33
23 4 4 -50 23 -37 30 22 5 36 4 41 -10 36 -9 -3 -18 0 -21 9 -4 10 2 14 18 14
17 0 26 -8 34 -32 l10 -33 1 31 c1 19 7 34 17 38 12 5 15 16 12 41 -3 24 0 35
9 35 7 0 13 -4 13 -8 0 -5 14 -7 30 -4 17 2 36 0 43 -6 23 -20 188 -15 195 6
6 19 52 15 52 -5 1 -17 1 -17 14 0 17 22 35 22 52 0 12 -16 13 -16 14 -2 0 15
19 29 40 29 4 0 10 -8 12 -18 4 -15 16 -19 53 -20 61 -3 73 -12 16 -12 -26 0
-40 -4 -36 -10 4 -7 38 -8 94 -4 74 6 92 4 114 -11 16 -10 27 -13 27 -6 0 6
17 11 40 11 22 0 40 5 40 10 0 6 18 10 39 10 22 0 41 5 44 13 4 9 7 9 18 -1 7
-6 23 -12 36 -12 13 0 23 -5 23 -11 0 -11 37 -10 136 7 35 5 45 3 63 -15 11
-11 26 -21 31 -21 6 0 10 -5 10 -10 0 -6 8 -5 20 2 15 9 25 10 38 2 9 -6 36
-10 60 -9 23 1 42 -2 42 -7 0 -4 6 -5 14 -2 8 3 26 -2 39 -11 20 -12 26 -13
30 -3 3 10 9 9 24 -4 11 -10 27 -18 36 -18 9 0 19 -11 23 -25 3 -14 10 -25 15
-25 12 0 11 17 -1 41 -9 16 -7 19 15 19 16 0 25 -6 25 -15 0 -8 5 -15 10 -15
6 0 10 8 10 17 0 15 2 14 15 -3 13 -16 16 -17 24 -4 8 12 13 12 23 2 9 -9 9
-12 -2 -12 -11 -1 -9 -5 5 -16 18 -13 20 -13 26 3 5 14 18 18 60 19 30 0 44
-1 31 -3 -35 -7 -20 -28 21 -31 28 -2 37 1 37 12 0 11 9 16 30 16 20 0 30 -5
30 -15 0 -8 5 -15 10 -15 6 0 10 5 10 11 0 7 9 9 22 6 12 -4 27 -2 32 2 6 5
25 11 41 13 17 3 38 9 47 13 14 5 18 2 18 -12 0 -20 39 -27 52 -9 9 14 140 8
149 -6 6 -9 12 -8 23 1 14 11 16 11 16 -5 1 -18 1 -18 16 1 14 19 16 19 25 2
8 -14 14 -16 25 -6 10 8 14 8 14 0 0 -6 5 -11 10 -11 6 0 10 7 10 15 0 8 9 15
20 15 11 0 20 -6 20 -14 0 -12 82 -14 535 -16 l536 -1 -16 32 c-14 27 -15 36
-4 56 16 29 53 40 84 23 15 -8 42 -10 81 -6 56 7 61 5 103 -26 27 -20 54 -31
68 -30 28 4 31 -14 3 -21 -11 -3 -20 -10 -20 -16 0 -7 34 -11 98 -11 l97 0 20
33 c10 17 23 41 27 51 5 11 17 27 28 36 11 10 20 24 20 32 0 9 9 27 20 41 11
14 20 30 20 36 0 7 8 21 18 31 10 11 34 49 52 86 l35 66 -24 19 c-27 22 -107
26 -133 6 -9 -7 -32 -11 -51 -9 -30 3 -36 8 -39 33 -3 21 2 35 18 50 51 48
238 25 279 -34 23 -33 18 -86 -15 -151 -34 -69 -31 -80 31 -110 33 -16 45 -27
46 -46 l3 -25 -12 23 c-11 22 -22 26 -68 22 -63 -5 -89 -27 -125 -103 -19 -41
-35 -77 -35 -81 0 -3 47 -6 105 -6 87 0 105 3 105 15 0 8 4 15 8 15 5 0 15 11
22 25 14 26 26 30 49 16 11 -7 10 -15 -9 -40 l-22 -32 98 3 97 3 24 44 c37 70
34 74 -47 69 -62 -3 -70 -2 -70 14 0 10 10 24 23 32 34 23 117 48 155 48 27 0
37 6 51 29 20 36 63 57 118 57 23 1 51 6 62 11 24 13 91 14 110 2 12 -8 11
-13 -10 -30 -13 -11 -29 -20 -35 -21 -18 0 -70 -29 -87 -48 -9 -9 -28 -55 -42
-102 -14 -47 -28 -91 -30 -97 -3 -10 415 -13 2030 -13 l2035 0 0 923 0 922
-30 29 c-26 24 -29 31 -18 44 7 8 14 38 14 66 1 28 9 65 18 81 23 43 24 415 1
415 -8 0 -30 8 -50 17 -34 16 -34 17 -19 41 12 19 14 38 9 91 -6 56 -3 73 12
102 11 19 29 35 41 37 l22 3 0 655 c0 524 -3 654 -13 654 -7 0 -20 9 -30 20
-21 25 -23 54 -2 46 36 -14 45 3 45 89 l0 83 -33 6 c-40 7 -93 -16 -102 -44
-8 -25 -43 -34 -93 -26 -20 4 -54 9 -75 12 -26 4 -37 11 -33 19 2 7 -6 23 -19
35 -14 13 -22 31 -20 46 2 24 -32 55 -114 104 -15 8 -26 24 -26 35 0 14 -8 21
-27 23 -26 3 -50 -12 -115 -75 -13 -13 -28 -23 -33 -23 -5 0 -15 -6 -22 -13
-8 -6 -23 -17 -33 -23 -11 -6 -24 -20 -29 -31 -5 -11 -22 -27 -37 -35 -18 -11
-31 -30 -38 -55 -6 -21 -18 -48 -26 -60 -9 -13 -12 -23 -7 -23 15 0 29 -72 26
-133 -4 -67 -36 -150 -76 -192 -15 -17 -28 -35 -28 -39 0 -13 -42 -45 -97 -73
l-53 -26 -45 24 c-52 28 -58 38 -41 70 40 76 152 289 200 378 31 58 56 109 56
114 0 6 6 18 14 26 7 9 18 43 24 76 6 33 23 101 36 150 14 50 26 98 26 107 0
22 -38 47 -81 54 -30 5 -37 1 -58 -31 -39 -59 -142 -159 -202 -197 -31 -20
-65 -48 -77 -63 -33 -42 -180 -153 -220 -166 -21 -7 -56 -22 -79 -35 -23 -12
-61 -25 -84 -29 -28 -5 -37 -10 -28 -15 9 -6 5 -11 -14 -15 -15 -4 -32 -16
-38 -26 -5 -11 -14 -19 -20 -19 -15 0 -46 -33 -53 -57 -4 -13 -13 -29 -19 -35
-33 -35 -73 -107 -82 -147 -4 -17 -20 -43 -36 -58 -34 -33 -74 -150 -65 -193
3 -17 -1 -45 -10 -67 -33 -79 -2 -192 67 -241 21 -15 42 -36 45 -47 4 -11 17
-33 30 -48 13 -16 24 -37 24 -48 0 -10 4 -19 9 -19 18 0 16 -135 -3 -173 -23
-47 -99 -125 -129 -132 -21 -6 -31 -1 -50 20 -19 22 -27 26 -43 18 -10 -5 -32
-6 -49 -2 -16 3 -22 7 -12 8 28 2 11 18 -24 23 -22 4 -39 -1 -58 -17 -32 -27
-103 -55 -137 -55 -13 0 -27 -6 -30 -14 -3 -8 -25 -19 -50 -26 -26 -8 -55 -25
-69 -41 -13 -16 -28 -29 -34 -29 -6 0 -11 -5 -11 -10 0 -17 -42 -70 -55 -70
-7 0 -20 -8 -29 -19 -13 -14 -18 -42 -20 -124 -2 -57 -9 -114 -15 -125 -7 -14
-8 -23 -1 -27 13 -8 13 -58 0 -71 -7 -7 -7 -46 -1 -117 8 -90 7 -111 -7 -141
-16 -35 -44 -48 -57 -26 -3 6 -24 10 -46 10 -21 0 -39 4 -39 8 0 4 -15 6 -33
4 -28 -3 -40 3 -69 32 -20 20 -42 50 -50 66 -7 17 -16 30 -19 30 -4 0 -15 23
-25 50 -10 28 -22 50 -27 50 -8 0 -69 46 -111 82 -11 10 -27 20 -37 23 -9 3
-20 12 -23 20 -3 8 -14 15 -25 15 -11 0 -29 13 -40 29 -17 23 -31 30 -73 35
-91 12 -119 13 -124 5 -3 -5 -14 -3 -25 4 -17 10 -22 9 -33 -6 -14 -18 -46
-23 -46 -7 0 6 9 19 20 30 29 29 25 35 -23 36 -83 3 -80 2 -73 29 5 19 2 25
-9 25 -8 0 -21 11 -27 25 -6 13 -20 28 -32 31 -27 8 -49 31 -66 71 -8 18 -18
33 -22 33 -26 0 11 150 47 190 8 9 29 55 46 101 30 82 41 99 67 99 7 0 54 -40
105 -89 104 -100 116 -110 246 -209 60 -46 103 -72 120 -72 39 0 71 44 71 97
0 24 5 43 11 43 6 0 4 7 -5 15 -18 18 -14 56 21 175 13 47 31 108 39 136 28
101 114 278 176 362 23 31 73 96 110 144 66 85 83 113 55 89 -8 -6 -17 -8 -20
-4 -10 9 -65 16 -124 15 -29 -1 -53 3 -53 8 0 6 -16 10 -35 10 -49 0 -165 70
-165 100 0 5 -20 19 -45 30 -25 11 -45 25 -45 30 0 6 -8 10 -18 10 -29 0 -46
106 -26 162 15 44 82 114 130 137 16 8 45 22 65 32 20 11 44 19 53 19 21 0 21
48 1 78 -25 34 -31 115 -11 143 9 13 16 31 16 40 0 28 31 75 66 98 31 22 44
52 44 110 1 30 22 62 43 65 23 3 87 50 87 63 0 6 6 13 13 16 9 3 12 43 12 154
0 110 4 154 13 166 10 11 12 31 7 70 l-7 53 41 27 c22 15 46 27 54 27 19 0 57
29 57 44 0 7 -13 33 -30 57 -16 24 -30 54 -30 66 0 31 37 53 90 53 47 1 67 11
88 48 14 26 16 108 2 117 -5 3 -10 13 -10 21 0 18 -39 107 -50 114 -4 3 -7 14
-7 25 3 111 -4 176 -19 182 -19 7 -34 -13 -34 -44 0 -29 -53 -67 -86 -60 -14
2 -31 -1 -38 -9 -11 -10 -13 -8 -13 14 0 15 -4 44 -8 64 -4 20 -5 48 -1 62 10
39 64 96 92 96 12 0 27 6 31 14 4 7 32 40 62 72 51 56 151 195 151 210 0 4 11
21 24 38 12 17 40 66 61 109 38 78 69 113 111 123 21 5 43 -8 96 -59 19 -18
38 -23 38 -9 0 5 19 8 43 9 23 0 53 3 66 7 33 11 152 -14 125 -26 -12 -5 3 -6
39 -3 42 4 57 2 57 -7 0 -15 64 -40 101 -39 15 1 32 -6 39 -14 10 -12 9 -15
-6 -16 -14 0 -15 -2 -4 -6 8 -2 24 -8 35 -13 11 -5 50 -12 88 -15 37 -4 67
-11 67 -16 0 -5 11 -9 25 -9 14 0 25 -5 25 -11 0 -7 11 -8 30 -4 22 5 37 1 57
-15 20 -15 39 -21 69 -19 26 2 51 -3 67 -14 15 -9 29 -17 32 -17 10 0 35 -28
35 -39 0 -6 7 -11 16 -11 19 0 84 -51 84 -66 0 -6 11 -21 25 -34 13 -12 22
-26 20 -30 -3 -5 1 -25 8 -46 7 -22 12 -79 12 -129 -2 -74 -6 -97 -24 -130
-28 -48 -51 -75 -64 -75 -6 0 -18 -7 -27 -15 -16 -14 -19 -13 -34 19 -18 38
-32 46 -82 46 -25 0 -34 4 -34 17 0 13 -3 14 -12 5 -16 -16 -28 -15 -28 3 0
21 -28 19 -33 -2 -4 -14 -5 -12 -6 5 0 12 -6 22 -11 22 -6 0 -13 7 -17 16 -9
24 -53 69 -53 55 0 -7 -8 -10 -17 -7 -10 3 -29 -1 -43 -9 l-25 -14 25 -1 25
-1 -23 -12 c-45 -26 -107 -147 -74 -147 4 0 9 -19 10 -42 3 -58 11 -78 28 -78
8 0 14 -7 14 -15 0 -8 5 -14 12 -13 7 2 13 -3 14 -9 1 -7 2 -19 3 -25 2 -17
40 32 41 52 0 8 9 25 20 38 17 20 22 22 42 11 12 -7 43 -13 68 -14 61 -3 60
-3 60 -20 0 -8 6 -15 13 -15 22 0 47 -34 47 -63 0 -16 8 -32 20 -39 11 -7 20
-18 20 -25 0 -15 60 -51 98 -59 34 -7 102 -84 102 -115 0 -9 7 -19 15 -23 8
-3 15 -16 15 -30 0 -13 5 -26 12 -28 12 -4 32 -104 44 -220 5 -56 10 -68 24
-68 10 0 21 6 24 13 5 10 7 10 12 0 8 -17 49 -16 63 1 8 9 26 12 61 8 30 -3
50 -1 50 6 0 5 35 13 77 17 46 4 82 13 92 22 10 11 27 14 55 10 22 -3 34 -2
27 2 -14 9 82 21 170 21 l59 0 0 2350 0 2350 -1492 0 c-1038 0 -1498 -4 -1508
-11 -12 -8 -9 -10 13 -6 15 2 27 1 27 -3 0 -7 77 -53 82 -49 3 3 40 -14 253
-116 124 -59 134 -62 223 -67 76 -5 99 -10 130 -30 90 -61 164 -166 189 -266
18 -75 10 -118 -34 -181 -9 -13 -366 -57 -580 -70 -239 -15 -241 -20 -23 -96
37 -13 66 -29 68 -38 3 -15 71 -49 127 -63 17 -4 53 -24 80 -44 28 -20 57 -39
66 -42 9 -4 19 -15 21 -26 5 -17 -2 -16 -72 14 -43 19 -85 34 -93 34 -9 0 -19
5 -22 10 -4 6 -11 8 -16 4 -5 -3 -15 -1 -22 4 -16 14 -76 9 -86 -6 -4 -7 -18
-12 -32 -11 -41 1 -129 -13 -129 -22 0 -15 38 -29 85 -33 24 -2 50 -8 57 -13
21 -16 48 -23 48 -12 0 5 -12 14 -26 19 -14 6 -24 16 -22 23 10 30 86 16 213
-37 33 -14 78 -26 100 -26 22 0 57 -9 78 -20 20 -11 50 -20 66 -20 25 0 32 -6
47 -40 19 -43 26 -46 64 -26 21 12 30 12 59 0 22 -9 38 -11 44 -5 15 15 70 2
90 -21 21 -25 22 -66 1 -89 -14 -15 -11 -18 33 -40 26 -12 52 -30 58 -38 5 -9
10 -48 10 -88 1 -41 6 -77 13 -86 9 -10 10 -17 2 -22 -5 -3 -10 -15 -10 -26 0
-10 -4 -19 -8 -19 -14 0 -32 -65 -39 -134 -6 -62 -22 -93 -24 -43 -2 81 -12
169 -24 212 -8 28 -19 74 -26 103 -8 39 -17 56 -33 62 -23 9 -48 -6 -31 -18 6
-4 21 -23 35 -42 27 -39 30 -67 17 -210 -5 -47 -10 -110 -12 -141 -4 -56 -9
-78 -27 -115 -8 -18 -15 -20 -56 -13 -26 4 -66 8 -89 8 -36 1 -44 5 -63 36
-12 19 -26 35 -31 35 -5 0 -9 7 -9 15 0 8 -4 15 -9 15 -5 0 -15 26 -21 58 -7
31 -18 67 -27 80 -8 13 -16 49 -19 79 -6 70 -36 123 -65 116 -12 -3 -29 2 -42
14 -12 11 -35 27 -52 34 -27 13 -30 19 -33 67 -2 41 -7 52 -20 53 -36 1 -52 8
-89 37 -74 57 -238 98 -558 138 -71 9 -170 28 -220 44 -102 31 -173 47 -260
59 -33 5 -71 13 -85 18 -14 6 -56 13 -93 17 -60 6 -75 4 -116 -16 -46 -22
-101 -84 -101 -112 0 -8 -7 -16 -15 -20 -8 -3 -15 -12 -15 -21 0 -8 -4 -15 -9
-15 -5 0 -13 -10 -17 -22 -3 -13 -15 -35 -25 -50 -25 -35 -24 -49 4 -47 60 5
75 -1 92 -37 16 -34 16 -37 -2 -57 -10 -12 -18 -23 -19 -25 -4 -8 -49 -10 -63
-3 -24 13 -61 -5 -61 -29 0 -26 35 -40 98 -40 26 -1 58 -7 71 -14 18 -10 32
-11 52 -4 18 6 47 6 81 -1 29 -5 75 -13 103 -16 27 -4 62 -13 77 -21 15 -8 36
-14 48 -14 21 0 27 15 9 25 -14 9 -33 56 -30 75 7 47 78 53 115 9 l26 -30 -25
-39 c-19 -29 -23 -45 -16 -62 4 -13 3 -46 -3 -78 l-11 -55 -50 -7 c-77 -11
-196 7 -218 33 -14 17 -20 19 -32 9 -24 -20 -59 -8 -76 29 l-16 33 -35 -31
c-35 -31 -38 -31 -107 -25 -40 4 -74 11 -77 15 -3 5 -18 9 -33 9 -34 0 -63 30
-61 62 4 42 0 47 -39 67 -21 11 -42 28 -45 38 -4 9 -6 53 -5 97 2 68 -1 81
-17 92 -42 29 -42 31 -37 136 8 173 39 241 117 253 67 10 75 15 78 42 4 36 49
67 96 66 20 0 66 -8 101 -17 l64 -17 27 26 c22 21 36 26 71 24 27 -1 70 8 113
25 38 14 80 26 92 26 13 0 24 5 24 10 0 6 -6 10 -13 10 -8 0 -24 11 -37 25
-13 14 -32 25 -42 25 -10 0 -18 5 -18 10 0 6 -10 10 -23 10 -13 0 -27 4 -33 8
-5 5 -28 14 -51 21 -24 6 -43 15 -43 20 0 4 -6 8 -12 9 -54 7 -79 15 -67 23
10 6 6 9 -13 9 -15 0 -29 4 -33 9 -3 6 -26 13 -51 17 -33 5 -42 9 -33 16 10 7
6 8 -14 5 -20 -3 -31 1 -37 14 -10 17 -27 26 -71 34 -12 3 -25 9 -28 13 -3 5
-17 12 -31 16 -19 6 -21 5 -10 -3 11 -8 11 -11 2 -11 -7 0 -15 7 -18 15 -4 8
-12 15 -20 15 -8 0 -14 4 -14 9 0 5 -22 14 -50 21 -27 6 -54 18 -60 25 -6 8
-26 17 -43 21 -18 3 -36 10 -42 14 -5 4 -32 15 -60 25 -27 10 -54 21 -60 25
-5 4 -37 17 -70 30 -33 12 -73 28 -90 35 -83 36 -108 44 -115 40 -4 -3 -13 2
-20 10 -7 8 -17 15 -22 15 -6 0 -38 13 -72 29 -85 41 -129 60 -306 135 -140
59 -162 65 -222 65 -41 0 -78 6 -97 15 -27 14 -436 16 -4171 16 l-4140 0 0
-928z m3590 282 c0 -16 -9 -17 -29 -5 -8 5 -11 16 -7 26 5 14 9 15 21 5 8 -7
15 -19 15 -26z m130 -105 c0 -6 -7 -6 -20 1 -11 6 -20 15 -20 21 0 6 7 6 20
-1 11 -6 20 -15 20 -21z m70 -20 c0 -4 -5 -11 -10 -14 -13 -8 -42 14 -35 25 6
10 45 1 45 -11z m-30 -22 c30 -9 100 -26 155 -38 55 -11 115 -26 133 -31 32
-9 57 -39 57 -68 0 -9 9 -14 23 -13 12 2 22 -2 22 -7 0 -6 -6 -10 -12 -11 -8
0 -7 -3 2 -6 18 -7 30 -20 53 -53 16 -24 17 -24 17 -3 0 20 2 21 26 9 17 -9
36 -11 60 -6 39 9 113 2 131 -12 7 -6 19 -5 31 3 16 10 26 10 52 -1 18 -7 58
-14 89 -15 31 0 67 -7 80 -14 14 -8 50 -15 80 -16 36 -1 68 -10 91 -24 24 -14
52 -21 90 -22 30 0 64 -2 75 -5 11 -2 39 -5 62 -7 31 -1 43 -7 47 -20 3 -14
13 -18 39 -16 34 3 117 -28 117 -44 0 -4 10 -5 23 -2 13 4 47 -3 78 -14 30
-12 73 -21 97 -21 31 0 42 -4 42 -15 0 -9 9 -15 24 -15 13 0 29 -7 36 -15 8
-9 29 -15 55 -15 24 0 45 -5 47 -10 2 -6 31 -11 66 -12 34 -1 62 -5 62 -9 0
-15 107 -58 160 -65 30 -4 61 -15 71 -25 21 -21 94 -43 115 -35 18 7 46 -3 39
-14 -3 -5 4 -12 16 -15 13 -4 25 -2 29 5 5 9 12 6 23 -10 11 -16 22 -21 36
-17 16 4 21 0 21 -14 0 -16 7 -19 40 -19 24 0 40 5 40 12 0 7 17 -5 39 -26 26
-26 40 -34 43 -24 4 10 10 9 27 -6 11 -11 21 -16 21 -13 0 4 18 -3 40 -14 59
-31 143 -51 152 -37 4 8 14 4 28 -15 22 -28 50 -36 50 -14 1 6 7 -1 14 -18 8
-19 15 -25 20 -17 11 19 26 14 36 -10 5 -13 9 -17 9 -10 1 17 30 15 37 -3 4
-9 20 -15 43 -15 33 -1 34 -2 18 -14 -18 -14 -18 -14 0 -18 10 -2 26 1 35 6
13 8 23 3 48 -22 33 -35 59 -41 61 -14 1 16 2 16 6 0 2 -10 10 -18 17 -18 6 0
23 -13 36 -30 19 -22 33 -29 63 -30 20 0 37 -5 37 -11 0 -6 9 -9 20 -6 12 3
18 1 14 -5 -7 -11 51 -69 60 -60 8 7 78 -15 149 -47 45 -20 57 -31 57 -48 0
-13 5 -23 10 -23 6 0 10 5 10 10 0 10 103 -41 125 -61 5 -5 17 -9 27 -9 15 0
17 -5 12 -27 -5 -23 -4 -26 7 -15 19 18 42 15 57 -8 7 -12 23 -20 38 -20 14 0
23 -4 20 -9 -3 -5 2 -12 11 -15 9 -4 20 -1 24 6 11 18 16 9 21 -44 4 -35 2
-48 -7 -48 -8 0 -15 6 -18 13 -3 9 -15 6 -44 -10 -23 -13 -48 -23 -56 -23 -9
0 -23 -10 -32 -22 -12 -18 -17 -20 -24 -9 -6 9 -14 10 -27 4 -41 -21 -461 -20
-481 1 -4 3 -29 6 -58 6 -28 0 -56 5 -63 12 -7 7 -12 9 -12 5 0 -4 -10 -2 -22
4 -27 15 -101 31 -140 30 -16 0 -28 4 -28 9 0 12 -46 25 -160 45 -52 10 -101
23 -109 28 -7 6 -36 15 -65 19 -54 8 -109 18 -221 42 -38 8 -73 12 -77 10 -3
-2 -9 0 -13 6 -3 5 -16 9 -28 8 -12 -1 -51 4 -87 10 -130 22 -230 34 -244 29
-9 -4 -18 -2 -20 2 -3 5 -29 9 -58 10 -29 1 -82 6 -118 11 -36 6 -132 18 -215
27 -82 9 -153 21 -157 27 -4 6 -10 8 -13 5 -3 -4 -35 0 -71 7 -36 8 -70 12
-75 9 -5 -3 -23 4 -40 17 -22 16 -33 19 -36 11 -4 -10 -10 -10 -31 1 -15 7
-51 16 -81 19 -30 4 -59 11 -65 17 -5 5 -22 10 -37 10 -15 0 -29 4 -31 10 -1
5 -19 10 -38 12 -19 1 -46 8 -60 15 -14 7 -41 13 -60 13 -20 0 -46 7 -58 16
-12 8 -22 13 -22 11 0 -3 -30 4 -66 13 -37 10 -73 16 -80 13 -8 -3 -14 -1 -14
5 0 6 -19 15 -42 20 -114 27 -218 53 -263 66 -27 8 -68 17 -90 21 -22 3 -54
11 -72 16 -29 9 -32 13 -29 47 3 30 11 41 47 66 56 38 75 60 104 116 41 80 53
196 39 352 -4 37 -11 65 -16 62 -5 -3 -15 0 -23 6 -8 7 -24 9 -36 5 -18 -6
-21 -4 -16 9 4 9 3 15 -1 15 -28 -5 -34 3 -12 16 l25 14 -33 1 c-25 0 -35 6
-41 23 -10 27 -4 47 15 47 8 0 14 -6 14 -12 0 -10 3 -9 9 1 5 7 14 11 20 7 7
-4 9 -1 5 7 -6 18 -33 27 -94 33 -190 20 -378 78 -380 117 0 13 21 8 49 -12
25 -18 134 -52 162 -50 8 0 -4 7 -26 15 -22 8 -55 21 -73 30 -18 8 -37 12 -42
9 -6 -3 -10 0 -10 8 0 20 11 28 24 18 6 -5 36 -16 66 -24z m177 -13 c-3 -3
-12 -4 -19 -1 -8 3 -5 6 6 6 11 1 17 -2 13 -5z m963 -283 c0 -6 -4 -13 -10
-16 -5 -3 -10 1 -10 9 0 9 5 16 10 16 6 0 10 -4 10 -9z m155 -21 c3 -5 1 -10
-4 -10 -6 0 -11 5 -11 10 0 6 2 10 4 10 3 0 8 -4 11 -10z m5066 -321 c33 -36
35 -42 14 -59 -8 -7 -15 -19 -15 -26 0 -10 -13 -14 -40 -14 -35 0 -43 5 -60
33 -25 41 -25 43 5 72 32 33 61 31 96 -6z m172 -61 c22 -26 22 -43 -4 -72 -17
-20 -28 -24 -53 -19 -39 7 -52 20 -61 60 -5 28 -3 34 22 47 34 18 72 11 96
-16z m-3708 -98 c3 -5 -1 -10 -9 -10 -9 0 -16 5 -16 10 0 6 4 10 9 10 6 0 13
-4 16 -10z m4099 -26 c9 -22 -3 -32 -14 -14 -12 19 -12 30 -1 30 5 0 12 -7 15
-16z m-4019 -14 c3 -5 -1 -10 -9 -10 -9 0 -16 5 -16 10 0 6 4 10 9 10 6 0 13
-4 16 -10z m-2773 -65 c-4 -37 -8 -41 -26 -26 -17 14 -51 -1 -106 -49 -26 -23
-31 -33 -22 -42 9 -9 15 -8 26 8 11 14 17 16 26 7 9 -8 20 -6 45 8 l33 20 43
-34 c24 -18 85 -52 134 -75 117 -55 118 -56 121 -70 1 -7 0 -9 -2 -4 -2 5 -17
7 -32 4 -19 -2 -48 7 -85 27 -32 17 -59 31 -61 31 -3 0 5 -26 16 -57 29 -85
32 -143 14 -285 -15 -113 -22 -138 -66 -233 -34 -73 -67 -126 -107 -171 -53
-60 -117 -104 -150 -104 -7 0 -13 -4 -13 -9 0 -6 -14 -11 -32 -13 -24 -2 -36
-12 -52 -38 -27 -46 -57 -80 -72 -80 -6 0 -17 -6 -23 -14 -16 -19 -158 -33
-174 -17 -6 6 -19 11 -28 11 -10 0 -24 8 -31 18 -11 15 -59 40 -110 56 -11 3
-18 15 -18 31 0 21 5 25 30 25 37 0 80 26 80 49 0 13 2 14 9 2 11 -17 -3 -51
-25 -64 -16 -9 -19 -37 -4 -37 6 0 13 7 16 15 4 8 10 12 15 10 5 -3 20 2 34
11 16 10 34 14 51 10 14 -4 32 -2 39 4 9 8 14 7 18 -3 7 -19 74 -16 149 6 48
15 55 20 51 37 -4 15 -2 19 10 14 28 -10 86 66 59 78 -8 3 -72 104 -72 113 0
2 -16 21 -36 42 -77 83 -114 209 -94 319 12 60 31 83 43 52 3 -7 6 -2 8 12 7
75 45 277 58 313 6 15 23 32 38 37 16 6 37 15 48 21 36 18 199 68 215 66 10
-2 14 -12 12 -32z m5619 -51 c13 -14 32 -35 42 -45 18 -20 24 -44 7 -34 -5 3
-27 -3 -49 -13 l-40 -20 -11 28 c-12 29 2 110 19 110 5 0 19 -12 32 -26z
m-6242 -253 c9 -6 -2 -10 -33 -13 -50 -3 -83 6 -50 15 32 8 68 7 83 -2z m51
-32 c0 -5 -4 -9 -10 -9 -5 0 -10 7 -10 16 0 8 5 12 10 9 6 -3 10 -10 10 -16z
m9060 -8 c0 -9 -24 -21 -42 -21 -6 0 -6 6 2 15 14 16 40 20 40 6z m-8110 -43
c12 -20 20 -51 20 -78 0 -71 8 -84 58 -108 26 -12 52 -22 58 -22 6 0 22 -8 35
-18 29 -22 105 -45 120 -36 6 3 18 -1 27 -9 9 -9 37 -18 62 -22 25 -4 49 -11
54 -16 13 -11 49 -12 42 0 -3 4 2 15 12 23 35 31 42 30 42 -1 0 -25 -4 -31
-22 -32 -17 -1 -13 -4 13 -13 21 -6 46 -19 56 -28 11 -10 23 -18 28 -18 5 0
28 -9 52 -20 24 -11 62 -29 86 -40 24 -11 47 -20 51 -20 4 0 26 -13 49 -28 23
-16 69 -39 102 -52 96 -38 167 -73 217 -108 159 -110 319 -146 469 -108 62 17
71 16 185 -2 65 -11 140 -30 166 -42 49 -23 101 -74 130 -129 l17 -32 203 2
c213 1 408 -18 459 -46 33 -18 288 -65 355 -65 29 0 73 6 96 14 108 36 220 66
298 81 47 8 126 28 175 44 195 63 259 81 361 97 90 15 118 16 196 5 51 -6 123
-24 162 -40 125 -51 153 -60 255 -86 88 -22 119 -25 274 -24 185 1 268 -13
300 -49 28 -31 50 -158 51 -289 0 -119 0 -122 -32 -173 -19 -30 -32 -65 -32
-84 0 -39 -27 -55 -81 -48 -21 2 -40 -1 -43 -7 -12 -18 -52 -12 -72 10 -10 12
-18 24 -16 28 1 3 -35 9 -80 12 -46 3 -99 11 -118 17 -35 10 -167 21 -308 24
-40 0 -75 4 -77 9 -3 4 -29 10 -58 14 -28 4 -63 12 -76 17 -14 5 -60 9 -103 9
-45 0 -110 8 -153 20 -41 10 -82 18 -92 17 -56 -5 -86 4 -111 30 -15 16 -49
37 -77 47 -27 11 -53 23 -56 28 -18 25 -179 18 -179 -8 0 -8 26 -42 57 -75
l57 -62 -16 -44 c-14 -40 -14 -45 3 -74 23 -37 24 -76 3 -84 -63 -24 -645 48
-784 98 -56 20 -74 20 -90 2 -16 -20 -44 -8 -72 31 -13 17 -46 49 -73 71 -28
21 -68 60 -90 86 -65 76 -226 207 -290 237 -77 36 -159 57 -262 68 -106 11
-298 -6 -345 -31 -21 -10 -24 -28 -4 -28 7 0 19 -6 25 -14 9 -10 8 -16 -4 -26
-25 -21 -147 -60 -186 -60 -37 0 -127 -42 -185 -86 -38 -29 -54 -30 -84 -4
-30 26 -33 25 -73 -9 -18 -16 -53 -37 -78 -47 -24 -10 -47 -21 -50 -26 -3 -5
-11 9 -18 31 -10 36 -17 42 -54 52 -92 25 -167 51 -167 58 0 12 -151 106 -210
130 -30 13 -64 31 -75 40 -11 9 -36 25 -55 35 -19 11 -51 32 -71 48 -20 15
-44 28 -53 28 -9 0 -16 5 -16 10 0 6 -6 10 -14 10 -8 0 -21 9 -30 21 -8 12
-32 33 -53 47 -21 14 -40 28 -43 32 -3 3 -21 14 -41 23 -20 9 -39 23 -42 32
-4 8 -27 17 -57 21 -58 8 -54 -5 -35 111 l8 43 -44 -6 c-91 -12 -121 25 -78
95 15 24 19 43 15 66 -7 36 12 67 54 88 24 13 25 15 23 112 -2 62 -7 101 -14
106 -8 4 -10 22 -6 49 3 22 1 55 -4 72 -6 24 -4 38 14 69 12 21 25 39 30 39 4
0 16 -15 27 -32z m5543 -9 c31 -25 37 -37 37 -68 0 -45 -14 -61 -56 -61 -36 0
-39 6 -50 103 -6 52 -5 57 12 57 11 0 36 -14 57 -31z m-2156 15 c-3 -3 -12 -4
-19 -1 -8 3 -5 6 6 6 11 1 17 -2 13 -5z m-1020 -170 c-3 -3 -12 -4 -19 -1 -8
3 -5 6 6 6 11 1 17 -2 13 -5z m3509 -29 c4 -8 -2 -27 -12 -41 -84 -119 -94
-161 -43 -191 35 -20 149 -184 149 -214 0 -15 -8 -19 -32 -21 -18 0 -37 -2
-43 -3 -5 -2 -47 -3 -91 -4 -63 -1 -87 -5 -104 -19 -28 -23 -22 -42 30 -102
22 -24 43 -59 46 -77 7 -37 -12 -93 -30 -93 -7 0 -44 -30 -83 -67 -85 -81
-101 -124 -64 -173 22 -30 27 -75 12 -99 -11 -17 8 -81 26 -88 24 -9 13 -20
-16 -15 -38 5 -47 -11 -16 -28 14 -7 25 -17 25 -22 0 -4 6 -8 13 -8 8 0 19
-11 25 -25 6 -14 16 -25 21 -25 5 0 12 -7 15 -16 7 -19 -21 -64 -40 -64 -8 0
-14 -6 -14 -12 0 -7 -9 -24 -19 -37 -25 -33 -52 -21 -78 36 -32 70 -36 95 -23
142 9 36 8 44 -11 70 -12 16 -19 33 -16 38 7 10 -6 134 -22 228 -6 33 -18 164
-27 290 -17 241 -14 421 9 550 12 68 13 70 42 70 23 0 34 -8 50 -34 34 -57 71
-91 100 -91 29 0 160 109 171 142 7 22 42 24 50 3z m-6702 -97 c10 -40 7 -66
-10 -72 -22 -8 -21 -9 -16 47 4 50 16 61 26 25z m1916 8 c0 -5 25 -6 56 -3 31
3 64 2 73 -3 9 -5 32 -11 52 -15 37 -6 98 -48 83 -57 -5 -3 -34 -2 -66 1 -31
4 -68 6 -82 5 -14 0 -26 3 -26 8 0 4 16 8 35 8 19 0 35 5 35 10 0 6 -18 10
-40 10 -33 0 -40 -3 -40 -20 0 -18 -7 -19 -76 -18 -61 1 -77 5 -85 20 -5 10
-20 18 -32 19 -21 0 -21 1 -2 9 11 4 24 4 30 -1 12 -12 25 -11 25 1 0 5 -11
12 -25 16 -44 11 -27 23 30 21 30 -1 55 -6 55 -11z m287 -32 c-3 -3 -12 -4
-19 -1 -8 3 -5 6 6 6 11 1 17 -2 13 -5z m6303 -59 c0 -18 -7 -28 -26 -35 -40
-15 -53 -12 -51 13 2 27 24 46 55 47 17 0 22 -6 22 -25z m130 -87 c19 -20 21
-32 18 -100 -2 -60 -8 -82 -23 -100 -12 -13 -27 -40 -34 -62 -26 -76 -52 -124
-83 -157 -31 -32 -33 -33 -36 -12 -2 13 -9 20 -16 17 -7 -3 -19 2 -26 11 -11
13 -11 20 0 41 8 13 18 23 24 21 27 -9 82 149 117 333 14 79 20 90 29 58 4
-15 18 -37 30 -50z m-2583 -30 c22 -27 42 -113 54 -223 13 -112 11 -132 -15
-235 -4 -18 -25 -15 -41 6 -6 8 -46 23 -90 33 -128 29 -160 40 -195 63 -57 39
-73 70 -74 140 -1 55 3 68 29 103 16 22 43 52 60 67 27 25 47 31 150 52 46 9
113 5 122 -6z m2407 -104 c20 -8 20 -36 1 -100 -23 -79 -96 -129 -133 -92 -19
19 -14 56 8 68 11 6 29 30 41 53 23 45 47 77 60 77 4 0 14 -3 23 -6z m-161
-354 c2 -10 1 -23 -2 -29 -11 -17 -43 22 -35 42 7 20 30 12 37 -13z m-7669
-151 c70 -62 126 -115 126 -119 0 -24 -112 -27 -169 -4 -61 24 -91 75 -96 162
-2 40 0 72 5 72 5 0 65 -50 134 -111z m6213 82 c3 -12 11 -17 19 -14 8 3 14
-1 14 -11 0 -13 -4 -14 -27 -3 -42 18 -58 47 -27 47 9 0 18 -9 21 -19z m2208
-171 c3 -5 1 -10 -4 -10 -6 0 -11 5 -11 10 0 6 2 10 4 10 3 0 8 -4 11 -10z
m-5910 -131 c106 -41 150 -75 138 -105 -10 -27 -180 -7 -284 34 -32 13 -89 69
-89 87 0 47 88 41 235 -16z m-692 -13 c19 -20 48 -109 51 -160 1 -22 8 -51 14
-63 7 -12 12 -31 12 -42 0 -24 79 -71 170 -100 36 -11 88 -27 115 -36 28 -9
77 -19 110 -21 100 -8 159 -30 209 -77 35 -32 46 -50 46 -72 0 -50 -11 -75
-36 -81 -13 -3 -24 -11 -24 -17 0 -6 -6 -4 -12 5 -27 35 -91 57 -178 61 -76 4
-156 18 -272 48 -41 11 -69 33 -112 91 -21 29 -34 37 -50 33 -11 -3 -26 -2
-33 3 -16 10 -44 78 -35 86 3 4 -12 4 -34 1 -34 -6 -43 -3 -68 22 -25 25 -28
33 -23 73 3 25 19 74 35 110 16 36 32 78 36 95 13 54 48 72 79 41z m-3703 -12
c0 -17 -22 -14 -28 4 -2 7 3 12 12 12 9 0 16 -7 16 -16z m2353 -49 c12 -3 45
-10 72 -15 28 -5 72 -14 98 -21 40 -11 50 -10 57 1 7 11 16 11 52 -3 54 -21
62 -21 54 -2 -9 24 19 29 55 11 34 -17 64 -22 39 -6 -8 5 -12 11 -9 15 3 3 16
-4 29 -15 26 -22 55 -27 45 -7 -4 6 0 4 8 -5 8 -10 18 -18 22 -18 4 0 20 -13
35 -29 15 -15 50 -38 76 -50 30 -14 58 -36 72 -57 13 -19 30 -38 39 -41 19 -7
72 -64 73 -77 0 -4 12 -17 26 -28 14 -12 30 -32 35 -45 5 -14 18 -27 29 -30
15 -4 20 -14 20 -42 1 -20 6 -52 13 -71 19 -54 12 -73 -26 -66 -23 4 -28 3
-17 -4 13 -8 13 -10 0 -10 -18 0 57 -78 83 -86 16 -5 18 -12 14 -41 -6 -33 6
-69 28 -85 6 -5 5 -12 -5 -17 -8 -6 -11 -13 -7 -18 5 -4 12 -1 16 6 5 7 14 10
20 6 8 -5 11 2 9 22 -2 22 1 28 15 28 14 0 37 -33 83 -120 35 -66 64 -128 64
-137 0 -20 -20 -24 -37 -7 -17 17 -55 -7 -48 -31 4 -13 0 -20 -15 -25 -27 -9
-27 -9 -64 72 -43 95 -95 183 -108 183 -5 0 -24 12 -41 26 -23 19 -38 24 -59
20 -24 -5 -28 -2 -28 18 0 32 -14 40 -90 55 -71 14 -77 17 -82 46 -2 12 3 20
12 20 8 0 15 6 14 13 -1 6 -2 25 -2 41 -1 16 -9 32 -18 35 -12 5 -15 2 -10 -9
3 -9 2 -13 -3 -10 -5 3 -12 1 -16 -5 -4 -6 -10 -8 -15 -5 -5 3 -6 -10 -3 -30
4 -23 2 -35 -6 -35 -7 0 -9 -9 -5 -24 7 -28 -2 -32 -86 -42 l-62 -7 6 39 c8
45 8 45 -143 94 -98 32 -203 81 -185 87 13 4 271 -83 302 -103 23 -15 28 -9
13 15 -5 7 -13 11 -18 8 -5 -4 -20 1 -32 9 -16 12 -19 19 -12 28 11 13 5 26
-10 26 -5 0 -6 -7 -3 -15 7 -17 -11 -21 -21 -5 -4 6 -43 29 -87 51 -44 22 -78
42 -76 44 2 3 33 -2 69 -9 35 -8 89 -19 119 -26 30 -6 72 -17 93 -22 28 -9 41
-8 49 0 21 21 -6 34 -84 39 -40 3 -89 8 -108 12 l-35 8 45 8 45 8 -75 24 c-79
26 -103 40 -94 54 3 5 -3 9 -12 9 -10 0 -14 3 -11 7 4 3 32 0 62 -7 40 -10 61
-10 77 -2 22 10 22 11 -7 11 -23 1 -27 4 -15 11 12 8 9 10 -12 10 -15 0 -30 5
-33 10 -3 6 -14 10 -24 10 -11 0 -37 29 -68 78 -54 82 -129 179 -176 225 -20
20 -26 34 -21 45 7 16 7 16 11 0 3 -10 14 -20 26 -23z m-2343 15 c0 -5 -2 -10
-4 -10 -3 0 -8 5 -11 10 -3 6 -1 10 4 10 6 0 11 -4 11 -10z m-252 -30 c3 -8
-3 -10 -19 -5 -45 14 -54 23 -19 20 19 -1 36 -8 38 -15z m2197 -35 c-26 -9
-105 -12 -105 -4 0 5 26 9 58 8 31 0 53 -2 47 -4z m-1430 -41 c1 -13 -2 -24
-6 -24 -11 0 -21 38 -14 51 10 15 20 2 20 -27z m1310 26 c-3 -5 -15 -10 -26
-10 -11 0 -17 5 -14 10 3 6 15 10 26 10 11 0 17 -4 14 -10z m155 -24 c0 -22
-6 -36 -16 -40 -9 -3 -14 -12 -11 -19 2 -6 -2 -29 -9 -51 -17 -47 -17 -46 1
-46 8 0 12 -6 9 -13 -2 -7 9 -29 25 -48 17 -19 31 -40 31 -47 0 -8 15 -34 32
-59 32 -44 32 -45 13 -60 -19 -15 -19 -15 5 -8 31 9 23 1 -48 -49 -57 -40 -75
-43 -42 -9 13 15 16 23 7 26 -7 2 -13 15 -14 28 -1 13 -7 42 -13 64 -6 22 -12
46 -12 53 -1 6 -4 12 -8 12 -3 0 -6 16 -7 36 -1 20 -7 40 -14 44 -7 5 -13 17
-14 27 0 10 -4 24 -9 31 -5 8 -1 12 11 12 15 0 14 2 -5 16 -20 14 -21 17 -7
30 8 9 15 24 15 35 0 13 10 24 30 30 17 6 30 17 30 25 0 8 5 14 10 14 6 0 10
-15 10 -34z m-1865 -56 c3 -5 -3 -10 -14 -10 -12 0 -21 5 -21 10 0 6 6 10 14
10 8 0 18 -4 21 -10z m3048 -19 c23 -16 56 -42 72 -56 17 -15 69 -61 117 -103
189 -164 460 -500 499 -619 12 -36 4 -59 -12 -32 -5 9 -28 38 -51 64 -24 26
-50 57 -58 69 -8 12 -26 35 -41 51 -15 17 -66 75 -114 130 -49 55 -171 184
-273 287 -192 194 -202 205 -202 226 0 19 18 14 63 -17z m-2771 -36 c2 -11 -3
-20 -9 -20 -7 0 -13 3 -13 8 0 4 0 17 0 29 0 26 17 13 22 -17z m1151 -83 c-10
-14 -29 -32 -41 -40 -38 -25 -28 14 15 57 40 40 60 28 26 -17z m5017 27 c36
-6 74 -15 85 -19 11 -4 54 -14 95 -20 41 -7 81 -15 88 -17 20 -8 14 -32 -15
-59 -36 -33 -366 -198 -437 -219 -64 -19 -85 -11 -109 41 -9 17 -35 47 -58 65
-23 19 -73 63 -110 99 -56 53 -67 69 -63 88 7 26 18 28 134 37 47 4 110 10
140 15 60 9 150 5 250 -11z m-6033 -21 c-3 -7 -5 -2 -5 12 0 14 2 19 5 13 2
-7 2 -19 0 -25z m6904 10 c55 -60 84 -88 90 -88 16 0 59 -91 58 -122 0 -18 2
-45 6 -60 6 -24 3 -30 -24 -45 -17 -10 -31 -21 -31 -24 0 -3 18 -15 40 -28 43
-24 65 -54 56 -77 -4 -11 -27 -14 -94 -14 -86 0 -152 -13 -152 -30 0 -4 43
-10 96 -12 l96 -3 34 -40 c19 -21 33 -46 32 -55 -4 -22 -60 -24 -120 -4 -52
17 -88 21 -237 28 -78 3 -86 5 -103 30 -11 14 -27 26 -36 26 -10 0 -23 9 -30
20 -8 14 -22 20 -45 19 -33 -1 -107 21 -107 32 0 9 51 30 60 24 4 -3 16 -2 25
1 12 5 14 14 10 36 -5 23 -1 34 19 55 14 14 26 32 26 39 0 17 60 80 85 88 11
3 35 31 53 61 19 29 45 61 58 70 14 9 24 25 24 39 0 18 9 28 38 39 48 21 49
21 73 -5z m223 -73 c8 -8 21 -15 28 -15 8 0 19 -5 26 -12 7 -7 26 -17 44 -22
17 -6 40 -23 51 -38 17 -22 18 -30 7 -43 -19 -23 -57 -18 -76 10 -9 14 -24 25
-34 25 -9 0 -25 9 -35 20 -10 11 -26 20 -35 20 -9 0 -25 9 -35 20 -15 16 -15
22 -5 35 16 19 44 19 64 0z m-6193 -18 c-10 -9 -11 -8 -5 6 3 10 9 15 12 12 3
-3 0 -11 -7 -18z m6404 -140 c26 -20 12 -63 -28 -87 -63 -39 -80 -14 -37 54
32 50 37 53 65 33z m-5780 -24 c-4 -10 -10 -26 -12 -35 -3 -10 -9 -15 -14 -13
-4 3 -24 -1 -44 -9 -44 -19 -45 -9 -2 31 45 43 85 57 72 26z m3910 -35 c53
-11 119 -41 130 -58 3 -5 3 -25 0 -44 l-7 -34 -236 -1 c-308 -2 -523 -9 -864
-26 l-106 -6 -12 35 c-14 44 -6 75 23 80 12 3 108 7 212 10 168 5 410 29 560
56 58 10 227 4 300 -12z m1746 -14 c12 -14 11 -16 -5 -13 -11 2 -21 10 -24 17
-5 17 13 15 29 -4z m279 6 c0 -5 -4 -10 -10 -10 -5 0 -10 5 -10 10 0 6 5 10
10 10 6 0 10 -4 10 -10z m-5526 -57 c28 -15 63 -35 78 -45 14 -10 33 -18 42
-18 9 0 16 -6 16 -14 0 -7 10 -21 23 -30 15 -12 17 -16 5 -12 -36 11 -17 -23
29 -55 50 -35 51 -33 -18 -58 -20 -7 -28 -19 -33 -45 -4 -20 -10 -36 -15 -36
-4 0 -20 14 -37 31 -25 26 -35 30 -74 27 -48 -3 -52 2 -30 44 11 24 11 33 -5
68 -10 22 -16 43 -13 45 3 3 23 2 45 -3 70 -16 101 21 41 47 -29 13 -82 47
-112 73 -20 16 8 7 58 -19z m776 -3 c0 -5 -4 -10 -10 -10 -5 0 -10 5 -10 10 0
6 5 10 10 10 6 0 10 -4 10 -10z m-270 -10 c0 -5 -2 -10 -4 -10 -3 0 -8 5 -11
10 -3 6 -1 10 4 10 6 0 11 -4 11 -10z m2566 -109 c83 -10 136 -35 190 -90 22
-22 54 -43 70 -47 54 -12 102 -46 114 -78 23 -62 43 -94 61 -99 30 -8 22 -40
-17 -75 -49 -44 -50 -44 -49 -14 0 24 -4 27 -35 30 -62 4 -81 12 -111 45 -34
37 -39 34 -84 -50 -36 -68 -45 -72 -205 -79 -133 -7 -177 2 -238 47 -53 39
-77 86 -86 166 -6 55 -4 67 20 112 30 58 80 105 138 132 43 19 79 19 232 0z
m2351 -26 c7 -21 -25 -55 -52 -55 -21 0 -45 17 -45 31 0 33 85 54 97 24z m87
-70 c12 -29 29 -167 27 -225 0 -8 -1 -72 -1 -142 0 -149 -14 -201 -53 -196
-12 2 -34 14 -47 27 -14 12 -36 29 -50 38 -14 8 -37 31 -50 51 -13 21 -30 43
-39 49 -13 11 -13 15 1 30 19 23 31 80 17 89 -7 4 -6 10 1 19 7 9 7 21 0 39
-8 23 -13 25 -30 16 -16 -9 -22 -8 -27 6 -9 25 38 47 52 24 3 -5 25 -7 48 -4
33 5 48 2 66 -13 23 -19 24 -21 10 -66 -11 -38 -18 -47 -36 -47 -12 0 -25 -4
-28 -10 -3 -5 -1 -10 4 -10 6 0 11 -6 11 -14 0 -8 16 -24 35 -36 24 -15 38
-32 42 -51 11 -58 23 -27 22 59 -2 171 2 402 6 402 3 0 11 -16 19 -35z m-1034
-34 c0 -14 -18 -23 -30 -16 -6 4 -8 11 -5 16 8 12 35 12 35 0z m-3946 -145 c9
-6 36 5 88 37 96 60 108 60 92 1 -4 -16 -12 -21 -27 -18 -21 4 -21 4 1 -7 13
-7 21 -18 18 -24 -2 -7 -7 -36 -11 -67 l-7 -54 76 -79 c42 -43 76 -82 76 -86
0 -4 -46 -5 -102 -2 l-103 5 -40 -101 c-22 -55 -43 -101 -47 -101 -3 0 -21 44
-38 98 -18 53 -37 102 -44 109 -6 6 -58 19 -115 27 -96 14 -121 21 -110 29 2
2 41 32 86 66 l82 62 -14 47 c-8 26 -23 74 -35 106 -11 33 -20 65 -20 73 0 8
37 -12 90 -49 50 -35 96 -67 104 -72z m3866 54 c8 -16 8 -20 -3 -20 -18 0 -39
24 -30 33 11 12 22 8 33 -13z m1000 -15 c0 -16 -6 -25 -15 -25 -15 0 -21 31
-8 43 13 14 23 6 23 -18z m-5327 -69 c5 -36 2 -44 -21 -63 -23 -19 -25 -24
-12 -33 8 -5 20 -10 27 -10 15 0 28 -79 15 -92 -7 -7 3 -21 28 -44 63 -57 64
-129 3 -158 -33 -16 -37 -16 -67 2 -18 11 -32 28 -34 43 -2 13 -10 28 -18 32
-8 4 -14 23 -14 43 0 29 6 38 34 55 43 25 38 49 -10 49 -26 0 -32 -3 -28 -15
4 -10 0 -15 -14 -15 -19 0 -39 33 -33 54 1 5 -4 13 -11 17 -10 6 -9 11 4 21
15 11 16 19 6 58 -6 25 -16 48 -22 52 -8 5 -7 8 2 8 6 0 12 7 12 16 0 12 6 15
23 10 62 -18 80 -19 88 -4 16 29 37 16 42 -26z m4337 40 c0 -3 -4 -8 -10 -11
-5 -3 -10 -1 -10 4 0 6 5 11 10 11 6 0 10 -2 10 -4z m-230 -42 c0 -8 -9 -14
-21 -14 -11 0 -29 -5 -40 -10 -13 -8 -25 -7 -39 0 -30 16 -24 30 13 31 17 0
41 4 52 8 24 10 35 5 35 -15z m-3070 -55 c0 -5 5 -7 10 -4 6 3 10 1 10 -6 0
-7 3 -9 7 -6 3 4 12 -2 20 -13 8 -11 26 -20 41 -21 34 0 66 -40 76 -91 4 -21
4 -38 0 -38 -11 0 -88 64 -119 99 -16 19 -36 40 -42 47 -7 7 -13 17 -13 22 0
6 -6 13 -12 15 -8 3 -6 6 5 6 9 1 17 -4 17 -10z m4188 -21 c2 -20 -4 -30 -31
-47 -19 -11 -44 -21 -56 -21 -19 0 -20 2 -10 23 16 29 71 78 84 74 6 -2 11
-15 13 -29z m-4189 -25 c17 -15 31 -33 31 -40 0 -7 4 -13 9 -13 5 0 22 -18 38
-40 15 -22 35 -42 43 -45 13 -4 45 -55 34 -55 -4 0 -32 23 -68 55 -12 11 -25
29 -29 39 -4 11 -13 16 -22 12 -9 -3 -15 0 -15 10 0 8 -4 12 -10 9 -5 -3 -11
2 -11 12 -3 37 -17 -44 -18 -101 -1 -55 -2 -58 -23 -52 -13 3 -26 6 -30 6 -12
0 -9 50 2 50 20 0 9 28 -12 34 -36 9 -48 7 -48 -9 0 -8 -9 -15 -20 -15 -18 0
-20 7 -20 73 0 41 3 76 6 80 11 10 34 -5 34 -23 0 -12 10 -20 32 -24 36 -7 47
-1 30 16 -7 7 -12 23 -12 36 0 20 4 23 24 18 13 -3 38 -18 55 -33z m234 -194
c-6 -6 -15 -3 -24 7 -12 16 -12 17 4 11 12 -4 17 -1 18 11 1 15 2 14 6 -2 3
-10 1 -22 -4 -27z m-5263 17 c0 -3 -4 -8 -10 -11 -5 -3 -10 -1 -10 4 0 6 5 11
10 11 6 0 10 -2 10 -4z m4865 -106 c17 -26 25 -30 51 -25 41 7 46 -1 27 -41
-14 -28 -14 -40 -4 -75 7 -22 11 -43 9 -45 -3 -2 -18 2 -35 8 -28 11 -33 9
-56 -18 l-26 -29 -7 44 c-5 34 -14 47 -35 60 -34 19 -36 27 -10 41 36 19 51
41 51 76 0 42 9 43 35 4z m-741 -13 c14 -14 26 -42 30 -70 4 -26 12 -47 17
-47 5 0 7 11 3 25 -9 38 18 32 58 -13 20 -23 59 -49 100 -67 69 -31 88 -55 43
-55 -29 0 -30 -10 -15 -90 6 -29 8 -56 5 -58 -8 -8 -75 26 -75 38 0 5 5 10 11
10 15 0 6 73 -10 78 -10 3 -12 0 -8 -12 10 -25 -16 -30 -53 -11 -29 15 -37 43
-11 37 20 -4 36 45 23 73 -16 34 -29 32 -74 -12 -23 -23 -41 -33 -47 -28 -13
14 -30 105 -23 124 5 14 4 14 -11 2 -10 -8 -15 -21 -12 -32 10 -30 -13 -31
-46 -1 -32 29 -33 60 -2 47 17 -6 47 28 49 55 1 8 2 18 3 23 2 14 22 7 45 -16z
m596 -160 c0 -1 -9 -20 -19 -41 -19 -36 -19 -72 0 -60 5 3 9 -2 9 -10 0 -9
-16 -23 -37 -31 -40 -17 -52 -13 -33 10 10 12 10 18 -1 31 -24 29 -60 37 -80
18 -15 -14 -19 -14 -20 -3 -1 16 -17 -29 -18 -51 0 -11 3 -10 14 4 19 25 28
16 19 -18 -6 -25 -9 -26 -75 -26 -52 0 -69 3 -69 14 0 8 7 16 15 20 17 6 21
76 5 76 -5 0 -10 7 -10 16 0 13 13 15 83 14 61 -2 96 3 137 18 51 19 80 26 80
19z m-1976 -489 l26 -11 -23 -39 c-21 -39 -21 -40 -2 -54 10 -8 14 -14 8 -14
-6 0 -15 -17 -20 -37 -7 -30 -5 -41 9 -55 10 -10 29 -18 42 -18 14 0 32 -7 41
-16 17 -18 49 -11 43 9 -3 6 -14 13 -26 15 -43 6 -10 22 46 22 45 0 68 -7 110
-30 28 -17 52 -36 52 -43 0 -8 10 -23 23 -35 41 -38 81 -107 72 -122 -2 -4 4
-15 15 -25 11 -10 20 -26 20 -37 0 -10 7 -18 16 -18 9 0 14 -8 13 -17 -3 -35
1 -45 16 -39 9 3 15 0 15 -10 0 -10 6 -14 15 -10 11 4 15 -1 15 -19 0 -14 -4
-25 -10 -25 -5 0 -10 -9 -10 -20 0 -11 -4 -20 -10 -20 -5 0 -10 -7 -10 -15 0
-8 -11 -21 -23 -30 -13 -8 -39 -36 -57 -63 -19 -26 -37 -49 -40 -52 -3 -3 -21
-25 -40 -50 -64 -82 -129 -143 -146 -136 -12 4 -15 2 -10 -9 7 -18 -52 -105
-71 -105 -7 0 -13 -7 -13 -15 0 -9 -6 -12 -17 -8 -10 3 -3 -8 16 -26 36 -33
63 -43 40 -14 -12 14 -12 15 1 10 8 -4 23 -10 33 -13 9 -4 17 -14 17 -23 0 -9
6 -23 13 -30 10 -11 8 -11 -13 -1 -14 7 28 -38 93 -100 102 -97 185 -195 211
-250 7 -15 -2 -4 -67 74 -35 43 -127 132 -197 191 -25 21 -1 -6 53 -61 100
-101 161 -180 151 -195 -7 -12 -31 2 -80 48 -22 21 -74 67 -115 102 -41 35
-87 77 -104 93 -47 44 -142 119 -235 184 -91 65 -105 75 -190 130 -30 20 -57
40 -60 44 -3 4 -23 17 -45 29 -22 12 -53 30 -70 39 -16 10 -55 28 -85 39 -102
39 -133 39 -151 -1 -8 -17 -9 -14 -4 12 2 18 19 54 36 79 l32 46 52 -6 c31 -3
81 -20 123 -41 39 -20 77 -36 84 -35 10 0 10 2 0 6 -6 2 -10 9 -6 14 3 5 0 8
-7 7 -7 -2 -13 2 -14 9 0 6 -4 15 -9 20 -5 5 -6 3 -2 -4 16 -28 -14 -10 -74
45 -66 61 -68 71 -28 114 7 7 24 29 37 49 40 60 58 66 92 30 18 -20 29 -41 29
-60 0 -16 7 -34 15 -41 10 -8 13 -21 9 -37 -7 -26 18 -52 60 -63 11 -3 22 -12
24 -20 5 -13 3 -13 -12 -1 -21 18 -26 12 -15 -16 8 -23 29 -32 29 -13 0 6 9
10 20 10 11 0 20 -4 20 -10 0 -5 16 -24 35 -41 19 -18 35 -39 35 -46 0 -8 4
-12 8 -9 5 3 34 -14 65 -37 31 -23 78 -52 104 -65 26 -13 60 -30 76 -37 25
-13 57 -11 57 4 0 3 -47 35 -104 70 -134 82 -250 192 -320 303 -20 31 -69 85
-109 119 -75 65 -94 92 -58 82 12 -3 21 -1 21 5 0 18 83 91 103 92 17 0 17 1
2 16 -21 22 -12 47 39 100 22 24 55 63 72 86 17 24 50 69 73 101 45 61 70 71
125 45z m143 -184 c-3 -3 -12 -4 -19 -1 -8 3 -5 6 6 6 11 1 17 -2 13 -5z
m-110 -10 c-3 -3 -12 -4 -19 -1 -8 3 -5 6 6 6 11 1 17 -2 13 -5z m4539 -23 c4
-17 12 -32 20 -35 8 -3 14 -12 14 -19 0 -23 -31 -78 -41 -72 -5 4 -6 -1 -3 -9
7 -18 -7 -21 -22 -6 -8 8 -15 6 -24 -5 -13 -16 -60 -21 -60 -6 0 5 9 11 20 14
15 4 18 10 13 24 -7 17 -8 17 -11 1 -4 -22 -30 -24 -38 -4 -3 8 -12 12 -20 9
-18 -7 -18 2 2 32 9 14 22 25 29 25 7 0 16 6 18 13 4 9 8 9 15 -1 7 -11 10
-11 15 2 5 12 14 14 37 10 25 -6 30 -3 30 13 0 10 -5 24 -12 31 -9 9 -9 12 0
12 7 0 15 -13 18 -29z m-1519 -38 c-3 -14 1 -23 8 -23 17 0 25 -23 18 -49 -3
-12 -1 -21 6 -21 6 0 11 -13 11 -30 0 -20 -5 -30 -15 -30 -8 0 -23 -9 -32 -20
-10 -11 -28 -20 -40 -20 -13 0 -23 -6 -23 -15 0 -33 -23 -65 -47 -65 -19 0
-23 -4 -18 -19 7 -24 -7 -33 -40 -25 -27 7 -35 34 -10 34 8 0 15 7 15 15 0 10
10 15 33 15 26 1 29 2 15 11 -10 5 -18 16 -18 24 0 7 -9 17 -20 20 -24 7 -84
65 -100 94 -12 23 -13 81 -2 96 7 10 14 11 131 20 35 2 66 6 68 9 3 3 19 4 35
3 25 -2 29 -6 25 -24z m6953 -58 c16 -8 35 -12 43 -9 8 3 18 0 22 -6 6 -9 9
-9 15 0 13 21 90 32 145 20 82 -19 83 -20 47 -39 -32 -17 -57 -18 -214 -8 -53
3 -65 1 -61 -9 8 -23 -80 -18 -108 5 -23 19 -24 19 -5 40 23 25 74 28 116 6z
m380 5 c21 -13 22 -50 1 -50 -19 0 -44 36 -36 50 8 12 16 12 35 0z m-3796
-217 c27 -48 64 -107 82 -129 37 -46 80 -180 69 -214 -4 -14 6 -45 29 -91 34
-67 35 -72 24 -122 -6 -29 -11 -58 -11 -64 0 -7 -6 -13 -12 -13 -6 0 -25 -17
-41 -37 -50 -64 -88 -108 -102 -116 -7 -5 -20 -17 -30 -27 -19 -20 -127 -80
-146 -80 -11 0 -36 45 -36 66 0 6 -6 14 -13 17 -7 3 -19 23 -25 45 -7 22 -19
43 -28 46 -15 6 -15 8 0 31 15 23 15 25 -3 35 -11 5 -27 10 -36 10 -11 0 -15
5 -11 15 3 8 -2 18 -11 23 -16 9 -15 45 1 83 5 12 1 18 -17 23 -49 12 -47 116
4 170 28 30 38 56 20 56 -5 0 -14 -7 -21 -15 -17 -20 -30 -19 -30 3 0 18 10
39 68 144 17 31 36 65 41 75 28 51 60 124 66 152 3 17 18 40 33 51 l26 21 31
-35 c16 -19 52 -74 79 -123z m-3685 -84 c10 -12 33 -23 56 -26 47 -6 66 -20
46 -32 -8 -5 -10 -14 -6 -21 6 -10 0 -11 -27 -6 -23 4 -45 1 -63 -8 -16 -8
-33 -12 -39 -9 -6 4 -5 8 3 11 10 3 8 10 -9 22 -22 17 -22 17 -5 53 9 21 19
37 22 37 3 0 12 -9 22 -21z m45 -124 c-19 -14 -19 -14 1 -15 16 0 17 -2 5 -10
-12 -8 -12 -14 -1 -45 14 -41 8 -97 -13 -115 -8 -6 -45 -14 -83 -17 -56 -4
-71 -3 -82 11 -7 9 -22 16 -32 16 -12 0 -19 7 -19 19 0 10 -6 24 -14 30 -14
12 -15 60 -2 92 9 21 66 38 136 42 136 8 126 9 104 -8z m1997 -66 c90 -12 96
-14 108 -41 8 -17 20 -28 32 -28 16 0 19 -7 19 -40 0 -22 5 -40 10 -40 6 0 10
-17 10 -37 0 -32 7 -45 44 -80 25 -23 50 -58 57 -78 10 -26 19 -35 35 -35 13
0 31 -11 42 -25 11 -14 25 -25 31 -25 8 0 6 -10 -4 -30 -9 -16 -22 -30 -30
-30 -8 0 -15 -4 -15 -10 0 -5 5 -10 10 -10 6 0 10 -7 10 -15 0 -8 -4 -15 -9
-15 -5 0 -11 -10 -15 -23 -7 -28 -113 -181 -153 -219 -15 -16 -38 -28 -50 -28
-13 0 -23 -4 -23 -9 0 -12 -116 -4 -165 11 -68 20 -88 49 -92 125 -3 58 0 74
27 124 16 32 30 72 30 89 0 42 -43 84 -105 103 -28 9 -43 16 -35 16 10 1 7 6
-8 17 -12 8 -22 23 -22 33 0 9 -5 22 -11 28 -23 23 -12 262 12 248 5 -4 15 -3
22 2 6 4 18 8 26 10 8 1 19 9 24 18 10 18 9 18 188 -6z m-4218 -144 c7 -30 7
-30 -12 5 -10 19 -22 46 -26 60 -6 23 -5 22 13 -5 10 -16 22 -43 25 -60z m464
13 c-3 -8 -6 -5 -6 6 -1 11 2 17 5 13 3 -3 4 -12 1 -19z m2785 -38 c14 -10 28
-17 31 -13 3 3 13 -2 22 -11 9 -9 25 -16 34 -16 13 0 20 -10 25 -30 3 -18 12
-30 21 -30 9 0 14 -4 11 -8 -8 -13 23 -52 40 -52 8 0 14 -3 14 -7 1 -13 73
-86 120 -122 25 -19 54 -48 65 -65 18 -27 27 -31 65 -32 25 0 50 -2 55 -3 6
-2 18 -3 27 -2 10 1 28 -5 40 -13 12 -9 17 -16 9 -16 -8 0 2 -21 24 -51 34
-48 36 -53 27 -96 -15 -68 -1 -106 45 -122 45 -16 73 -38 73 -58 0 -8 7 -22
16 -30 9 -9 13 -25 10 -37 -4 -14 4 -30 23 -51 30 -31 61 -108 61 -150 0 -25
58 -95 79 -95 6 0 11 -7 11 -15 0 -8 9 -15 20 -15 11 0 20 4 20 9 0 5 9 7 20
4 11 -3 20 -11 20 -18 0 -8 9 -17 20 -20 11 -3 20 -13 20 -21 0 -8 8 -14 19
-14 38 0 36 -97 -3 -104 -71 -15 -75 -17 -70 -31 4 -9 1 -15 -7 -15 -18 1 -49
24 -49 37 0 5 -6 10 -12 10 -7 1 -38 3 -68 6 -30 4 -47 4 -37 1 22 -7 22 -35
-1 -41 -14 -3 -17 -12 -14 -34 3 -22 0 -29 -12 -29 -21 0 -20 -16 3 -49 24
-34 37 -81 24 -90 -15 -9 -65 -159 -58 -171 4 -6 1 -17 -5 -25 -7 -8 -9 -15
-4 -16 5 -1 -22 -7 -61 -14 -38 -8 -83 -17 -98 -21 -31 -7 -107 22 -107 43 0
15 -37 22 -128 25 -40 1 -76 6 -78 10 -3 4 -16 8 -28 8 -13 0 -29 7 -36 15 -7
8 -18 15 -25 15 -29 0 -34 25 -25 148 7 106 12 130 39 186 39 79 132 167 219
207 38 18 51 36 36 51 -3 4 -7 47 -10 98 -4 81 -2 95 16 117 31 39 26 60 -17
73 -21 7 -53 28 -72 48 -27 29 -40 36 -70 35 -38 -1 -73 13 -106 44 -36 32
-74 53 -99 53 -45 0 -72 17 -148 94 -41 42 -82 76 -92 76 -9 0 -16 4 -16 10 0
5 -12 13 -26 16 -15 4 -23 12 -20 20 3 7 -2 18 -10 25 -12 10 -12 14 -2 20 10
7 9 9 -4 9 -11 0 -18 8 -18 19 0 10 -7 32 -15 47 -8 16 -15 38 -15 50 0 11 -3
24 -7 27 -14 14 -11 62 4 79 10 11 12 18 5 18 -24 0 -11 21 31 47 23 16 47 33
52 39 34 38 117 46 157 14z m5433 -40 c9 0 19 -9 22 -20 3 -11 10 -20 15 -20
6 0 8 -7 5 -15 -4 -8 -2 -17 3 -20 9 -6 7 -80 -5 -145 -6 -30 -2 -40 24 -69
17 -19 31 -39 31 -44 0 -5 15 -30 33 -56 43 -60 51 -105 26 -156 -10 -22 -18
-46 -19 -53 0 -26 -76 -111 -115 -130 -45 -22 -63 -49 -68 -102 -2 -19 -8 -44
-14 -55 -6 -11 -13 -39 -16 -62 -4 -33 -1 -46 16 -64 17 -18 21 -37 23 -91 1
-38 4 -71 8 -75 5 -6 -30 -60 -60 -90 -7 -7 -14 -18 -16 -25 -3 -7 -21 -13
-44 -13 -48 1 -134 55 -134 85 0 11 -5 20 -10 20 -6 0 -13 7 -17 16 -4 10 6
26 28 45 22 18 34 38 35 56 1 23 6 29 33 34 44 9 64 29 30 29 -23 0 -24 3 -21
40 3 30 1 40 -11 40 -15 0 -27 40 -27 93 0 32 -24 67 -45 67 -11 0 -48 62 -50
80 0 3 -10 16 -22 30 -13 13 -23 32 -23 42 0 21 -32 38 -38 20 -6 -20 -22 -13
-22 9 0 17 -4 20 -22 14 -26 -7 -53 -13 -83 -17 -17 -3 -19 2 -17 27 7 64 204
496 210 462 4 -21 7 -21 40 2 116 80 204 131 225 131 14 0 29 5 33 12 5 8 13
5 25 -10 9 -12 25 -22 34 -22z m810 -57 c37 -5 74 -35 67 -55 -1 -5 3 -8 9 -8
6 0 7 -6 2 -12 -4 -7 -8 -30 -9 -51 -1 -21 -8 -44 -14 -52 -7 -8 -10 -34 -8
-60 4 -53 -10 -62 -66 -47 -24 7 -36 7 -39 -1 -5 -17 -27 2 -27 24 0 19 -1 19
-25 2 -13 -10 -25 -27 -25 -38 -1 -38 -26 -58 -62 -51 -18 4 -43 7 -56 8 -24
0 -28 6 -52 81 -9 29 -9 41 0 52 6 8 11 22 10 32 -4 37 0 64 9 58 5 -3 16 3
23 14 7 10 22 21 33 24 18 4 18 5 -2 6 -12 0 -25 6 -29 13 -11 18 26 38 68 36
21 -1 44 4 50 10 7 7 22 12 35 12 13 0 23 5 23 11 0 7 8 9 23 4 12 -4 40 -10
62 -12z m-7927 -38 c22 -5 37 -16 47 -36 9 -16 22 -29 30 -29 8 0 15 -4 15 -9
0 -4 14 -22 30 -39 17 -18 30 -36 30 -41 0 -5 9 -13 20 -16 23 -7 27 -45 5
-45 -9 0 -20 -11 -25 -25 -5 -14 -17 -28 -25 -31 -8 -4 -15 -12 -15 -20 0 -8
-6 -14 -13 -14 -7 0 -32 -9 -55 -20 -39 -19 -44 -19 -72 -5 -22 11 -30 23 -30
43 0 34 -9 47 -38 56 -13 5 -21 14 -20 24 2 9 -8 21 -22 28 -28 15 -45 53 -30
68 5 5 10 18 10 28 0 10 7 18 15 18 18 0 20 20 3 21 -7 0 -1 6 13 12 14 7 34
20 43 30 10 10 26 16 35 13 9 -2 31 -7 49 -11z m-3039 -91 c24 -43 72 -123
107 -176 35 -53 64 -102 64 -108 0 -5 5 -10 10 -10 6 0 10 -8 10 -19 0 -54
215 -296 335 -378 39 -26 42 -43 5 -23 -107 57 -318 249 -445 404 -22 27 -51
60 -63 75 -58 64 -132 205 -132 249 0 7 9 20 20 29 11 10 20 24 20 31 0 31 27
1 69 -74z m11071 30 c0 -8 -4 -12 -10 -9 -5 3 -10 10 -10 16 0 5 5 9 10 9 6 0
10 -7 10 -16z m-4935 -54 c3 -5 -1 -10 -9 -10 -9 0 -16 5 -16 10 0 6 4 10 9
10 6 0 13 -4 16 -10z m55 -77 c0 -7 6 -13 13 -13 8 0 7 -4 -3 -10 -12 -8 -13
-13 -3 -29 7 -11 9 -22 4 -25 -4 -3 -17 10 -27 29 -10 19 -21 35 -25 35 -9 0
-19 41 -13 52 7 11 53 -23 54 -39z m-2655 -42 c7 -12 -12 -24 -25 -16 -11 7
-4 25 10 25 5 0 11 -4 15 -9z m35 -11 c0 -5 -4 -10 -10 -10 -5 0 -10 5 -10 10
0 6 5 10 10 10 6 0 10 -4 10 -10z m2664 -160 c17 0 38 -46 41 -88 1 -18 7 -38
13 -44 7 -7 12 -19 12 -28 0 -10 7 -31 16 -49 9 -18 14 -41 11 -52 -3 -12 0
-19 9 -19 16 0 20 -36 5 -42 -14 -4 6 -214 25 -258 26 -64 52 -254 35 -262
-13 -6 -51 -68 -51 -83 0 -8 -8 -15 -18 -15 -17 0 -44 -39 -46 -64 -1 -10 -38
-24 -96 -35 -31 -6 -35 -10 -38 -42 -4 -47 19 -67 83 -71 36 -2 51 -7 53 -19
5 -26 -23 -29 -68 -7 -39 20 -43 20 -92 4 -87 -28 -181 -16 -217 27 -7 10 -15
47 -16 88 -3 59 1 85 25 149 20 54 28 96 29 140 0 35 5 68 10 73 6 6 11 17 11
25 0 7 16 46 36 85 37 76 125 304 142 372 6 22 16 74 22 115 11 72 39 139 48
112 2 -6 9 -12 16 -12z m156 -55 c0 -28 -3 -29 -31 -15 -31 17 -22 32 24 39 4
0 7 -10 7 -24z m-7720 -80 c0 -8 9 -15 20 -15 11 0 20 -4 20 -10 0 -16 -32
-11 -46 8 -16 21 -17 32 -4 32 6 0 10 -7 10 -15z m7789 -107 c26 -45 56 -133
56 -162 0 -28 -29 -42 -62 -30 -27 9 -40 27 -66 94 -8 19 -19 48 -26 63 -15
37 -14 40 8 64 28 30 62 19 90 -29z m4361 -179 c0 -5 -10 -9 -22 -10 -13 0
-17 -3 -10 -6 6 -2 12 -17 12 -33 0 -30 -12 -44 -47 -54 -28 -9 -44 31 -19 49
8 7 17 21 19 31 1 10 6 24 10 30 7 13 57 6 57 -7z m-12061 -51 c1 -27 -16 -21
-23 7 -8 33 4 57 15 29 4 -10 8 -27 8 -36z m2271 -18 c0 -5 -5 -10 -11 -10 -5
0 -7 5 -4 10 3 6 8 10 11 10 2 0 4 -4 4 -10z m2587 -50 c15 -14 23 -16 27 -7
3 9 7 9 13 1 4 -7 17 -13 28 -15 11 -3 27 -18 35 -35 14 -28 21 -38 58 -79 6
-7 12 -20 12 -27 1 -18 25 -48 38 -48 6 0 16 -9 22 -20 6 -11 15 -18 20 -15 6
3 7 -1 4 -9 -5 -13 3 -16 43 -16 42 0 54 -5 82 -32 18 -17 39 -44 47 -60 18
-34 31 -124 17 -115 -5 3 -22 -8 -37 -24 -24 -25 -27 -36 -23 -64 3 -19 2 -37
-3 -40 -4 -3 -6 -13 -3 -23 2 -10 -3 -24 -11 -31 -9 -8 -16 -20 -16 -27 0 -8
-5 -14 -11 -14 -11 0 -10 -10 7 -91 7 -32 -37 -73 -98 -89 -45 -13 -41 -11
-151 -65 -52 -26 -88 -52 -112 -81 -26 -32 -48 -47 -88 -59 -28 -9 -60 -20
-69 -26 -53 -28 -154 7 -225 80 -44 45 -51 64 -45 124 4 41 7 47 28 47 12 0
49 7 81 16 32 9 76 17 98 19 59 4 114 21 146 44 16 12 33 21 38 21 6 0 15 8
20 18 5 10 42 34 83 54 82 42 92 51 131 127 29 54 30 81 2 81 -8 0 -15 5 -15
10 0 6 -6 10 -14 10 -8 0 -16 7 -20 15 -3 8 -14 15 -25 15 -11 0 -21 6 -24 13
-3 9 -9 9 -26 -1 -12 -7 -56 -18 -99 -24 -66 -10 -105 -11 -226 -8 -25 1 -54
17 -80 44 -12 12 -33 29 -47 38 -15 10 -33 31 -40 48 -10 22 -19 30 -33 26
-12 -3 -20 2 -23 15 -6 22 -14 24 -31 7 -9 -9 -15 -3 -27 25 -26 64 -24 77 18
99 20 11 37 25 37 31 0 7 5 28 10 47 8 29 18 39 47 50 21 8 42 13 47 11 25 -7
169 -1 179 8 16 12 50 18 123 20 47 1 65 -3 81 -19z m-2783 -46 c9 -8 16 -25
16 -37 0 -33 59 -312 82 -389 11 -38 24 -68 29 -68 5 0 9 4 9 9 0 26 87 47
295 71 44 5 94 11 110 14 61 9 217 9 223 0 4 -5 24 -18 46 -29 44 -23 124
-107 147 -156 64 -133 84 -282 55 -414 -8 -38 -13 -83 -10 -100 6 -41 12 -364
7 -384 -2 -9 -25 -28 -51 -42 -51 -28 -50 -28 -232 -7 -63 7 -159 13 -212 13
-115 0 -109 -8 -103 138 4 88 2 103 -19 145 -20 39 -93 218 -127 312 -11 30
-91 120 -106 120 -6 0 -4 -37 8 -102 18 -107 15 -154 -14 -248 -8 -25 -18 -73
-22 -107 -7 -60 -6 -63 15 -63 19 0 21 -4 15 -27 -14 -57 -60 -85 -97 -59 -12
9 -41 16 -64 16 l-41 0 -7 73 c-4 39 -9 93 -10 118 -5 71 -14 91 -37 84 -11
-4 -19 -2 -19 4 0 10 21 16 43 12 20 -3 3 16 -23 26 -20 7 -30 18 -30 31 0 35
-11 52 -35 52 -29 0 -47 21 -35 40 16 25 12 47 -4 25 -16 -22 -41 -15 -49 14
-4 18 -1 19 24 14 23 -4 29 -2 29 11 0 10 -11 19 -28 22 -15 3 -32 15 -37 27
-6 12 -14 21 -20 19 -15 -4 -6 -61 17 -112 11 -25 25 -55 29 -67 5 -13 13 -33
18 -45 29 -69 36 -101 24 -105 -7 -3 -13 -11 -13 -19 0 -8 -9 -14 -20 -14 -11
0 -20 -7 -20 -15 0 -8 -5 -15 -11 -15 -7 0 -10 -15 -8 -38 l4 -37 -37 18 c-20
10 -42 25 -49 33 -6 8 -20 14 -30 14 -25 0 -51 29 -46 51 3 12 -2 20 -14 24
-13 5 -19 16 -19 38 -1 39 -15 59 -57 81 -20 10 -33 24 -33 36 0 10 -4 22 -10
25 -5 3 -10 17 -10 29 0 13 -11 35 -24 49 -21 23 -22 28 -9 39 13 10 13 13 -3
25 -13 10 -14 13 -3 13 12 1 12 3 -1 13 -23 18 -13 86 11 72 5 -3 6 0 3 8 -3
8 11 34 30 58 19 24 64 85 99 134 36 50 89 118 120 152 30 34 77 94 104 135
64 94 159 229 173 246 15 17 45 15 64 -4z m-843 -110 c12 -14 11 -16 -5 -13
-11 2 -21 10 -24 17 -5 17 13 15 29 -4z m6626 -79 c19 -4 24 -11 20 -26 -3
-11 2 -24 12 -32 23 -16 33 -57 18 -75 -6 -8 -16 -24 -22 -36 -6 -11 -21 -22
-33 -24 -12 -2 -22 -10 -22 -18 0 -8 -3 -14 -6 -14 -9 0 -74 72 -74 82 0 5
-10 12 -22 17 l-23 8 23 7 c24 8 31 36 8 36 -17 0 -9 39 9 46 7 3 11 14 8 25
-4 14 0 19 13 19 11 0 28 7 39 16 18 14 20 13 23 -5 2 -11 14 -22 29 -26z
m2433 -18 c0 -42 -30 -107 -50 -107 -14 0 -12 83 3 111 32 62 47 61 47 -4z
m-10000 -77 c0 -23 -10 -26 -28 -8 -18 18 -15 28 8 28 13 0 20 -7 20 -20z
m347 -22 c-3 -8 -6 -5 -6 6 -1 11 2 17 5 13 3 -3 4 -12 1 -19z m9955 -45 c29
-26 21 -52 -34 -108 -47 -46 -144 -113 -173 -120 -36 -8 -45 -19 -45 -57 0
-21 -5 -70 -11 -108 -10 -61 -16 -72 -49 -99 -20 -16 -52 -31 -70 -33 -29 -3
-34 0 -43 27 -12 38 -17 135 -7 135 4 0 10 14 14 30 3 18 12 30 21 30 8 0 15
9 15 20 0 11 4 20 8 20 11 0 32 46 32 70 0 11 4 20 9 20 15 0 34 58 29 90 -5
31 2 36 47 31 21 -2 155 58 155 70 0 13 83 -1 102 -18z m-10122 7 c0 -5 -4
-10 -10 -10 -5 0 -10 5 -10 10 0 6 5 10 10 10 6 0 10 -4 10 -10z m3415 -52
c18 -18 56 -37 97 -49 42 -13 68 -26 68 -35 0 -20 18 -17 24 4 4 13 4 13 3 -3
0 -11 4 -30 11 -42 6 -12 13 -32 15 -45 3 -14 12 -24 25 -26 12 -2 22 -7 22
-12 0 -5 11 -4 25 2 14 6 25 15 25 20 0 16 25 3 57 -31 34 -35 34 -49 -4 -93
-8 -9 -12 -21 -9 -26 4 -6 -15 -10 -49 -9 -31 1 -55 7 -55 13 0 36 -55 36 -71
0 -5 -11 -20 -40 -33 -63 -23 -41 -41 -91 -37 -106 1 -5 -12 -33 -29 -64 -38
-69 -61 -193 -59 -312 2 -107 -8 -174 -33 -228 -16 -34 -31 -48 -73 -68 -51
-25 -58 -26 -162 -19 -97 6 -117 11 -190 46 -46 21 -83 40 -83 41 0 1 -9 26
-20 56 -12 33 -16 60 -11 70 5 9 9 43 10 75 1 32 4 63 7 68 8 13 7 264 -1 413
-6 107 -5 125 13 167 12 27 29 49 41 53 12 3 21 10 21 15 0 4 8 10 18 14 24 8
104 56 120 73 7 7 19 13 26 13 45 0 181 83 172 106 -8 20 6 25 49 18 24 -4 52
-18 70 -36z m249 -5 c-17 -18 -29 -11 -21 11 4 9 13 13 21 10 14 -5 14 -8 0
-21z m6898 -60 c19 -23 42 -108 34 -122 -4 -6 -9 -21 -11 -33 -3 -13 -9 -24
-15 -26 -5 -2 -10 -10 -10 -18 0 -8 -4 -14 -10 -14 -5 0 -14 -17 -20 -37 -14
-54 -20 -60 -65 -67 -36 -6 -44 -4 -76 26 -20 18 -41 43 -47 55 -20 37 -32 74
-23 69 5 -4 21 7 34 24 14 16 30 30 36 30 6 0 11 7 11 15 0 15 12 34 35 55 70
65 99 75 127 43z m710 -85 c8 -7 23 -34 33 -61 17 -44 17 -49 1 -65 -9 -10
-16 -23 -16 -29 0 -5 -11 -16 -25 -23 -14 -7 -25 -19 -25 -26 0 -14 -47 -51
-71 -56 -8 -2 -17 -7 -21 -13 -5 -6 -8 -5 -8 3 0 6 -5 12 -11 12 -5 0 -7 -4
-4 -10 11 -17 -29 3 -43 22 -7 10 -19 18 -25 18 -7 0 -19 10 -27 21 -8 12 -21
27 -27 35 -16 15 -17 44 -3 44 6 0 8 10 5 23 -9 36 33 65 111 77 37 6 79 17
93 25 33 18 43 18 63 3z m-7549 -214 c-3 -15 -20 -15 -26 0 -4 9 0 13 11 12 9
-2 16 -7 15 -12z m2956 -9 c11 -14 30 -28 43 -30 13 -3 32 -9 43 -14 11 -5 40
-15 65 -22 25 -7 51 -21 58 -31 7 -10 18 -18 23 -18 17 0 149 -135 149 -152 0
-8 -18 -28 -40 -43 -39 -27 -41 -27 -61 -10 -33 30 -88 45 -194 52 -102 6
-155 22 -155 47 0 8 -5 16 -12 18 -7 3 -13 37 -16 90 l-4 85 31 19 c17 10 31
22 31 26 0 16 19 7 39 -17z m-7841 -35 c-1 -16 -6 -30 -11 -30 -5 0 -6 7 -3
16 3 9 6 22 6 30 0 8 2 14 5 14 3 0 4 -13 3 -30z m-62 -247 c-11 -11 -17 4 -9
23 7 18 8 18 11 1 2 -10 1 -21 -2 -24z m10935 -62 c18 -14 25 -30 26 -59 1
-22 9 -66 19 -99 9 -32 19 -83 21 -114 4 -49 1 -59 -21 -86 -17 -20 -26 -43
-26 -65 0 -32 -14 -58 -32 -58 -4 0 -8 6 -8 13 0 18 -29 44 -54 48 -33 7 -43
35 -21 59 19 21 19 21 35 1 14 -19 70 -40 70 -27 0 21 -50 96 -72 109 -16 9
-28 23 -28 32 0 9 -7 29 -15 46 -9 16 -12 35 -8 42 4 6 6 26 4 44 -2 25 4 38
25 57 24 20 26 26 15 39 -30 37 28 51 70 18z m-2776 -37 c52 -7 65 -17 65 -46
0 -14 -9 -17 -47 -16 -27 1 -52 5 -58 9 -8 6 -86 17 -132 19 -20 0 -15 38 5
43 20 5 94 1 167 -9z m-5416 -41 c-1 -43 -2 -45 -9 -18 -11 44 -11 65 0 65 6
0 9 -21 9 -47z m-2824 16 c-4 -5 -3 -15 2 -21 4 -7 8 -19 10 -27 1 -8 9 -18
17 -23 19 -11 21 -34 4 -41 -7 -3 -3 -6 9 -6 20 -1 21 -4 13 -27 -13 -33 -13
-33 10 -27 11 3 20 0 20 -6 0 -6 -4 -11 -10 -11 -5 0 -10 -6 -10 -14 0 -29
-63 -28 -74 1 -4 10 -14 13 -29 9 -18 -4 -25 1 -36 24 -7 18 -10 42 -6 61 9
40 65 130 77 123 4 -3 6 -10 3 -15z m5347 -80 c9 -5 25 -9 35 -9 41 0 223
-161 223 -198 0 -7 7 -15 15 -18 8 -4 15 -12 15 -19 0 -7 11 -29 25 -49 18
-27 25 -50 25 -86 0 -48 -1 -50 -37 -66 -75 -31 -144 -38 -214 -21 -207 50
-233 59 -273 93 -22 19 -43 34 -46 34 -13 0 -64 84 -68 110 -7 48 -4 112 4
119 5 3 15 18 23 33 14 28 92 75 146 89 33 8 100 2 127 -12z m-2765 -45 c-3
-3 -12 -4 -19 -1 -8 3 -5 6 6 6 11 1 17 -2 13 -5z m240 -66 c-3 -8 -6 -5 -6 6
-1 11 2 17 5 13 3 -3 4 -12 1 -19z m319 -263 c-4 -26 -17 -30 -32 -11 -10 14
-11 23 -3 33 14 16 38 0 35 -22z m7764 -119 c33 -10 45 -18 45 -32 0 -22 -29
-23 -87 -2 -38 13 -49 32 -25 41 18 8 18 8 67 -7z m-60 -86 c0 -5 -4 -10 -10
-10 -5 0 -10 5 -10 10 0 6 5 10 10 10 6 0 10 -4 10 -10z m-4005 -30 c-3 -5 -1
-10 4 -10 6 0 11 5 11 10 0 6 9 10 20 10 11 0 20 -6 20 -12 0 -9 4 -8 10 2 11
17 13 10 4 -14 -3 -9 -12 -16 -20 -16 -7 0 -17 -7 -22 -15 -13 -25 -42 -7 -42
26 0 16 5 29 11 29 5 0 7 -4 4 -10z m4046 -9 c13 -12 17 -21 10 -26 -14 -8
-28 1 -41 26 -14 25 4 26 31 0z m-3536 -45 c6 -7 18 -15 29 -19 13 -5 15 -11
9 -20 -15 -18 -23 -57 -12 -57 5 0 9 12 9 26 0 14 4 23 10 19 6 -3 10 -15 10
-26 0 -12 7 -19 20 -19 11 0 20 7 20 15 0 8 5 15 10 15 20 0 9 -30 -12 -34
-54 -9 -92 -5 -103 11 -8 11 -28 17 -64 17 -52 1 -70 19 -30 29 15 4 20 11 15
22 -3 9 -2 13 4 10 5 -3 15 3 21 13 13 21 46 19 64 -2z m-227 -63 c-10 -2 -28
-2 -40 0 -13 2 -5 4 17 4 22 1 32 -1 23 -4z m3597 -155 c-4 -17 -17 -51 -30
-75 -24 -47 -25 -47 -45 18 -6 20 -3 30 10 42 17 15 19 14 23 -6 3 -19 6 -17
20 16 21 45 31 48 22 5z m-2261 -15 c5 -11 1 -22 -10 -30 -22 -16 -28 -10 -20
22 7 29 21 33 30 8z m-4114 -43 c0 -23 -4 -30 -20 -30 -24 0 -26 13 -5 30 13
11 13 15 3 21 -10 7 -9 9 5 9 12 0 17 -8 17 -30z m223 13 c-13 -2 -33 -2 -45
0 -13 2 -3 4 22 4 25 0 35 -2 23 -4z m-373 -163 c0 -5 -2 -10 -4 -10 -3 0 -8
5 -11 10 -3 6 -1 10 4 10 6 0 11 -4 11 -10z"/>
<path d="M4140 8984 c0 -8 5 -12 10 -9 6 3 10 10 10 16 0 5 -4 9 -10 9 -5 0
-10 -7 -10 -16z"/>
<path d="M6400 8440 c0 -5 5 -10 10 -10 6 0 10 5 10 10 0 6 -4 10 -10 10 -5 0
-10 -4 -10 -10z"/>
<path d="M6698 8343 c7 -3 16 -2 19 1 4 3 -2 6 -13 5 -11 0 -14 -3 -6 -6z"/>
<path d="M7906 7751 c-4 -7 -5 -15 -2 -18 9 -9 19 4 14 18 -4 11 -6 11 -12 0z"/>
<path d="M3680 8186 c-13 -15 -30 -25 -38 -24 -11 2 -16 -8 -18 -40 -2 -36 2
-45 22 -59 41 -27 100 8 121 72 13 39 7 54 -18 48 -12 -3 -25 1 -32 11 -11 16
-15 15 -37 -8z"/>
<path d="M3517 7877 c-4 -10 -7 -28 -7 -40 1 -20 2 -20 11 -4 6 10 9 28 7 40
-3 20 -4 20 -11 4z"/>
<path d="M3681 7434 c0 -11 3 -14 6 -6 3 7 2 16 -1 19 -3 4 -6 -2 -5 -13z"/>
<path d="M5177 7033 c-4 -3 -7 -12 -7 -19 0 -16 106 -88 143 -98 30 -7 127 2
127 13 0 15 -183 91 -217 91 -13 0 -23 5 -23 10 0 11 -13 13 -23 3z"/>
<path d="M5475 6921 c-4 -7 7 -11 29 -11 26 0 40 -6 51 -24 17 -26 77 -41 103
-27 12 7 7 14 -24 33 -43 28 -148 46 -159 29z"/>
<path d="M5340 7640 c0 -5 5 -10 10 -10 6 0 10 5 10 10 0 6 -4 10 -10 10 -5 0
-10 -4 -10 -10z"/>
<path d="M5327 5947 c-3 -9 -13 -17 -20 -17 -9 0 -14 -11 -13 -32 1 -40 26
-51 26 -11 0 16 5 34 11 40 6 6 9 17 7 24 -3 9 -6 8 -11 -4z"/>
<path d="M5097 5879 c7 -7 15 -10 18 -7 3 3 -2 9 -12 12 -14 6 -15 5 -6 -5z"/>
<path d="M5405 5858 c-8 -22 0 -71 12 -75 7 -3 10 3 7 14 -2 10 0 24 5 32 8
12 12 13 25 1 9 -7 19 -10 22 -8 6 7 -44 48 -58 48 -5 0 -11 -6 -13 -12z"/>
<path d="M5657 5609 c4 -13 8 -18 11 -10 2 7 -1 18 -6 23 -8 8 -9 4 -5 -13z"/>
<path d="M5600 5604 c0 -12 7 -27 15 -34 19 -16 19 -3 0 30 -13 24 -14 24 -15
4z"/>
<path d="M4742 5233 c-10 -4 -10 -8 -1 -19 10 -12 9 -13 -5 -8 -14 6 -16 2
-10 -22 9 -39 10 -39 39 -20 33 21 41 42 25 61 -13 15 -25 17 -48 8z"/>
<path d="M5420 4900 c0 -5 5 -10 10 -10 6 0 10 5 10 10 0 6 -4 10 -10 10 -5 0
-10 -4 -10 -10z"/>
<path d="M5260 4870 c0 -5 5 -10 10 -10 6 0 10 5 10 10 0 6 -4 10 -10 10 -5 0
-10 -4 -10 -10z"/>
<path d="M5250 4810 c0 -5 5 -10 10 -10 6 0 10 5 10 10 0 6 -4 10 -10 10 -5 0
-10 -4 -10 -10z"/>
<path d="M3475 4220 c-4 -7 -1 -16 6 -21 23 -14 32 -10 18 9 -7 9 -14 18 -15
20 -1 2 -5 -2 -9 -8z"/>
<path d="M3237 4050 c15 -28 36 -53 45 -56 9 -2 20 -18 23 -34 6 -28 36 -65
81 -101 10 -8 38 -37 61 -65 23 -27 45 -45 49 -41 6 6 -13 37 -112 176 -12 17
-24 27 -28 24 -3 -4 -6 0 -6 8 0 20 -108 139 -126 139 -12 0 -8 -12 13 -50z"/>
<path d="M3439 3689 c23 -21 58 -43 76 -49 19 -6 54 -22 77 -35 92 -52 120
-66 123 -63 10 10 -61 90 -118 133 -64 48 -69 50 -134 51 l-67 1 43 -38z"/>
<path d="M3272 1863 c-36 -5 -55 -32 -67 -97 l-8 -38 39 21 c22 12 58 26 80
31 55 13 64 38 27 67 -15 13 -30 22 -33 21 -3 -1 -20 -3 -38 -5z"/>
<path d="M3320 1618 c0 -19 18 -43 25 -36 9 9 -4 48 -16 48 -5 0 -9 -6 -9 -12z"/>
<path d="M3372 1583 c-15 -6 -6 -23 14 -23 8 0 14 7 14 15 0 15 -6 17 -28 8z"/>
<path d="M3456 1534 c-5 -14 -4 -15 9 -4 17 14 19 20 6 20 -5 0 -12 -7 -15
-16z"/>
<path d="M8000 419 c0 -5 5 -7 10 -4 6 3 10 8 10 11 0 2 -4 4 -10 4 -5 0 -10
-5 -10 -11z"/>
<path d="M11130 9043 c-30 -8 -102 -16 -160 -17 -97 -2 -105 -3 -105 -21 0
-33 57 -45 124 -28 97 24 211 64 211 74 0 11 0 11 -70 -8z"/>
<path d="M10580 9024 c0 -20 96 -74 130 -74 17 0 21 5 18 27 -2 22 -9 28 -38
34 -67 13 -110 18 -110 13z"/>
<path d="M11057 8876 c-15 -12 -9 -17 61 -45 91 -36 92 -36 92 -16 0 8 -4 15
-10 15 -5 0 -7 6 -5 13 8 19 -43 39 -68 25 -16 -8 -23 -7 -32 6 -14 19 -15 19
-38 2z"/>
<path d="M11429 8846 c13 -16 54 -29 45 -15 -3 5 -12 9 -20 9 -8 0 -14 5 -14
10 0 6 -5 10 -11 10 -8 0 -8 -4 0 -14z"/>
<path d="M11500 8810 c0 -5 19 -22 43 -36 23 -15 57 -40 75 -56 l33 -28 -56 6
c-47 6 -55 4 -50 -8 10 -26 67 -47 187 -68 84 -15 102 -10 87 24 -11 24 -160
106 -192 106 -8 0 -38 16 -67 35 -57 38 -60 40 -60 25z"/>
<path d="M970 7828 c0 -13 -4 -18 -8 -12 -4 6 -68 10 -167 11 -88 1 -192 2
-232 4 -41 1 -77 -2 -85 -8 -7 -7 -19 -32 -27 -57 -15 -53 6 -46 -258 -78
l-193 -22 0 -470 0 -470 33 31 c138 129 310 253 401 289 37 14 74 44 145 117
53 54 135 130 183 168 77 62 148 146 148 177 0 5 4 12 10 14 8 3 23 56 34 123
1 11 8 30 14 42 17 31 28 163 13 163 -6 0 -11 -10 -11 -22z"/>
<path d="M11979 6629 c-9 -13 -19 -37 -23 -53 -7 -27 -91 -126 -107 -126 -5 0
-19 -11 -32 -23 -15 -16 -40 -26 -77 -31 -83 -11 -150 -27 -150 -35 0 -20 48
-54 190 -136 227 -130 228 -130 234 -124 3 3 11 30 17 60 13 64 22 101 45 189
9 36 17 86 18 113 0 26 4 47 8 47 5 0 8 6 8 14 0 8 6 16 14 19 18 7 9 47 -10
47 -8 0 -14 4 -14 10 0 13 -70 42 -86 36 -7 -3 -14 0 -16 6 -2 6 -11 0 -19
-13z"/>
<path d="M1695 6520 c-4 -6 3 -10 14 -10 25 0 27 6 6 13 -8 4 -17 2 -20 -3z"/>
<path d="M12560 6440 c0 -5 6 -10 14 -10 8 0 16 -5 18 -12 3 -7 12 -9 24 -4
17 7 15 9 -15 22 -40 17 -41 17 -41 4z"/>
<path d="M2350 6320 c0 -5 5 -10 11 -10 5 0 7 5 4 10 -3 6 -8 10 -11 10 -2 0
-4 -4 -4 -10z"/>
<path d="M11485 6260 c4 -6 11 -8 16 -5 14 9 11 15 -7 15 -8 0 -12 -5 -9 -10z"/>
<path d="M12675 6240 c-3 -5 3 -10 15 -10 12 0 18 5 15 10 -3 6 -10 10 -15 10
-5 0 -12 -4 -15 -10z"/>
<path d="M12960 5769 c0 -11 4 -18 10 -14 5 3 7 12 3 20 -7 21 -13 19 -13 -6z"/>
<path d="M12650 5671 c0 -5 5 -13 10 -16 6 -3 10 -2 10 4 0 5 -4 13 -10 16 -5
3 -10 2 -10 -4z"/>
<path d="M870 5131 c0 -5 5 -13 10 -16 6 -3 10 -2 10 4 0 5 -4 13 -10 16 -5 3
-10 2 -10 -4z"/>
<path d="M1457 4709 c-18 -10 -18 -11 0 -25 17 -12 17 -13 1 -14 -19 0 -22 -8
-18 -49 3 -32 23 -51 55 -51 17 0 25 -5 22 -12 -5 -15 -68 -12 -78 3 -4 8 -9
8 -14 -1 -4 -6 2 -21 14 -34 12 -12 21 -28 21 -34 0 -20 22 -13 27 9 5 16 11
19 30 14 21 -5 24 -3 18 14 -3 11 -1 30 6 42 9 19 9 25 -6 35 -11 8 -15 20
-11 36 3 13 3 17 0 11 -8 -18 -24 -16 -24 2 0 8 6 15 13 16 6 0 1 5 -12 10
-15 6 -21 15 -17 24 6 17 -2 19 -27 4z"/>
<path d="M1516 4477 c3 -10 9 -15 12 -12 3 3 0 11 -7 18 -10 9 -11 8 -5 -6z"/>
<path d="M11965 4465 c-22 -8 -47 -15 -55 -15 -14 -1 -70 -44 -70 -54 0 -3
-19 -26 -42 -51 -52 -54 -117 -75 -237 -75 -75 0 -80 -1 -112 -33 -38 -37 -59
-69 -59 -91 0 -8 23 -33 51 -57 45 -38 50 -46 47 -76 -6 -49 -3 -48 156 60 47
31 89 57 94 57 6 0 32 15 58 33 50 33 180 81 195 71 5 -3 9 0 9 5 0 6 5 11 11
11 22 0 69 42 69 61 0 10 5 19 11 19 16 0 4 84 -18 121 -20 33 -45 36 -108 14z"/>
<path d="M1256 3111 c-17 -19 -17 -19 1 -17 10 2 19 10 21 19 4 22 -1 21 -22
-2z"/>
<path d="M1591 2924 c0 -11 3 -14 6 -6 3 7 2 16 -1 19 -3 4 -6 -2 -5 -13z"/>
<path d="M1752 2379 c-7 -12 -11 -24 -7 -27 7 -8 25 17 25 36 0 17 -3 15 -18
-9z"/>
<path d="M1960 2150 c0 -5 10 -10 23 -10 18 0 19 2 7 10 -19 13 -30 13 -30 0z"/>
<path d="M9895 203 c-26 -7 -35 -21 -35 -56 0 -15 -7 -39 -16 -53 -21 -31 -16
-36 26 -24 37 11 70 41 70 65 0 8 5 15 10 15 16 0 11 32 -7 46 -10 7 -20 13
-23 13 -3 -1 -14 -4 -25 -6z"/>
<path d="M6221 103 c7 -10 15 -20 16 -22 2 -2 3 5 3 17 0 14 -6 22 -16 22 -14
0 -15 -3 -3 -17z"/>
<path d="M6160 95 c0 -8 2 -15 4 -15 2 0 6 7 10 15 3 8 1 15 -4 15 -6 0 -10
-7 -10 -15z"/>
<path d="M6055 80 c3 -5 10 -10 16 -10 5 0 9 5 9 10 0 6 -7 10 -16 10 -8 0
-12 -4 -9 -10z"/>
<path d="M5107 56 c-4 -10 -5 -21 -2 -24 9 -9 17 6 13 25 -3 17 -4 17 -11 -1z"/>
<path d="M6830 15 c0 -8 7 -15 15 -15 9 0 12 6 9 15 -8 19 -24 19 -24 0z"/>
<path d="M8665 20 c-8 -13 -1 -24 14 -19 6 3 7 10 2 18 -6 10 -10 10 -16 1z"/>
</g>
</svg>
