<?xml version="1.0" standalone="no"?>
<!DOCTYPE svg PUBLIC "-//W3C//DTD SVG 20010904//EN"
 "http://www.w3.org/TR/2001/REC-SVG-20010904/DTD/svg10.dtd">
<svg version="1.0" xmlns="http://www.w3.org/2000/svg"
 width="667.000000pt" height="332.000000pt" viewBox="0 0 667.000000 332.000000"
 preserveAspectRatio="xMidYMid meet">

<g transform="translate(0.000000,332.000000) scale(0.100000,-0.100000)"
fill="#000000" stroke="none">
<path d="M0 1658 l0 -1658 38 1 c29 2 31 3 10 6 -22 3 -29 11 -33 36 -3 18 -4
241 -3 497 3 440 4 463 20 435 32 -58 59 -120 61 -138 1 -10 11 -20 24 -23 12
-3 22 -9 21 -13 -2 -8 31 -86 60 -140 13 -24 40 -78 61 -120 l39 -76 -17 -233
-16 -232 840 1 c462 1 828 4 813 6 l-28 4 0 160 c0 87 -3 159 -8 159 -4 0 -38
-9 -76 -20 -38 -11 -71 -18 -73 -16 -2 2 -6 39 -10 82 l-6 80 84 19 c58 14 85
25 87 36 2 10 -32 42 -93 89 -52 40 -95 80 -96 89 -3 70 -16 108 -41 122 -15
8 -19 8 -14 0 4 -6 1 -11 -8 -11 -8 0 -16 5 -18 12 -3 7 -12 3 -24 -10 -19
-21 -89 -41 -349 -102 -49 -11 -126 -30 -169 -40 -44 -11 -88 -20 -99 -20 -10
0 -127 -26 -260 -59 -252 -61 -339 -78 -335 -64 3 9 -5 13 -27 13 -8 0 -15 -7
-15 -15 0 -40 -31 -6 -75 82 -27 54 -59 115 -72 135 -13 21 -23 44 -23 52 0 7
-7 19 -15 26 -8 7 -12 16 -9 21 3 5 1 9 -5 9 -9 0 -51 82 -51 101 0 19 20 8
26 -15 3 -13 16 -28 30 -35 26 -12 31 -27 11 -34 -8 -3 -3 -14 15 -31 33 -32
35 -32 40 -1 3 14 1 25 -6 25 -6 0 -5 4 2 9 10 6 8 10 -11 15 -14 3 -27 16
-31 28 -5 19 -8 21 -17 8 -8 -12 -9 -11 -4 6 3 14 0 24 -9 27 -8 3 -16 18 -18
34 -3 30 -38 47 -38 19 0 -13 -3 -14 -19 -4 -19 12 -45 57 -38 65 7 6 37 -8
37 -18 0 -5 8 -9 18 -8 11 0 13 2 4 6 -10 4 -7 9 9 17 23 11 23 14 20 156 -2
113 -6 147 -17 153 -12 7 -12 10 1 23 10 10 12 25 8 47 -8 41 -7 41 -38 33
-28 -7 -34 -26 -7 -26 14 0 15 -2 2 -10 -30 -20 -46 -11 -47 25 -1 33 1 34 43
41 35 5 44 10 44 26 0 16 -6 19 -37 18 -21 -1 -42 -1 -48 0 -18 3 29 19 58 19
27 1 27 2 27 69 0 37 -3 104 -6 149 l-7 81 -39 18 -39 17 2 154 c1 115 4 152
12 146 7 -5 34 -26 60 -47 48 -38 74 -42 133 -19 8 3 14 0 14 -6 0 -6 -13 -11
-29 -11 -43 0 -48 -18 -14 -48 37 -34 17 -20 -75 52 -40 32 -76 55 -79 52 -11
-10 64 -86 157 -158 87 -67 251 -193 407 -312 35 -26 67 -44 73 -41 5 3 10 0
10 -8 0 -18 26 -41 230 -197 90 -69 188 -144 217 -167 29 -24 59 -43 67 -43 8
0 28 -16 44 -35 17 -19 68 -61 114 -94 46 -34 102 -75 125 -92 32 -24 46 -29
55 -21 19 15 213 -135 198 -153 -8 -10 4 -24 48 -58 32 -25 64 -52 71 -61 33
-39 36 -19 36 225 l0 241 -67 -7 c-60 -6 -66 -5 -65 12 2 15 -7 18 -55 21 -32
2 -58 7 -58 12 0 6 4 10 9 10 6 0 20 18 32 40 26 45 43 53 33 14 l-7 -26 69 7
c92 8 116 14 109 25 -3 5 -33 7 -68 4 l-62 -5 30 25 c17 14 34 26 38 26 5 0 5
5 2 10 -4 6 -23 7 -48 3 -38 -6 -41 -5 -29 10 9 11 33 17 74 19 l61 3 2 635
c1 611 3 662 18 687 4 6 -2 13 -14 16 -18 5 -20 12 -17 64 3 54 5 58 28 58 22
0 26 -5 31 -40 l5 -40 5 53 c2 30 2 56 0 58 -2 2 -26 4 -53 4 -42 0 -49 -3
-44 -17 5 -17 9 -89 7 -125 -1 -14 -10 -18 -35 -18 -33 0 -34 -1 -34 -42 -1
-24 4 -45 10 -49 7 -4 6 -13 -1 -28 -10 -18 -9 -21 8 -21 17 0 20 5 17 30 -2
17 0 33 5 36 5 3 9 14 9 25 0 10 5 19 10 19 6 0 10 -7 10 -15 0 -8 6 -15 13
-16 6 0 3 -4 -8 -8 -16 -6 -19 -16 -16 -59 2 -47 1 -52 -19 -52 -12 0 -18 5
-15 10 3 6 0 10 -7 10 -8 0 -14 -9 -15 -20 -1 -11 3 -20 10 -20 8 0 8 -3 -1
-12 -18 -18 -15 -59 6 -74 16 -13 16 -15 0 -28 -16 -11 -18 -32 -18 -154 0
-103 -3 -142 -12 -145 -10 -4 -10 -8 1 -15 10 -8 15 -41 18 -126 3 -107 1
-119 -19 -146 -12 -17 -25 -30 -29 -30 -5 0 -9 143 -11 318 -2 174 -7 326 -12
337 -6 16 -6 17 3 5 8 -12 11 -5 11 30 0 56 -12 70 -64 71 -23 1 -32 3 -21 6
11 3 24 9 29 14 6 5 20 9 32 9 21 0 22 3 22 108 0 118 -7 138 -41 119 -12 -7
-27 -19 -34 -27 -11 -13 -14 -13 -23 0 -5 8 -10 25 -10 38 0 16 -6 22 -21 22
-18 0 -20 -6 -19 -47 2 -67 -1 -82 -10 -53 -4 14 -8 51 -9 83 -2 86 -19 69
-19 -19 -1 -53 -5 -80 -14 -85 -7 -5 -47 -10 -88 -11 l-75 -2 90 -5 90 -6 3
-67 c2 -39 7 -68 13 -68 6 0 10 17 8 38 -4 66 1 103 11 97 6 -3 10 -44 10 -91
0 -68 3 -84 15 -84 8 0 15 -7 15 -15 0 -8 7 -15 15 -15 8 0 15 7 15 15 0 23
38 18 45 -6 9 -26 -1 -36 -23 -23 -9 5 -25 8 -35 6 -18 -4 -19 -15 -15 -160 2
-122 0 -156 -9 -154 -7 1 -13 -2 -13 -7 0 -5 6 -11 13 -13 20 -7 23 -184 4
-206 -15 -17 -14 -31 9 -119 2 -7 20 -17 41 -22 54 -16 72 -28 54 -40 -9 -6
-31 2 -68 26 -54 34 -56 35 -132 28 -42 -4 -93 -10 -112 -14 l-34 -7 34 -7
c27 -6 31 -10 22 -21 -8 -10 -8 -16 1 -23 16 -12 62 -29 102 -38 26 -5 27 -7
11 -19 -17 -12 -16 -14 10 -20 43 -11 12 -26 -50 -25 -49 1 -49 1 -21 13 l28
13 -23 6 c-13 4 -39 7 -57 7 -22 0 -32 4 -30 12 8 24 -47 58 -98 59 -27 1 -38
4 -24 6 48 8 57 13 38 24 -10 6 -66 3 -154 -6 -75 -9 -139 -13 -142 -11 -11
11 48 24 143 30 55 4 161 14 235 22 74 7 146 14 159 14 l24 0 -6 308 c-4 169
-7 328 -7 355 0 61 -16 61 -19 0 -1 -26 -5 -50 -7 -53 -3 -3 -57 -7 -120 -8
l-114 -4 0 71 c0 64 -2 71 -20 71 -15 0 -20 7 -20 29 0 16 -3 36 -6 45 -5 12
0 16 20 16 20 0 26 5 24 17 -2 12 6 19 27 24 l30 7 -32 1 -33 1 0 75 c0 53 -4
75 -12 76 -86 10 -86 9 -93 -23 -5 -21 -3 -33 6 -39 9 -6 2 -9 -23 -9 -20 0
-40 -5 -44 -11 -4 -8 0 -9 15 -4 18 5 21 2 21 -22 0 -16 5 -34 12 -41 16 -16
7 -21 -19 -11 -16 6 -23 17 -23 35 0 16 -5 24 -13 21 -6 -2 -11 -14 -9 -25 4
-24 -23 -32 -31 -9 -3 9 -9 7 -24 -5 -13 -12 -35 -18 -64 -17 l-44 1 33 9 c24
7 32 15 32 33 0 14 6 27 13 29 6 3 2 6 -10 6 -16 1 -23 7 -23 20 0 19 -35 30
-72 23 -26 -5 -26 -108 0 -115 16 -4 16 -5 0 -6 -14 -1 -16 -5 -8 -26 6 -16 6
-25 0 -25 -7 0 -9 -75 -8 -207 l3 -208 39 3 c26 3 36 0 31 -7 -3 -7 -12 -11
-18 -10 -46 6 -47 3 -47 -91 0 -71 -3 -90 -14 -90 -8 0 -20 -2 -28 -5 -10 -4
-13 28 -13 167 0 95 4 180 8 189 6 13 -6 22 -63 47 -38 18 -76 32 -83 32 -6 0
-22 -15 -34 -34 l-21 -33 -122 -8 c-141 -8 -133 -12 -174 95 -35 90 -56 177
-57 230 -1 25 -9 59 -20 76 -10 17 -19 41 -19 53 0 14 -6 21 -19 21 -25 0 -31
40 -31 220 0 80 -3 162 -6 183 l-7 37 -58 0 c-56 0 -59 -1 -65 -27 -8 -32 -65
-132 -76 -133 -5 0 -8 23 -8 50 0 48 19 73 21 28 1 -13 6 -3 12 22 6 25 15 48
21 52 6 5 -6 7 -26 5 l-38 -2 0 -1657z m108 1436 c46 -13 18 -34 -35 -27 -41
6 -54 33 -15 33 15 0 37 -3 50 -6z m12 -74 c0 -5 -13 -10 -29 -10 -17 0 -33 5
-36 10 -4 6 8 10 29 10 20 0 36 -4 36 -10z m13 -177 c-18 -19 -34 -44 -34 -56
-1 -17 -2 -18 -6 -4 -5 18 -38 24 -48 7 -3 -5 -12 -7 -20 -3 -15 5 -20 39 -9
68 6 14 8 13 21 -4 8 -12 24 -26 36 -31 20 -10 21 -10 4 3 -12 10 -14 17 -7
22 5 3 7 11 4 17 -5 7 -1 9 9 5 10 -3 17 -2 17 2 0 5 15 9 33 8 l34 -1 -34
-33z m844 -45 c-3 -8 -6 -5 -6 6 -1 11 2 17 5 13 3 -3 4 -12 1 -19z m257 -35
c-5 -20 -4 -25 7 -21 8 3 23 2 34 -3 19 -7 19 -8 -2 -8 -13 -1 -23 -5 -23 -11
0 -5 -9 -10 -21 -10 -11 0 -18 4 -15 9 4 5 2 11 -2 13 -5 1 -12 15 -16 31 -6
24 -4 27 19 27 22 0 25 -3 19 -27z m-134 -62 c0 8 5 7 16 -2 15 -12 13 -14
-10 -22 -21 -7 -26 -15 -26 -43 0 -27 -4 -34 -20 -34 -15 0 -20 7 -20 25 0 14
-6 28 -14 31 -8 3 -12 12 -9 21 8 20 44 33 66 21 11 -6 17 -5 17 3z m-105 -37
c1 -31 -22 -28 -44 6 -15 23 -15 24 1 11 15 -11 19 -11 24 3 8 22 19 11 19
-20z m160 7 c-3 -12 -11 -19 -16 -16 -5 4 -3 14 3 25 15 24 22 19 13 -9z m496
-44 c-15 -15 -31 1 -31 32 0 42 13 47 28 10 9 -20 10 -35 3 -42z m-511 3 c0
-5 -2 -10 -4 -10 -3 0 -8 5 -11 10 -3 6 -1 10 4 10 6 0 11 -4 11 -10z m20 -35
c0 -8 -4 -15 -10 -15 -5 0 -10 7 -10 15 0 8 5 15 10 15 6 0 10 -7 10 -15z
m-32 -108 c2 -21 -1 -37 -7 -37 -6 0 -11 8 -12 18 0 9 -2 28 -5 40 -3 16 0 22
8 20 7 -3 14 -21 16 -41z m42 33 c0 -5 -4 -10 -10 -10 -5 0 -10 5 -10 10 0 6
5 10 10 10 6 0 10 -4 10 -10z m-7 -45 c-7 -21 -13 -19 -13 6 0 11 4 18 10 14
5 -3 7 -12 3 -20z m-59 -168 c11 -8 15 -19 10 -30 -6 -16 -8 -16 -23 -3 -9 8
-27 16 -40 18 -14 1 -26 9 -29 16 -5 16 58 16 82 -1z m196 -22 c8 -9 8 -15 2
-15 -18 0 -42 12 -42 21 0 14 26 10 40 -6z m-499 -100 c2 -64 0 -70 -17 -67
-17 2 -17 1 -3 -10 9 -7 19 -29 23 -49 5 -30 2 -39 -19 -59 l-24 -23 -3 104
c-2 84 0 111 15 142 10 22 20 37 22 35 2 -2 5 -35 6 -73z m374 37 c-6 -4 -12
-27 -14 -51 -3 -53 19 -53 33 0 5 19 10 35 11 36 4 7 75 -19 75 -27 0 -6 9
-10 20 -10 17 0 20 -7 20 -40 0 -40 0 -40 -37 -39 -34 1 -35 2 -11 8 20 4 25
10 19 20 -8 12 -19 12 -68 3 -32 -7 -89 -13 -128 -14 -57 -2 -70 0 -70 12 0
10 12 16 35 18 45 4 61 20 37 34 -18 10 -18 11 1 28 17 16 38 24 77 28 6 1 6
-1 0 -6z m-615 -32 c0 -5 -4 -10 -10 -10 -5 0 -10 5 -10 10 0 6 5 10 10 10 6
0 10 -4 10 -10z m-100 -40 c-36 -12 -60 -12 -60 0 0 6 19 10 43 9 36 -1 38 -2
17 -9z m753 -67 c-7 -2 -21 -2 -30 0 -10 3 -4 5 12 5 17 0 24 -2 18 -5z m-178
-13 c4 -6 -5 -10 -19 -10 -14 0 -26 5 -26 10 0 6 9 10 19 10 11 0 23 -4 26
-10z m-735 -97 c0 -7 -58 36 -66 49 -4 7 9 -1 29 -16 20 -16 37 -30 37 -33z
m846 32 c18 -14 17 -14 -12 -15 -21 0 -31 5 -31 15 0 19 18 19 43 0z m-801
-65 c10 -11 16 -20 13 -20 -3 0 -13 9 -23 20 -10 11 -16 20 -13 20 3 0 13 -9
23 -20z m186 -130 c18 0 31 -31 20 -49 -5 -8 -14 -5 -27 10 -10 12 -19 24 -18
28 1 3 -30 30 -68 59 -37 29 -68 56 -68 58 0 3 32 -20 72 -50 39 -31 79 -56
89 -56z m24 100 c3 -6 -1 -7 -9 -4 -18 7 -21 14 -7 14 6 0 13 -4 16 -10z m187
-46 c42 -22 29 -27 -22 -9 -24 9 -51 15 -60 14 -33 -3 -48 2 -54 17 -3 9 -4
20 -1 25 6 8 78 -16 137 -47z m848 -74 c0 -5 9 -10 19 -10 11 0 22 -4 25 -9 3
-5 14 -7 25 -4 19 5 36 -21 25 -38 -14 -23 -85 8 -112 49 -13 20 -13 22 2 22
9 0 16 -4 16 -10z m-420 -40 c-14 -4 -32 -8 -40 -9 -13 -1 -13 0 0 9 8 5 26 9
40 9 l25 -1 -25 -8z m-325 -10 c3 -5 -1 -10 -9 -10 -9 0 -19 0 -23 -1 -4 0 -9
4 -11 10 -5 14 35 14 43 1z m388 -37 c-7 -2 -19 -2 -25 0 -7 3 -2 5 12 5 14 0
19 -2 13 -5z m107 -23 c-14 -4 -43 -8 -65 -8 l-40 1 40 7 c22 4 51 7 65 8 l25
0 -25 -8z m-257 -14 l48 -12 -45 -11 c-25 -5 -43 -6 -40 -1 3 5 0 15 -6 23 -7
8 -11 15 -9 15 2 -1 26 -7 52 -14z m360 -23 c-7 -2 -21 -2 -30 0 -10 3 -4 5
12 5 17 0 24 -2 18 -5z m-65 -10 c-10 -2 -28 -2 -40 0 -13 2 -5 4 17 4 22 1
32 -1 23 -4z m-110 -10 c-10 -2 -28 -2 -40 0 -13 2 -5 4 17 4 22 1 32 -1 23
-4z m317 -3 c-3 -5 -21 -9 -38 -9 l-32 1 30 8 c43 11 47 11 40 0z m-435 -10
c0 -5 -5 -10 -11 -10 -5 0 -7 5 -4 10 3 6 8 10 11 10 2 0 4 -4 4 -10z m-9 -47
c27 -26 49 -51 49 -57 0 -5 -6 -2 -13 9 -8 10 -19 15 -24 12 -11 -7 -28 10
-56 56 -25 39 -12 33 44 -20z m184 17 c-28 -12 -47 -12 -40 0 3 6 18 10 33 9
24 0 25 -1 7 -9z m113 -30 c10 0 12 -3 7 -9 -13 -12 -67 -2 -59 11 3 5 13 7
21 4 8 -3 22 -6 31 -6z m80 -7 c-13 -16 -50 -13 -55 4 -3 7 9 11 31 10 28 -1
33 -4 24 -14z m-225 -20 c-7 -2 -19 -2 -25 0 -7 3 -2 5 12 5 14 0 19 -2 13 -5z
m-72 -40 c13 -16 12 -17 -3 -4 -10 7 -18 15 -18 17 0 8 8 3 21 -13z m119 1 c0
-8 -5 -12 -10 -9 -6 4 -8 11 -5 16 9 14 15 11 15 -7z m120 -8 c0 -8 -51 -13
-56 -5 -3 5 9 9 25 9 17 0 31 -2 31 -4z m-51 -37 c13 -11 21 -22 18 -25 -7 -7
-57 25 -57 37 0 14 13 10 39 -12z m66 -149 c66 -32 113 -59 105 -59 -8 0 -34
8 -57 19 -25 11 -45 15 -48 9 -11 -17 5 -28 63 -40 77 -16 97 -28 50 -29 -21
0 -38 -5 -38 -11 0 -7 28 -9 88 -5 113 6 44 -7 -124 -24 l-120 -13 -52 39
c-29 21 -52 42 -52 46 0 4 24 8 53 8 40 1 48 3 34 11 -12 7 -15 17 -11 35 4
15 0 34 -10 49 -9 14 -13 25 -9 25 5 0 62 -27 128 -60z"/>
<path d="M775 2190 c-3 -5 -1 -10 4 -10 6 0 11 5 11 10 0 6 -2 10 -4 10 -3 0
-8 -4 -11 -10z"/>
<path d="M775 2050 c-3 -5 -1 -10 4 -10 6 0 11 5 11 10 0 6 -2 10 -4 10 -3 0
-8 -4 -11 -10z"/>
<path d="M1315 3309 c320 -17 405 -19 405 -11 0 16 -98 22 -325 20 l-220 -1
140 -8z"/>
<path d="M2020 3299 c0 -19 -4 -20 -72 -13 -120 13 -123 12 -126 -18 -3 -25
-1 -27 55 -33 85 -10 108 -18 111 -43 2 -12 10 -22 18 -22 9 0 14 -10 13 -27
-1 -18 -3 -21 -6 -10 -8 29 -23 8 -23 -31 0 -38 18 -83 21 -52 3 40 18 -75 18
-147 l1 -81 80 -4 80 -3 0 30 c1 27 2 28 12 11 15 -27 11 -155 -6 -172 -13
-12 -15 -11 -18 8 -3 21 -9 23 -70 24 -74 1 -94 -13 -25 -18 l42 -3 -2 -42
c-2 -43 -23 -97 -30 -77 -4 13 -43 7 -43 -6 0 -4 6 -13 14 -19 17 -15 49 -1
65 27 5 9 12 14 16 11 3 -4 -6 -21 -20 -38 -20 -24 -35 -31 -61 -31 -28 0 -34
-4 -34 -21 0 -12 -8 -23 -20 -26 -20 -5 -20 -13 -16 -482 5 -562 6 -600 13
-583 7 19 23 4 23 -24 0 -15 -6 -24 -15 -24 -10 0 -15 -10 -15 -30 0 -20 5
-30 15 -30 11 0 15 -12 15 -44 0 -37 -4 -46 -21 -51 -19 -6 -21 -12 -14 -58 3
-29 12 -55 18 -59 16 -10 -4 -42 -29 -46 -10 -2 -23 -8 -28 -12 -4 -5 -8 -74
-7 -155 1 -131 -1 -151 -18 -179 -19 -30 -20 -50 -20 -242 0 -342 3 -378 27
-409 12 -15 22 -32 22 -36 0 -5 3 -9 8 -9 4 0 6 19 4 41 -3 28 0 44 9 50 9 5
10 9 2 9 -12 0 -11 46 2 58 5 4 5 -1 2 -11 -5 -14 -1 -20 14 -24 14 -4 20 -13
19 -32 -4 -63 -1 -71 28 -71 21 0 24 -2 12 -10 -10 -6 84 -10 275 -10 309 0
356 6 399 52 15 16 26 18 55 13 20 -4 44 -14 54 -23 17 -15 16 -16 -10 -28
-22 -10 364 -13 1905 -13 l1932 -1 0 676 c0 509 -3 673 -12 668 -8 -5 -9 0 -2
17 13 35 17 1149 4 1149 -5 0 -10 7 -10 15 0 8 5 15 10 15 6 0 10 83 10 230 0
151 -4 230 -10 230 -6 0 -13 -7 -16 -15 -8 -20 -24 -19 -39 2 -13 18 -17 -22
-31 -305 l-7 -133 -31 3 -31 3 4 134 c2 89 0 132 -7 128 -6 -4 -10 -69 -11
-162 -2 -160 -5 -185 -25 -185 -8 0 -11 57 -10 204 l2 204 -74 0 -74 1 0 -95
c0 -77 -3 -94 -15 -94 -8 0 -15 -4 -15 -10 0 -5 5 -10 10 -10 15 0 12 -71 -4
-102 -8 -15 -18 -52 -21 -83 -7 -50 -10 -55 -32 -55 -14 0 -36 9 -50 20 -28
22 -59 19 -80 -9 -10 -13 -12 1 -13 75 0 76 -3 93 -16 98 -9 4 -18 5 -20 3 -2
-1 -6 -40 -10 -85 -6 -72 -9 -82 -26 -82 -11 0 -86 5 -167 10 -291 20 -293 21
-281 35 12 14 100 25 100 13 0 -5 25 -8 56 -8 l57 0 -6 38 c-4 20 -9 74 -13
120 l-7 84 -51 -2 c-70 -3 -76 -2 -76 15 0 18 36 39 45 25 3 -5 24 -10 46 -10
24 0 38 4 34 10 -3 5 1 10 9 10 8 0 16 -12 19 -27 2 -16 5 -3 5 27 1 47 -1 52
-11 38 -8 -10 -35 -20 -65 -24 -45 -6 -52 -4 -52 10 0 10 -14 30 -31 45 -23
21 -29 35 -27 57 3 28 2 29 -42 30 -40 1 -46 -2 -51 -25 l-7 -26 -1 28 c-1 26
-3 27 -50 27 -28 0 -53 -4 -56 -10 -4 -6 7 -10 26 -10 l32 0 -6 -55 c-4 -35
-2 -55 5 -55 7 0 7 -4 0 -12 -5 -7 -12 -65 -15 -128 -3 -63 -11 -150 -17 -193
-6 -44 -9 -82 -6 -85 5 -4 25 3 67 25 3 2 6 -13 7 -33 2 -50 24 -71 220 -215
152 -111 166 -119 198 -113 24 4 34 12 34 25 0 11 5 19 11 19 8 0 7 5 -1 15
-19 23 -233 173 -263 184 -16 6 -27 18 -27 28 0 10 -17 29 -40 43 -22 14 -40
28 -40 32 0 13 10 9 44 -17 25 -19 45 -25 82 -25 58 0 78 -11 71 -36 -4 -15
19 -37 118 -106 68 -47 126 -84 129 -80 3 3 6 48 6 101 0 101 4 114 33 119 13
2 17 -4 17 -32 0 -19 6 -36 12 -38 9 -3 12 -33 10 -110 -3 -104 -3 -105 23
-122 40 -26 51 -8 30 47 -18 49 -15 67 14 67 16 0 17 -8 14 -77 l-4 -78 41
-27 c22 -16 44 -28 48 -28 5 0 10 26 11 57 1 32 7 63 13 70 7 9 7 13 -1 13
-12 0 -5 118 7 132 4 4 26 4 50 1 41 -5 43 -7 40 -37 -2 -26 1 -32 20 -34 24
-4 31 -22 9 -22 -11 0 -14 -25 -16 -107 -1 -60 -6 -112 -11 -117 -10 -10 3
-40 31 -71 10 -11 23 -42 30 -70 7 -27 15 -53 18 -57 4 -4 5 -41 3 -83 -3 -64
-6 -75 -20 -73 -15 3 -17 -9 -20 -81 -2 -57 1 -87 9 -92 18 -11 21 -87 5 -122
-8 -18 -16 -67 -19 -110 -4 -72 -17 -110 -33 -94 -4 3 -6 18 -6 32 0 28 -5 29
-42 15 -22 -8 -26 -16 -26 -48 0 -32 -5 -41 -25 -50 -34 -15 -35 -15 -35 6 0
13 -2 14 -9 3 -6 -9 -18 -11 -34 -7 -20 5 -28 15 -33 41 -4 21 -2 41 5 49 9
11 -6 18 -86 36 -152 34 -246 60 -260 72 -10 8 -13 6 -13 -6 0 -20 -24 -21
-42 -2 -8 7 -52 24 -98 37 -78 22 -85 26 -82 48 3 31 -14 51 -44 51 -29 0 -31
-21 -4 -45 27 -25 20 -28 -26 -12 -21 8 -59 17 -82 21 -44 6 -44 6 -38 -21 6
-33 24 -158 31 -225 5 -41 3 -47 -16 -53 -12 -4 -39 -2 -60 5 -32 11 -39 19
-43 44 -38 264 -54 351 -64 349 -6 -2 -43 -6 -81 -9 -64 -6 -69 -9 -61 -25 15
-27 12 -39 -10 -39 -24 0 -34 21 -26 54 5 20 16 26 71 36 36 7 65 16 65 21 0
4 -19 13 -41 19 -38 11 -41 14 -36 39 5 23 1 30 -19 39 -21 10 -23 15 -13 30
11 18 16 18 73 6 33 -7 62 -11 64 -9 10 10 4 77 -7 84 -20 13 -4 208 17 216
26 10 -5 25 -50 25 -21 0 -38 5 -38 11 0 6 18 9 48 8 56 -4 67 20 16 33 -31 8
-49 31 -38 49 3 5 1 9 -4 9 -5 0 -17 12 -27 26 l-17 27 48 -7 c27 -4 56 -9 65
-12 14 -4 17 16 23 152 4 105 3 161 -4 169 -8 9 -7 14 2 18 7 2 11 7 8 10 -8
8 -186 37 -233 37 -68 0 -77 14 -27 40 42 22 45 22 114 6 116 -26 143 -29 151
-16 4 7 18 9 35 5 15 -3 30 -3 33 2 4 7 9 100 20 393 2 61 0 65 -20 68 -13 2
-23 7 -23 12 0 5 -47 9 -105 9 -105 0 -105 0 -105 -25 0 -21 -5 -24 -34 -24
-28 0 -35 4 -39 23 -2 12 -5 -9 -6 -48 -1 -38 -4 -87 -7 -107 -8 -44 7 -51 24
-13 13 28 52 48 66 34 6 -5 19 -9 31 -9 26 0 63 -25 53 -36 -4 -4 -21 -7 -37
-6 l-30 1 20 -34 c13 -21 16 -36 9 -40 -5 -3 -10 -17 -10 -31 0 -16 4 -23 11
-18 8 5 9 -6 4 -35 -6 -34 -4 -41 9 -41 9 0 16 -6 16 -14 0 -8 3 -21 6 -30 9
-24 -15 -19 -38 7 -13 15 -18 17 -15 6 5 -15 3 -15 -24 -2 -17 8 -34 25 -39
37 -5 11 -18 32 -28 45 -16 20 -25 23 -56 17 l-38 -7 2 -107 c2 -96 -13 -263
-26 -284 -3 -4 -15 -8 -27 -8 -12 0 -27 -4 -34 -8 -17 -11 -45 -258 -49 -432
-4 -191 -4 -191 -114 -164 -39 9 -69 19 -66 21 2 3 40 10 83 17 l78 12 3 33 3
33 -45 -4 c-42 -3 -46 -1 -46 19 0 13 -5 23 -10 23 -7 0 -9 67 -5 205 5 200 4
205 -15 205 -16 0 -20 7 -20 30 0 23 4 30 20 30 17 0 18 4 10 25 -6 15 -6 26
0 30 6 4 10 17 10 30 0 27 -7 30 -107 43 -35 5 -63 5 -63 0 0 -13 -83 -8 -110
7 -14 8 -35 14 -48 15 -13 0 -20 4 -17 10 3 6 17 10 29 10 21 0 24 6 29 68 4
38 10 83 13 100 6 27 4 32 -12 31 -50 -5 -54 -1 -54 51 0 36 -4 50 -14 50 -17
0 -26 44 -26 129 0 88 8 113 30 106 10 -3 21 -1 25 5 3 6 11 8 16 5 5 -4 24 8
41 25 18 17 46 38 63 47 43 23 135 94 135 104 0 5 -12 9 -26 9 -14 0 -23 4
-19 10 3 6 15 10 26 10 10 0 19 7 19 15 0 8 -4 15 -10 15 -16 0 -12 27 5 34 9
3 59 9 111 12 77 6 98 4 105 -7 5 -8 9 -9 9 -3 0 7 60 13 183 18 246 9 352 14
692 32 160 8 371 17 470 19 172 4 180 5 183 24 l3 21 -890 0 -891 0 0 -60 0
-60 -49 0 c-28 0 -53 5 -56 10 -3 6 -22 10 -42 10 -26 0 -36 -5 -40 -20 -5
-20 -5 -20 -30 0 -16 12 -34 18 -48 14 -28 -7 -36 11 -28 60 6 36 16 45 28 26
9 -15 25 -12 25 5 0 11 -11 15 -38 15 -33 0 -39 -4 -49 -31 -8 -21 -9 -38 -3
-50 15 -28 13 -30 -27 -27 l-38 3 3 53 4 52 -51 0 c-49 0 -50 -1 -41 -24 11
-31 11 -126 -1 -126 -5 0 -4 -9 3 -21 11 -17 10 -22 -6 -34 -19 -14 -19 -15 0
-36 12 -13 20 -42 24 -80 l6 -60 -46 3 -45 3 2 188 1 187 -94 0 -94 0 -6 -27
c-9 -47 -24 -74 -34 -68 -6 3 -10 2 -10 -4 0 -21 -50 -69 -68 -64 -16 4 -18
14 -16 86 3 65 1 74 -5 42 -5 -22 -10 -103 -12 -180 l-4 -140 67 -6 c114 -10
89 -19 -50 -19 -81 0 -132 -4 -132 -10 0 -5 10 -10 23 -10 32 0 56 -42 37 -65
-8 -10 -11 -30 -7 -60 4 -27 3 -45 -3 -45 -6 0 -10 -35 -10 -82 0 -46 -3 -140
-7 -210 -5 -108 -9 -128 -23 -133 -9 -3 -23 -18 -30 -33 -11 -22 -14 -24 -18
-9 -2 10 1 31 7 47 7 20 7 32 0 36 -6 3 -8 16 -5 29 3 12 6 120 7 239 1 156 4
216 12 217 7 1 -8 5 -33 9 -54 9 -60 6 -60 -26 0 -31 -16 -31 -24 1 -5 21 -12
25 -41 25 -19 0 -34 -3 -34 -7 1 -5 1 -32 0 -60 -1 -51 -2 -53 -28 -54 -19 -1
-22 -3 -10 -6 15 -4 17 -11 12 -36 -4 -18 -13 -41 -20 -52 -10 -16 -15 -133
-20 -478 l-8 -457 27 0 c25 0 32 10 77 105 27 58 47 110 44 115 -3 6 -2 10 2
10 5 0 16 12 24 28 13 21 15 53 13 152 -2 69 -1 117 2 108 3 -10 11 -18 18
-18 16 0 18 -48 2 -52 -7 -2 -9 -22 -6 -58 l5 -55 19 50 c11 28 23 52 27 55 4
3 19 30 32 60 l25 55 1 -47 c1 -28 7 -53 16 -62 14 -14 14 -19 -5 -55 -11 -22
-20 -47 -20 -55 0 -8 -6 -17 -12 -19 -9 -4 -10 -8 -2 -14 6 -4 13 -15 16 -24
5 -13 17 -14 74 -8 38 5 75 8 81 8 12 1 46 55 38 62 -2 3 5 15 15 29 l20 25 0
-38 c0 -30 -4 -40 -20 -44 -21 -6 -35 -36 -25 -53 3 -5 15 -10 26 -10 14 0 19
-7 19 -25 0 -14 -4 -25 -8 -25 -9 0 -92 -172 -92 -188 0 -5 21 -15 48 -23 38
-12 47 -20 49 -39 4 -49 -1 -50 -79 -28 -40 11 -82 20 -93 20 -50 -2 -107 -14
-99 -22 7 -6 198 -69 263 -87 9 -2 12 -12 7 -34 -3 -18 -6 -51 -6 -75 0 -41
-2 -44 -27 -44 -14 0 -34 6 -42 13 -9 8 -32 20 -51 27 -19 7 -41 18 -49 24 -7
6 -34 19 -60 28 -28 10 -38 17 -25 17 22 1 115 -15 148 -25 11 -4 16 -2 12 4
-3 6 -43 23 -89 38 -101 33 -101 33 -86 50 9 11 8 18 -2 30 -11 14 -27 16 -94
11 -69 -4 -74 -4 -34 5 39 8 46 13 42 29 -3 10 2 30 10 43 22 33 27 106 8 106
-13 0 -41 -75 -41 -110 0 -17 -4 -30 -10 -30 -5 0 -10 4 -10 10 0 5 -6 7 -13
4 -7 -2 -33 3 -57 12 -80 29 -110 34 -110 17 0 -18 -39 -11 -127 24 -35 13
-71 24 -80 24 -58 -3 -109 1 -122 9 -28 15 17 25 53 12 18 -7 34 -12 37 -12 2
0 3 47 1 105 -2 69 -7 105 -15 105 -6 0 -2 9 10 19 23 21 67 32 69 16 0 -5 4
-18 8 -27 5 -10 6 -25 3 -33 -4 -8 -2 -17 3 -20 6 -4 6 -14 0 -26 -6 -11 -10
-45 -8 -76 l3 -57 70 -17 c38 -10 70 -17 71 -16 3 4 16 538 19 800 2 243 1
268 -14 265 -12 -3 -17 -18 -19 -68 -1 -36 -5 -71 -7 -78 -9 -24 -35 14 -35
50 0 25 3 29 10 18 8 -12 10 -11 10 7 0 12 3 28 6 37 4 11 1 16 -10 16 -11 0
-16 9 -16 26 0 14 -4 23 -10 19 -5 -3 -10 -15 -10 -26 0 -16 -7 -19 -40 -19
l-40 0 0 46 c0 25 -4 43 -9 40 -5 -3 -7 -24 -4 -45 5 -39 5 -39 -35 -46 -52
-8 -62 -2 -62 39 0 25 -5 35 -20 39 -24 6 -42 -20 -34 -50 4 -15 0 -22 -15
-26 -25 -6 -31 0 -31 34 0 15 -5 31 -11 35 -8 5 -10 -4 -7 -29 2 -20 0 -33 -4
-31 -4 3 -8 14 -8 25 0 11 -4 18 -9 15 -15 -10 -26 17 -26 61 0 34 -4 43 -17
43 -24 0 -34 -44 -21 -92 6 -21 6 -38 2 -38 -5 0 -9 -21 -10 -47 0 -27 -4 -66
-9 -88 -8 -35 -9 -30 -7 35 2 127 -2 190 -14 190 -7 0 -9 -9 -5 -24 3 -13 2
-35 -3 -48 l-8 -23 -8 25 c-15 49 -55 89 -55 56 0 -8 -7 -16 -14 -19 -12 -5
-16 5 -19 41 -3 38 -4 35 -5 -20 -1 -39 2 -68 8 -68 5 0 7 -7 4 -15 -4 -8 -14
-15 -23 -15 -18 0 -23 -34 -8 -57 5 -7 6 -17 2 -22 -3 -5 2 -16 10 -24 19 -20
20 -57 0 -57 -8 0 -15 3 -15 8 0 4 -39 5 -86 2 -89 -5 -110 2 -98 34 3 9 17
19 30 22 24 6 30 15 17 27 -3 4 -13 2 -20 -5 -25 -20 -33 10 -33 130 l0 112
45 0 46 0 -3 118 -3 117 -42 3 c-29 2 -43 8 -43 18 0 11 16 14 75 14 59 0 75
-3 75 -14 0 -18 38 -46 62 -46 9 0 29 11 44 23 37 32 36 83 -2 115 -31 27 -68
24 -96 -8 -13 -16 -29 -20 -87 -20 l-71 0 0 30 0 30 -110 0 -110 0 0 -26 c0
-21 -4 -25 -22 -22 -15 2 -24 11 -26 26 -3 20 -8 22 -73 22 -63 0 -69 -2 -69
-21z m666 -43 c14 -56 -17 -103 -53 -80 -28 18 -27 34 4 35 15 0 22 3 16 6 -7
2 -13 13 -13 24 0 11 -7 19 -16 19 -8 0 -12 5 -9 10 3 6 19 10 35 10 23 0 31
-6 36 -24z m-482 -83 c3 -21 6 -94 5 -163 l0 -125 -23 54 c-13 29 -22 63 -21
75 1 11 3 60 4 109 1 66 4 87 15 87 8 0 16 -15 20 -37z m1672 -9 c-5 -14 -46
-20 -46 -7 0 4 10 18 23 31 18 20 23 21 25 7 2 -9 1 -23 -2 -31z m444 -35 c0
-5 -7 -9 -15 -9 -8 0 -15 7 -15 15 0 9 6 12 15 9 8 -4 15 -10 15 -15z m-1844
-46 c-10 -10 -19 5 -10 18 6 11 8 11 12 0 2 -7 1 -15 -2 -18z m1414 -33 c0
-14 -4 -20 -8 -15 -4 6 -18 16 -31 24 -22 12 -26 11 -38 -5 -7 -10 -13 -13
-13 -8 0 20 25 34 57 32 28 -2 33 -6 33 -28z m450 -94 c0 -3 -4 -8 -10 -11 -5
-3 -10 -1 -10 4 0 6 5 11 10 11 6 0 10 -2 10 -4z m-160 -56 c0 -16 -4 -30 -10
-30 -11 0 -14 43 -3 53 11 12 13 8 13 -23z m1050 0 c0 -19 -11 -26 -23 -14 -8
8 3 34 14 34 5 0 9 -9 9 -20z m-1503 -22 c-3 -7 -5 -2 -5 12 0 14 2 19 5 13 2
-7 2 -19 0 -25z m98 22 c3 -5 3 -20 -1 -34 l-6 -25 -29 21 c-16 12 -29 28 -29
35 0 15 56 18 65 3z m32 -22 c-3 -7 -5 -2 -5 12 0 14 2 19 5 13 2 -7 2 -19 0
-25z m230 -25 c-3 -10 -5 -4 -5 12 0 17 2 24 5 18 2 -7 2 -21 0 -30z m219 5
c-11 -15 -16 -18 -16 -7 0 16 21 42 28 34 2 -2 -3 -14 -12 -27z m-728 -49 c-3
-20 -5 -19 -9 9 -3 20 -2 29 4 23 5 -5 7 -19 5 -32z m2841 9 c-1 -44 -11 -72
-26 -75 -14 -3 -17 26 -7 76 9 42 34 41 33 -1z m-894 2 c-3 -4 -13 -7 -23 -5
-9 2 -21 4 -27 5 -5 1 1 5 15 9 27 9 43 4 35 -9z m-216 -27 c0 -31 -2 -34 -9
-18 -12 28 -12 55 0 55 6 0 10 -17 9 -37z m-1495 -33 c-5 -5 -17 -3 -28 6 -20
14 -20 14 0 28 17 13 20 13 28 -5 6 -12 6 -23 0 -29z m-329 30 c3 -5 -1 -10
-9 -10 -9 0 -16 -7 -16 -15 0 -8 -4 -15 -10 -15 -14 0 -13 23 2 38 15 15 25
15 33 2z m608 -10 c3 -11 1 -20 -4 -20 -5 0 -9 9 -9 20 0 11 2 20 4 20 2 0 6
-9 9 -20z m-573 6 c0 -3 -4 -8 -10 -11 -5 -3 -10 -1 -10 4 0 6 5 11 10 11 6 0
10 -2 10 -4z m-533 -12 c-3 -3 -12 -4 -19 -1 -8 3 -5 6 6 6 11 1 17 -2 13 -5z
m2533 -32 c-33 -5 -50 -20 -50 -46 -1 -20 -1 -20 -12 -2 -9 15 -7 22 8 34 14
10 16 16 6 19 -10 4 -9 8 5 18 14 11 21 10 42 -4 l25 -16 -24 -3z m917 6 c-3
-8 -6 -5 -6 6 -1 11 2 17 5 13 3 -3 4 -12 1 -19z m-3507 -53 c0 -30 0 -57 0
-60 0 -3 -3 -6 -7 -7 -5 -2 -10 25 -13 60 -4 46 -2 62 8 62 8 0 12 -18 12 -55z
m60 45 c0 -5 -2 -10 -4 -10 -3 0 -8 5 -11 10 -3 6 -1 10 4 10 6 0 11 -4 11
-10z m107 -1 c6 -6 10 -17 8 -23 -2 -6 -6 -23 -9 -38 -6 -25 -11 -28 -45 -28
-38 0 -38 1 -44 42 -3 23 -3 46 -1 50 8 12 78 10 91 -3z m101 -36 c2 -55 -9
-79 -32 -70 -10 4 -16 19 -16 42 0 19 -4 35 -10 35 -5 0 -10 -13 -10 -30 0
-16 -4 -30 -10 -30 -13 0 -13 56 0 81 7 13 21 19 43 19 32 0 33 -1 35 -47z
m2451 -43 l-1 -35 -9 33 c-5 17 -16 32 -23 32 -19 0 -25 21 -14 44 9 17 11 16
29 -10 10 -16 18 -45 18 -64z m-2067 45 c3 -14 1 -25 -3 -25 -5 0 -9 11 -9 25
0 14 2 25 4 25 2 0 6 -11 8 -25z m1658 15 c0 -5 -7 -10 -16 -10 -8 0 -12 5 -9
10 3 6 10 10 16 10 5 0 9 -4 9 -10z m-1776 -31 c3 -17 6 -47 6 -65 0 -27 4
-34 19 -34 17 0 20 -10 27 -77 8 -87 -2 -367 -15 -428 -7 -32 -9 -35 -10 -12
0 15 -10 129 -21 255 -24 284 -30 392 -20 392 4 0 10 -14 14 -31z m53 -6 c-3
-10 -5 -4 -5 12 0 17 2 24 5 18 2 -7 2 -21 0 -30z m1998 9 c-3 -3 -11 0 -18 7
-9 10 -8 11 6 5 10 -3 15 -9 12 -12z m65 8 c0 -5 -2 -10 -4 -10 -3 0 -8 5 -11
10 -3 6 -1 10 4 10 6 0 11 -4 11 -10z m97 -37 c-3 -10 -5 -4 -5 12 0 17 2 24
5 18 2 -7 2 -21 0 -30z m-1867 12 c0 -8 -7 -15 -15 -15 -16 0 -20 12 -8 23 11
12 23 8 23 -8z m1710 1 c0 -3 -4 -8 -10 -11 -5 -3 -10 -1 -10 4 0 6 5 11 10
11 6 0 10 -2 10 -4z m870 -57 c0 -24 -4 -38 -10 -34 -17 10 -11 75 7 75 2 0 3
-18 3 -41z m-3400 6 c0 -8 6 -24 12 -35 18 -29 -2 -44 -47 -36 -42 8 -45 34
-7 51 12 5 22 15 22 22 0 7 5 13 10 13 6 0 10 -7 10 -15z m2515 5 c-3 -5 -10
-10 -16 -10 -5 0 -9 5 -9 10 0 6 7 10 16 10 8 0 12 -4 9 -10z m72 -47 c3 -9
-8 -10 -35 -4 -2 1 0 6 3 12 8 12 27 7 32 -8z m123 9 c0 -5 -6 -17 -14 -27
-12 -17 -16 -17 -30 -6 -15 13 -15 15 6 26 28 16 38 18 38 7z m-164 -24 c4 -7
3 -8 -4 -4 -7 4 -12 3 -12 -2 0 -5 -7 -9 -16 -9 -14 0 -14 2 2 14 22 16 21 16
30 1z m-1329 -55 c-3 -10 -5 -2 -5 17 0 19 2 27 5 18 2 -10 2 -26 0 -35z m823
37 c0 -5 -4 -10 -10 -10 -5 0 -10 5 -10 10 0 6 5 10 10 10 6 0 10 -4 10 -10z
m450 -5 c7 -9 8 -15 2 -15 -5 0 -12 7 -16 15 -3 8 -4 15 -2 15 2 0 9 -7 16
-15z m145 -15 c3 -5 1 -10 -4 -10 -6 0 -11 5 -11 10 0 6 2 10 4 10 3 0 8 -4
11 -10z m790 0 c3 -5 1 -10 -4 -10 -6 0 -11 5 -11 10 0 6 2 10 4 10 3 0 8 -4
11 -10z m-3484 -16 c8 -10 23 -14 40 -12 27 4 28 3 26 -44 -2 -44 0 -48 21
-48 20 0 22 -4 22 -60 0 -64 1 -66 32 -49 21 11 38 -1 38 -26 0 -14 -49 -35
-56 -24 -3 5 -16 9 -28 9 -38 0 -46 21 -48 124 l-2 97 -28 -6 c-18 -4 -28 -2
-28 5 0 6 -4 9 -9 6 -5 -3 -8 6 -8 19 0 29 9 32 28 9z m2359 7 c0 -16 -36 -19
-55 -5 -17 13 -16 14 18 14 20 0 37 -4 37 -9z m1091 -28 c13 -16 12 -17 -3 -4
-10 7 -18 15 -18 17 0 8 8 3 21 -13z m-1101 -7 c0 -11 -19 -15 -25 -6 -3 5 1
10 9 10 9 0 16 -2 16 -4z m-1070 -32 c0 -14 -4 -23 -10 -19 -5 3 -10 0 -11 -7
0 -9 -2 -10 -5 -1 -5 11 12 53 21 53 3 0 5 -12 5 -26z m40 -74 c0 -5 -2 -10
-4 -10 -3 0 -8 5 -11 10 -3 6 -1 10 4 10 6 0 11 -4 11 -10z m-1803 -67 c-3
-10 -5 -4 -5 12 0 17 2 24 5 18 2 -7 2 -21 0 -30z m3851 30 c-10 -2 -26 -2
-35 0 -10 3 -2 5 17 5 19 0 27 -2 18 -5z m-2059 -12 c7 -5 11 -13 8 -19 -9
-14 -57 -2 -57 14 0 16 28 18 49 5z m-464 -6 c-25 -9 -107 -12 -94 -4 8 5 34
8 59 8 25 0 41 -2 35 -4z m720 -25 c28 -5 61 -8 75 -7 35 3 34 -27 -1 -31 -25
-3 -26 -5 -33 -94 -3 -50 -6 -140 -6 -199 0 -68 -4 -110 -11 -115 -20 -12 -27
16 -28 109 -1 50 -3 92 -5 94 -10 10 -16 -198 -7 -216 12 -22 15 -161 4 -161
-20 1 -32 18 -35 50 -2 24 -9 36 -20 38 -10 2 -18 -1 -18 -7 0 -6 7 -11 16
-11 9 0 12 -5 8 -12 -5 -8 -15 -2 -31 16 -18 22 -23 40 -24 89 l-1 62 -11 -42
c-5 -23 -16 -44 -23 -47 -13 -5 -12 48 3 134 10 53 10 54 2 65 -3 6 -9 65 -12
132 -4 90 -3 123 6 127 9 5 9 7 0 12 -7 3 -9 12 -6 20 6 16 40 15 158 -6z
m-628 0 c-15 -5 -62 -11 -105 -14 l-77 -5 75 13 c41 8 89 14 105 14 l30 0 -28
-8z m1198 0 c3 -5 1 -10 -4 -10 -6 0 -11 5 -11 10 0 6 2 10 4 10 3 0 8 -4 11
-10z m-2618 -87 c-2 -16 -4 -5 -4 22 0 28 2 40 4 28 2 -13 2 -35 0 -50z m593
-19 c0 -8 -5 -12 -10 -9 -6 4 -8 11 -5 16 9 14 15 11 15 -7z m1630 -14 c0 -25
-4 -30 -24 -30 -13 0 -38 -3 -55 -6 -29 -6 -31 -5 -31 23 0 39 5 43 62 43 47
0 48 -1 48 -30z m-2162 -155 c168 17 156 18 182 -10 13 -14 18 -25 11 -25 -21
0 -204 -21 -228 -26 -21 -4 -23 -10 -23 -65 l0 -60 58 6 c31 4 100 13 152 20
52 8 147 19 210 26 114 11 116 12 115 37 0 14 6 27 13 30 19 6 4 -46 -22 -79
-18 -23 -30 -27 -86 -31 -43 -2 -72 1 -87 10 -29 18 -62 7 -73 -24 -8 -19 -17
-24 -44 -24 -53 0 -190 -21 -200 -31 -6 -5 -18 -9 -28 -9 -17 0 -18 13 -16
203 1 111 4 167 5 124 l4 -78 57 6z m310 100 c3 -3 1 -10 -4 -15 -7 -7 -27 -4
-60 7 -44 15 -47 17 -24 23 24 6 76 -3 88 -15z m117 -13 c-3 -3 -11 0 -18 7
-9 10 -8 11 6 5 10 -3 15 -9 12 -12z m80 -15 c30 -8 45 -16 37 -21 -12 -7 -78
10 -96 26 -14 11 0 10 59 -5z m1125 -27 c13 -8 13 -10 -1 -10 -10 0 -19 -12
-22 -30 -5 -22 -12 -30 -27 -30 -22 0 -20 9 8 42 7 9 11 22 7 27 -8 14 15 14
35 1z m-987 -7 c-7 -2 -19 -2 -25 0 -7 3 -2 5 12 5 14 0 19 -2 13 -5z m68 -20
c13 -15 12 -15 -8 -4 -24 12 -29 21 -14 21 5 0 15 -7 22 -17z m489 -7 c0 -2
-7 -7 -16 -10 -8 -3 -12 -2 -9 4 6 10 25 14 25 6z m-895 -26 c4 -6 -7 -10 -24
-10 -17 0 -31 5 -31 10 0 6 11 10 24 10 14 0 28 -4 31 -10z m715 0 c0 -5 -12
-10 -27 -10 -22 0 -25 2 -13 10 20 13 40 13 40 0z m686 -99 c-9 -10 -16 -26
-16 -37 1 -19 1 -19 15 0 14 19 15 19 15 -6 0 -15 -9 -31 -21 -40 -20 -13 -21
-16 -6 -44 9 -18 29 -34 54 -43 41 -15 53 -26 53 -53 0 -15 -9 -18 -44 -18
-44 0 -45 0 -48 38 l-4 37 -13 -30 c-7 -16 -16 -49 -18 -72 -6 -48 -6 -47 -34
-32 -17 9 -20 17 -14 52 4 23 9 49 11 59 4 12 -6 20 -38 30 -26 9 -44 22 -46
33 -4 15 1 17 35 10 21 -4 42 -7 47 -8 12 -2 30 69 22 88 -3 8 -17 15 -31 15
-14 0 -25 5 -25 11 0 6 9 8 23 4 37 -12 42 -11 39 8 -2 9 2 17 8 17 20 0 40
28 42 57 1 16 3 10 5 -16 3 -29 -1 -48 -11 -60z m941 57 c-3 -7 -5 -2 -5 12 0
14 2 19 5 13 2 -7 2 -19 0 -25z m-3127 -34 c0 -8 -4 -14 -10 -14 -5 0 -10 9
-10 21 0 11 5 17 10 14 6 -3 10 -13 10 -21z m915 -4 c19 -8 19 -9 -2 -9 -12
-1 -25 4 -28 9 -7 12 2 12 30 0z m1355 -124 c0 -21 -6 -24 -40 -28 -38 -3 -40
-2 -40 24 0 26 3 28 40 28 36 0 40 -3 40 -24z m60 -26 c8 -5 12 -11 9 -14 -3
-3 -14 1 -25 9 -21 16 -8 20 16 5z m805 -110 c17 -7 15 -9 -12 -9 -18 -1 -33
4 -33 9 0 12 17 12 45 0z m-938 -57 c-3 -10 -5 -4 -5 12 0 17 2 24 5 18 2 -7
2 -21 0 -30z m-1734 -3 c-4 -16 -8 -18 -19 -9 -16 13 -10 29 11 29 8 0 11 -7
8 -20z m505 -44 c-2 -8 1 -15 6 -14 5 0 12 -5 15 -11 5 -7 28 -7 75 1 63 10
70 10 82 -7 29 -39 18 -52 -58 -69 -140 -32 -349 -68 -364 -62 -8 3 -14 19
-14 40 0 39 -7 36 113 57 l68 12 25 55 c24 54 25 55 40 34 8 -12 14 -28 12
-36z m1362 39 c0 -8 -4 -15 -10 -15 -5 0 -10 7 -10 15 0 8 5 15 10 15 6 0 10
-7 10 -15z m-981 -75 c9 -5 25 -12 36 -16 18 -6 17 -7 -10 -15 -16 -5 -32 -5
-35 -1 -3 4 -30 16 -60 26 -71 24 -110 44 -110 55 0 9 145 -31 179 -49z m1531
30 c-34 -11 -60 -11 -35 0 11 5 29 8 40 8 16 0 15 -2 -5 -8z m-2720 -12 c0 -4
-9 -8 -21 -8 -11 0 -18 4 -15 8 3 5 12 9 21 9 8 0 15 -4 15 -9z m2180 -20 c0
-13 -32 -6 -37 9 -3 7 3 9 16 6 12 -3 21 -10 21 -15z m-235 -2 c16 -12 17 -16
6 -30 -29 -35 -61 -14 -45 28 8 20 15 20 39 2z m530 -11 c11 -1 23 -3 28 -4 4
0 7 -8 7 -17 0 -10 -6 -14 -17 -10 -10 2 -32 7 -50 11 -17 3 -34 13 -37 22 -5
12 -1 14 21 8 16 -4 37 -8 48 -10z m-117 -9 c-26 -19 -23 -23 22 -31 41 -7 56
-25 20 -25 -39 0 -90 28 -90 49 0 17 6 21 33 21 29 -1 30 -2 15 -14z m-188 -6
c12 -7 12 -12 2 -22 -10 -10 -15 -10 -22 2 -12 18 -13 30 -2 30 4 0 14 -5 22
-10z m418 -20 c29 -18 33 -24 27 -50 -7 -32 10 -74 26 -64 5 3 21 23 35 45 35
56 49 50 64 -23 15 -80 18 -83 40 -56 l18 22 56 -17 c42 -14 59 -25 66 -43 12
-31 3 -54 -21 -54 -14 0 -19 7 -19 30 0 24 -6 33 -26 40 -14 6 -29 10 -33 10
-4 0 -4 -32 1 -72 5 -53 4 -74 -5 -80 -24 -15 -36 -7 -43 29 -9 46 -65 128
-75 111 -6 -10 -15 -10 -39 -1 -34 13 -29 21 -123 -172 -21 -44 -41 -82 -43
-85 -3 -2 -18 -4 -34 -5 -49 0 -31 -18 52 -50 46 -18 76 -35 71 -40 -4 -5 -1
-4 7 2 29 22 55 9 58 -29 5 -54 -29 -58 -134 -18 -76 30 -82 34 -93 70 -14 48
-14 70 1 70 7 0 5 7 -5 18 -18 20 -49 132 -37 132 5 0 12 -4 15 -10 14 -22 27
-7 65 72 41 84 47 104 32 110 -5 2 -12 17 -15 35 -5 26 -3 33 13 38 11 4 29 4
39 0 21 -6 38 10 21 20 -12 7 -14 35 -2 35 4 0 22 -9 40 -20z m-212 -45 c19
-14 19 -14 -3 -15 -28 0 -53 10 -53 21 0 14 34 11 56 -6z m-2440 -107 c9 -9
26 -19 40 -22 18 -5 24 -13 24 -35 0 -35 -14 -47 -58 -49 -18 -2 -39 -3 -45
-5 -18 -3 -13 203 5 214 10 7 14 -2 16 -39 2 -26 10 -54 18 -64z m1575 81 c23
-11 39 -23 36 -25 -5 -6 -87 33 -87 41 0 9 10 6 51 -16z m454 -56 c-5 -14 -8
-14 -25 2 -19 17 -19 18 3 49 l22 31 3 -33 c2 -19 1 -41 -3 -49z m-999 48 c-6
-9 -46 -22 -46 -15 0 3 10 9 23 14 29 11 29 11 23 1z m1113 -83 c1 -10 -3 -18
-8 -18 -15 0 -23 37 -15 63 l8 22 7 -25 c4 -14 7 -33 8 -42z m104 27 c-7 -21
-13 -19 -13 6 0 11 4 18 10 14 5 -3 7 -12 3 -20z m110 -59 c11 -25 17 -49 15
-52 -3 -2 -30 3 -59 13 -57 19 -68 36 -55 88 6 23 8 23 43 11 30 -10 41 -21
56 -60z m-737 35 c-3 -5 -19 -11 -36 -13 -33 -5 -29 7 5 15 32 8 36 7 31 -2z
m823 -35 c21 -22 22 -26 8 -52 l-15 -29 -12 45 c-7 25 -14 48 -17 53 -10 17
15 5 36 -17z m-969 -10 c-6 -8 -18 -12 -27 -9 -12 5 -12 7 -1 14 7 5 19 9 27
9 11 0 11 -3 1 -14z m500 -50 c0 -7 14 -19 31 -26 35 -15 23 -30 -23 -30 -25
0 -28 3 -28 35 0 19 5 35 10 35 6 0 10 -6 10 -14z m-230 -11 c0 -9 -6 -12 -15
-9 -8 4 -15 10 -15 15 0 5 7 9 15 9 8 0 15 -7 15 -15z m607 -6 c34 -9 46 -19
63 -51 23 -44 20 -59 -7 -37 -13 11 -15 11 -9 1 13 -22 -25 1 -49 29 -20 24
-20 24 0 10 11 -7 0 6 -25 29 -25 23 -38 40 -30 37 8 -3 34 -11 57 -18z
m-1860 -13 c12 -2 29 -10 38 -19 9 -9 23 -21 33 -26 13 -7 14 -12 4 -24 -10
-12 -10 -16 0 -21 7 -3 0 -4 -15 -1 -20 4 -28 2 -25 -6 4 -13 -68 -93 -80 -87
-4 2 -33 21 -64 42 -53 36 -58 42 -58 76 0 27 5 39 18 43 9 3 35 13 57 21 22
8 47 13 55 10 8 -3 25 -7 37 -8z m693 0 c0 -2 -7 -6 -15 -10 -8 -3 -15 -1 -15
4 0 6 7 10 15 10 8 0 15 -2 15 -4z m877 -18 c-3 -8 -6 -5 -6 6 -1 11 2 17 5
13 3 -3 4 -12 1 -19z m76 -65 c4 -20 4 -39 2 -42 -10 -9 -25 15 -29 47 -5 46
20 41 27 -5z m-69 11 c9 -24 7 -64 -3 -64 -21 0 -111 46 -108 55 8 24 102 32
111 9z m-2004 -44 c0 -33 -3 -40 -20 -40 -21 0 -25 16 -14 58 11 39 34 27 34
-18z m-65 20 c11 -17 -5 -49 -21 -43 -19 7 -19 53 0 53 8 0 18 -5 21 -10z
m2357 -15 c44 -18 65 -22 74 -14 9 7 14 5 19 -10 7 -22 -3 -91 -14 -91 -4 0
-38 13 -76 29 -69 29 -70 30 -73 70 -2 23 -1 41 3 41 3 0 33 -11 67 -25z
m-1639 -115 c22 -17 26 -28 25 -70 0 -53 -8 -64 -77 -102 -21 -12 -31 -25 -31
-41 0 -23 -35 -65 -45 -55 -3 3 -1 18 5 33 6 15 8 30 6 33 -3 3 -64 -10 -137
-27 -72 -18 -132 -31 -134 -29 -1 2 -5 22 -8 46 -5 40 -3 43 26 57 35 16 42
20 142 86 68 45 72 46 99 32 22 -11 30 -12 42 -2 8 7 13 17 11 23 -4 10 28 35
44 36 4 0 18 -9 32 -20z m311 -82 c-62 -67 -100 -94 -49 -37 68 77 99 108 103
104 3 -3 -21 -33 -54 -67z m-634 42 c-8 -5 -19 -10 -25 -10 -5 0 -3 5 5 10 8
5 20 10 25 10 6 0 3 -5 -5 -10z m2039 -33 c-6 -14 -17 -28 -24 -31 -8 -2 -4
10 8 28 25 39 33 40 16 3z m-379 13 c8 -5 11 -10 5 -10 -5 0 -17 5 -25 10 -8
5 -10 10 -5 10 6 0 17 -5 25 -10z m-125 -70 c-3 -5 -12 -10 -18 -10 -7 0 -6 4
3 10 19 12 23 12 15 0z m-45 -20 c-20 -13 -33 -13 -25 0 3 6 14 10 23 10 15 0
15 -2 2 -10z m-940 -25 c-7 -9 -15 -13 -17 -11 -7 7 7 26 19 26 6 0 6 -6 -2
-15z m891 -48 c-8 -8 -11 -7 -11 4 0 20 13 34 18 19 3 -7 -1 -17 -7 -23z
m-1057 12 c14 -7 23 -15 21 -19 -3 -5 14 -17 38 -28 24 -11 50 -28 58 -38 8
-9 10 -15 4 -13 -40 18 -73 36 -90 51 -11 9 -31 26 -45 37 -28 23 -23 26 14
10z m136 1 c0 -5 -5 -10 -11 -10 -5 0 -7 5 -4 10 3 6 8 10 11 10 2 0 4 -4 4
-10z m-65 -20 c3 -5 2 -10 -4 -10 -5 0 -13 5 -16 10 -3 6 -2 10 4 10 5 0 13
-4 16 -10z m3593 -12 c-2 -6 -10 -14 -16 -16 -7 -2 -10 2 -6 12 7 18 28 22 22
4z m-192 -28 c8 0 14 -4 14 -10 0 -5 -12 -10 -26 -10 -20 0 -25 4 -20 16 3 9
7 21 7 27 1 7 3 4 6 -5 2 -10 11 -18 19 -18z m64 20 c0 -5 -12 -10 -27 -10
-22 0 -25 2 -13 10 20 13 40 13 40 0z m-3671 -55 c3 -17 -22 -45 -41 -45 -11
0 -10 28 3 51 12 24 32 20 38 -6z m346 -5 c17 -11 26 -20 22 -20 -11 0 -67 29
-67 35 0 10 16 4 45 -15z m3365 10 c-20 -13 -33 -13 -25 0 3 6 14 10 23 10 15
0 15 -2 2 -10z m-1872 -14 c-7 -8 -15 -12 -17 -11 -5 6 10 25 20 25 5 0 4 -6
-3 -14z m-1412 -54 c-4 -3 -14 2 -24 12 -16 18 -16 18 6 6 13 -6 21 -14 18
-18z m117 -60 c16 -8 26 -16 23 -19 -5 -6 -126 65 -126 74 0 3 17 -5 38 -18
20 -12 50 -29 65 -37z m479 -2 c26 -16 53 -30 58 -30 22 0 8 -20 -17 -26 -16
-3 -41 -10 -57 -15 -28 -9 -28 -8 -13 9 15 16 14 18 -13 31 -16 7 -35 9 -41 5
-7 -4 -9 -3 -5 4 3 6 1 14 -5 18 -9 5 -7 11 6 21 26 18 31 17 87 -17z m-345
-76 c40 -25 73 -48 73 -50 0 -6 -12 1 -105 55 -38 23 -63 41 -56 41 8 0 47
-21 88 -46z m652 5 c-31 -43 -159 -192 -159 -184 0 6 37 55 137 183 32 41 52
42 22 1z m-229 -52 c0 -37 -22 -57 -90 -81 -63 -21 -110 -22 -117 0 -2 5 35
22 83 38 60 20 84 32 80 41 -5 14 7 23 32 24 6 1 12 -9 12 -22z m-280 -43 c0
-2 -13 2 -30 11 -16 9 -30 18 -30 21 0 2 14 -2 30 -11 17 -9 30 -18 30 -21z
m789 -3 c-13 -17 -27 -31 -31 -31 -11 0 -2 18 25 47 29 32 33 20 6 -16z m51
24 c-7 -9 -10 -18 -7 -22 4 -3 15 5 26 18 11 13 20 19 21 13 0 -16 -37 -47
-49 -40 -5 4 -12 2 -16 -4 -3 -5 -11 -10 -17 -10 -7 0 1 14 17 30 30 31 47 41
25 15z m63 -10 c-3 -9 -8 -14 -10 -11 -3 3 -2 9 2 15 9 16 15 13 8 -4z m8 -30
c-17 -20 -31 -33 -31 -29 0 9 54 72 59 68 2 -2 -10 -19 -28 -39z m99 35 c0 -5
-5 -10 -11 -10 -5 0 -7 5 -4 10 3 6 8 10 11 10 2 0 4 -4 4 -10z m-442 -48 c34
-18 62 -36 62 -41 0 -5 -13 -14 -29 -19 -23 -8 -34 -6 -57 9 -37 24 -44 24
-44 -1 0 -18 -3 -19 -20 -10 -11 6 -20 21 -20 33 0 24 27 70 38 65 4 -2 35
-18 70 -36z m170 18 c-7 -11 -17 -20 -22 -20 -5 0 -1 9 9 20 10 11 20 20 22
20 2 0 -2 -9 -9 -20z m134 -12 c-7 -7 -12 -8 -12 -2 0 14 12 26 19 19 2 -3 -1
-11 -7 -17z m76 -38 c-7 -11 -17 -20 -22 -20 -5 0 -1 9 9 20 10 11 20 20 22
20 2 0 -2 -9 -9 -20z m-1138 0 c0 -12 -50 -33 -58 -26 -3 3 1 12 8 21 14 17
50 20 50 5z m930 6 c0 -2 -8 -10 -17 -17 -16 -13 -17 -12 -4 4 13 16 21 21 21
13z m161 -19 c-10 -9 -11 -8 -5 6 3 10 9 15 12 12 3 -3 0 -11 -7 -18z m-117
-12 c-4 -8 -11 -15 -16 -15 -6 0 -5 6 2 15 7 8 14 15 16 15 2 0 1 -7 -2 -15z
m-604 -10 c7 -8 8 -15 2 -15 -5 0 -15 7 -22 15 -7 8 -8 15 -2 15 5 0 15 -7 22
-15z m554 -10 c-4 -8 -11 -15 -16 -15 -6 0 -5 6 2 15 7 8 14 15 16 15 2 0 1
-7 -2 -15z m-403 -18 c-10 -9 -11 -8 -5 6 3 10 9 15 12 12 3 -3 0 -11 -7 -18z
m247 1 c2 -11 -3 -18 -12 -18 -9 0 -16 7 -16 16 0 10 -6 14 -15 10 -8 -3 -15
-1 -15 5 0 18 55 5 58 -13z m-395 -7 c4 -4 -24 -11 -64 -14 -40 -3 -75 -10
-78 -14 -3 -4 -22 -16 -41 -26 -19 -9 -50 -27 -67 -38 -18 -11 -37 -18 -42
-15 -15 10 2 53 36 89 l31 33 108 -3 c60 -2 112 -7 117 -12z m617 15 c0 -3 -4
-8 -10 -11 -5 -3 -10 -1 -10 4 0 6 5 11 10 11 6 0 10 -2 10 -4z m-545 -36 c3
-5 2 -10 -4 -10 -5 0 -13 5 -16 10 -3 6 -2 10 4 10 5 0 13 -4 16 -10z m50 -9
c-3 -6 -11 -11 -17 -11 -6 0 -6 6 2 15 14 17 26 13 15 -4z m-1781 -102 c-12
-20 -34 -8 -34 18 0 25 1 26 20 8 11 -10 17 -22 14 -26z m2206 -24 c9 -10 9
-15 1 -15 -6 0 -11 5 -11 11 0 5 -4 7 -10 4 -5 -3 -10 -1 -10 4 0 16 16 13 30
-4z"/>
<path d="M3040 2701 c0 -6 5 -13 10 -16 6 -3 10 1 10 9 0 9 -4 16 -10 16 -5 0
-10 -4 -10 -9z"/>
<path d="M2937 2593 c-12 -12 -7 -25 7 -20 7 3 19 0 25 -6 6 -6 14 -7 18 -3 5
4 -1 14 -11 22 -22 16 -30 17 -39 7z"/>
<path d="M4382 2269 c2 -8 14 -15 26 -17 12 -2 22 -8 22 -13 0 -14 26 -11 39
5 15 18 6 23 -49 32 -34 6 -42 4 -38 -7z"/>
<path d="M4500 2199 c0 -5 5 -7 10 -4 6 3 10 8 10 11 0 2 -4 4 -10 4 -5 0 -10
-5 -10 -11z"/>
<path d="M2978 1493 c7 -3 16 -2 19 1 4 3 -2 6 -13 5 -11 0 -14 -3 -6 -6z"/>
<path d="M4775 1349 c-4 -6 -5 -12 -2 -15 2 -3 7 2 10 11 7 17 1 20 -8 4z"/>
<path d="M2734 884 c-18 -14 -18 -15 6 -8 31 8 50 24 29 24 -8 0 -24 -7 -35
-16z"/>
<path d="M2820 860 c-8 -4 -32 -11 -54 -14 -21 -4 -46 -10 -55 -15 -15 -9 -14
-10 2 -16 25 -10 82 3 109 24 24 20 23 35 -2 21z"/>
<path d="M3158 3313 c6 -2 18 -2 25 0 6 3 1 5 -13 5 -14 0 -19 -2 -12 -5z"/>
<path d="M3344 3308 c83 -7 122 -6 129 1 8 8 -26 11 -118 10 l-130 -2 119 -9z"/>
<path d="M3572 3183 l3 -138 78 -3 77 -3 0 141 0 140 -80 0 -81 0 3 -137z
m140 100 c2 -16 2 -65 0 -110 l-3 -83 -59 0 -59 0 -3 98 c-2 53 -2 103 0 110
3 8 24 12 62 12 57 0 59 -1 62 -27z m-52 -213 c0 -5 -4 -10 -10 -10 -5 0 -10
5 -10 10 0 6 5 10 10 10 6 0 10 -4 10 -10z"/>
<path d="M3650 3279 c0 -6 -7 -9 -15 -5 -8 3 -15 1 -15 -3 0 -5 7 -12 16 -15
13 -5 15 -15 11 -48 -5 -40 5 -78 21 -78 4 0 5 21 3 46 -2 31 1 49 10 55 11 6
11 12 -1 33 -14 27 -30 35 -30 15z"/>
<path d="M4400 3301 c-5 -11 -10 -24 -10 -30 0 -14 131 -1 147 15 26 26 13 34
-57 34 -58 0 -71 -3 -80 -19z"/>
<path d="M6570 3310 c0 -13 11 -13 30 0 12 8 11 10 -7 10 -13 0 -23 -4 -23
-10z"/>
<path d="M660 3270 c0 -40 14 -45 45 -14 30 30 30 29 -12 37 -31 6 -33 5 -33
-23z"/>
<path d="M1523 3234 c-3 -8 0 -27 8 -40 12 -23 14 -24 20 -7 4 10 8 25 8 34 1
23 -28 33 -36 13z"/>
<path d="M6472 3213 l1 -38 4 34 c4 32 5 33 41 27 20 -3 52 -6 70 -6 28 0 32
-3 33 -27 l1 -28 7 30 c8 38 -3 43 -91 44 l-68 1 2 -37z"/>
<path d="M1610 3190 c0 -22 3 -22 51 -17 82 10 82 27 -1 35 -47 4 -50 3 -50
-18z"/>
<path d="M5460 3092 l0 -117 140 -3 c108 -2 141 0 144 10 3 7 7 62 11 121 l6
108 -150 -2 -151 -1 0 -116z m260 23 l0 -74 -32 -6 c-18 -3 -69 -5 -113 -3
l-80 4 -3 44 c-2 25 -1 59 3 77 l6 33 109 0 110 0 0 -75z m-117 -112 c-7 -2
-19 -2 -25 0 -7 3 -2 5 12 5 14 0 19 -2 13 -5z"/>
<path d="M1780 3185 c0 -8 7 -15 15 -15 12 0 15 -18 15 -100 0 -82 -3 -100
-15 -100 -8 0 -15 -4 -15 -9 0 -13 149 -19 154 -6 8 23 -8 231 -18 237 -6 4
-39 8 -73 8 -49 0 -63 -3 -63 -15z m103 -112 c-7 -2 -21 -2 -30 0 -10 3 -4 5
12 5 17 0 24 -2 18 -5z"/>
<path d="M4840 3186 c0 -20 25 -37 44 -30 14 5 12 9 -8 25 -29 23 -36 24 -36
5z"/>
<path d="M1105 3180 c28 -12 45 -12 45 0 0 6 -15 10 -32 9 -28 0 -30 -2 -13
-9z"/>
<path d="M1633 3136 c-27 -13 -29 -22 -6 -30 17 -7 33 9 33 32 0 6 -1 11 -2
11 -2 -1 -13 -6 -25 -13z"/>
<path d="M1680 3090 c6 -11 15 -20 20 -20 6 0 5 9 -2 20 -7 11 -16 20 -21 20
-4 0 -3 -9 3 -20z"/>
<path d="M6461 3058 l-1 -48 80 0 c69 0 80 2 81 18 0 9 2 28 5 42 3 21 2 22
-7 8 -17 -29 -144 -20 -152 11 -3 9 -5 -5 -6 -31z m99 -16 c0 -14 -11 -21 -26
-15 -8 3 -11 9 -8 14 7 11 34 12 34 1z"/>
<path d="M2610 3038 c0 -21 150 -40 157 -21 9 22 -2 26 -82 31 -61 4 -75 2
-75 -10z"/>
<path d="M2888 3015 c-7 -36 4 -40 19 -8 9 20 11 22 7 6 -3 -13 -2 -23 3 -23
5 0 10 11 11 25 3 35 -34 35 -40 0z"/>
<path d="M3095 3030 c8 -13 35 -13 55 0 11 7 5 10 -23 10 -23 0 -36 -4 -32
-10z"/>
<path d="M3490 3009 c0 -17 4 -28 10 -24 6 3 10 17 10 31 0 13 -4 24 -10 24
-5 0 -10 -14 -10 -31z"/>
<path d="M6327 3003 c-4 -3 -7 -17 -7 -30 0 -14 -6 -23 -15 -23 -8 0 -15 -6
-15 -13 0 -8 11 -12 28 -11 15 1 42 2 60 3 31 1 32 3 32 41 0 40 0 40 -38 40
-21 0 -42 -3 -45 -7z"/>
<path d="M2610 2982 c0 -14 8 -21 28 -24 15 -3 33 -7 41 -9 8 -2 14 5 16 19 1
12 -4 22 -10 22 -7 0 -27 3 -44 6 -26 6 -31 4 -31 -14z"/>
<path d="M3190 2965 c0 -24 5 -35 15 -35 16 0 18 12 9 48 -10 34 -24 26 -24
-13z"/>
<path d="M1617 2973 c-17 -16 -3 -23 48 -23 42 0 55 3 55 15 0 11 -12 15 -48
15 -27 0 -52 -3 -55 -7z"/>
<path d="M2830 2970 c0 -5 5 -10 10 -10 6 0 10 5 10 10 0 6 -4 10 -10 10 -5 0
-10 -4 -10 -10z"/>
<path d="M3084 2964 c3 -9 6 -24 6 -35 0 -11 7 -19 16 -19 8 0 13 4 9 9 -3 5
-1 12 5 16 5 3 10 -1 10 -9 0 -23 18 -19 25 5 8 25 -11 51 -24 31 -6 -10 -10
-10 -21 3 -16 20 -34 19 -26 -1z"/>
<path d="M1230 2951 c0 -6 5 -13 10 -16 6 -3 10 1 10 9 0 9 -4 16 -10 16 -5 0
-10 -4 -10 -9z"/>
<path d="M5826 2839 c-3 -60 -4 -114 -1 -120 8 -13 72 -11 81 2 3 6 20 9 36 7
16 -3 31 -1 34 4 3 4 -29 8 -72 8 l-76 0 6 31 c3 17 6 58 6 90 l0 59 96 0 96
0 -4 -99 -3 -100 29 -5 c16 -3 46 -6 67 -6 l39 0 0 104 c0 57 3 111 6 120 5
14 -13 16 -163 16 l-170 0 -7 -111z m284 -9 c0 -5 -7 -7 -15 -4 -8 4 -15 8
-15 10 0 2 7 4 15 4 8 0 15 -4 15 -10z"/>
<path d="M3280 2927 c0 -8 -9 -17 -20 -20 -11 -3 -20 -12 -20 -21 0 -18 16
-21 26 -5 5 8 9 8 14 -1 5 -7 9 0 12 19 3 18 1 34 -4 37 -4 3 -8 -1 -8 -9z"/>
<path d="M2938 2923 c7 -3 16 -2 19 1 4 3 -2 6 -13 5 -11 0 -14 -3 -6 -6z"/>
<path d="M4899 2923 c-13 -3 -17 -21 -22 -84 -3 -44 -10 -86 -17 -94 -8 -10
-8 -19 -1 -34 14 -25 14 -105 1 -150 -8 -29 -6 -36 13 -52 23 -19 43 -24 50
-11 3 4 8 100 12 213 8 217 7 221 -36 212z"/>
<path d="M2881 2904 c0 -11 3 -14 6 -6 3 7 2 16 -1 19 -3 4 -6 -2 -5 -13z"/>
<path d="M2675 2900 c3 -5 8 -10 11 -10 2 0 4 5 4 10 0 6 -5 10 -11 10 -5 0
-7 -4 -4 -10z"/>
<path d="M2935 2881 c3 -6 13 -11 21 -11 8 0 14 -4 14 -10 0 -5 7 -10 16 -10
9 0 14 7 12 18 -2 11 -14 18 -37 20 -21 2 -31 0 -26 -7z"/>
<path d="M1790 2865 c-10 -12 -10 -19 -2 -27 9 -9 12 -9 12 1 0 8 8 20 18 27
15 12 15 13 1 14 -9 0 -22 -7 -29 -15z"/>
<path d="M1080 2846 c0 -22 3 -24 43 -19 23 3 48 12 54 21 15 19 9 29 -9 15
-7 -6 -28 -13 -47 -17 -27 -5 -32 -3 -27 9 3 8 1 15 -4 15 -6 0 -10 -11 -10
-24z"/>
<path d="M4755 2860 c3 -5 23 -10 43 -9 33 1 34 2 12 9 -36 12 -62 12 -55 0z"/>
<path d="M4608 2853 c6 -2 18 -2 25 0 6 3 1 5 -13 5 -14 0 -19 -2 -12 -5z"/>
<path d="M744 2803 c6 -64 -2 -93 -25 -93 -10 0 -18 3 -18 8 1 4 0 9 -1 12 -1
3 -4 19 -6 35 -6 38 -18 50 -40 41 -13 -5 -16 -16 -12 -56 l5 -50 -140 0 c-77
0 -137 -3 -134 -7 4 -3 65 -5 137 -4 l130 2 0 -26 c0 -33 17 -65 34 -65 16 0
26 21 26 55 0 26 24 50 40 40 6 -3 10 -44 10 -94 0 -48 3 -90 6 -93 3 -3 14
-3 26 0 19 5 20 11 17 96 l-4 91 33 3 c39 4 33 22 -9 22 l-29 0 0 65 c0 63 -1
65 -25 65 -24 0 -25 -2 -21 -47z"/>
<path d="M3141 2834 c0 -11 3 -14 6 -6 3 7 2 16 -1 19 -3 4 -6 -2 -5 -13z"/>
<path d="M4616 2714 c-3 -64 -4 -119 -1 -122 14 -14 20 19 23 115 5 148 -13
154 -22 7z"/>
<path d="M1800 2811 c0 -5 7 -14 15 -21 12 -10 15 -10 15 3 0 8 -7 17 -15 21
-8 3 -15 2 -15 -3z"/>
<path d="M3245 2810 c3 -5 8 -10 11 -10 2 0 4 5 4 10 0 6 -5 10 -11 10 -5 0
-7 -4 -4 -10z"/>
<path d="M4685 2795 c0 -14 3 -25 8 -25 4 0 7 11 7 25 0 14 -3 25 -7 25 -5 0
-8 -11 -8 -25z"/>
<path d="M4711 2701 c-1 -77 2 -121 9 -121 6 0 10 42 10 110 0 61 0 113 1 117
0 4 -4 9 -9 11 -6 2 -11 -44 -11 -117z"/>
<path d="M3370 2770 c0 -13 18 -22 24 -11 3 5 -1 11 -9 15 -8 3 -15 1 -15 -4z"/>
<path d="M1946 2708 c-19 -27 -20 -65 -2 -98 l14 -25 7 38 c4 20 11 39 14 42
10 6 1 65 -10 65 -4 0 -15 -10 -23 -22z"/>
<path d="M1991 2704 c0 -11 3 -14 6 -6 3 7 2 16 -1 19 -3 4 -6 -2 -5 -13z"/>
<path d="M5123 2663 c-11 -28 -9 -98 2 -101 6 -1 11 24 12 58 1 62 -3 73 -14
43z"/>
<path d="M1291 2634 c0 -11 3 -14 6 -6 3 7 2 16 -1 19 -3 4 -6 -2 -5 -13z"/>
<path d="M5156 2565 c-3 -8 -1 -15 4 -15 6 0 10 7 10 15 0 8 -2 15 -4 15 -2 0
-6 -7 -10 -15z"/>
<path d="M4584 2538 c-4 -7 -3 -8 4 -4 7 4 12 2 12 -3 0 -6 -6 -11 -14 -11 -8
0 -20 -24 -30 -58 -23 -82 -21 -92 13 -92 15 0 57 -3 92 -6 57 -5 62 -4 47 9
-23 18 -23 56 -1 72 17 13 17 14 0 32 -22 25 -22 53 1 54 27 2 -38 16 -80 18
-20 0 -40 -4 -44 -11z m86 -124 c0 -45 -24 -42 -28 4 -2 24 1 32 12 32 12 0
16 -10 16 -36z"/>
<path d="M4790 2511 c0 -11 31 -24 39 -16 3 3 -1 10 -9 15 -19 12 -30 12 -30
1z"/>
<path d="M4840 2450 c0 -11 5 -20 10 -20 6 0 10 9 10 20 0 11 -4 20 -10 20 -5
0 -10 -9 -10 -20z"/>
<path d="M1755 2390 c-3 -5 -1 -10 4 -10 6 0 11 5 11 10 0 6 -2 10 -4 10 -3 0
-8 -4 -11 -10z"/>
<path d="M4852 2330 c0 -19 2 -27 5 -17 2 9 2 25 0 35 -3 9 -5 1 -5 -18z"/>
<path d="M5490 2281 c0 -5 -3 -16 -6 -25 -4 -12 0 -16 16 -16 11 0 18 -4 15
-10 -9 -15 -54 -8 -48 7 5 12 -45 39 -54 29 -2 -2 -6 -68 -8 -147 -2 -79 -2
-134 1 -121 8 32 44 30 44 -3 0 -20 -5 -25 -24 -25 -23 0 -25 -5 -32 -67 -4
-38 -8 -148 -8 -245 -1 -155 1 -179 16 -190 9 -7 18 -24 20 -38 3 -22 7 -18
27 27 22 50 51 87 51 65 0 -5 -11 -34 -25 -63 -32 -70 -20 -78 74 -48 65 21
69 24 65 48 -7 38 7 52 67 65 l54 12 3 157 c3 178 13 159 -93 172 -131 17
-167 34 -132 63 14 12 187 -13 197 -28 11 -18 34 10 37 44 1 29 -2 36 -16 36
-11 0 -21 6 -24 13 -2 7 -15 14 -28 15 -13 1 -55 6 -94 10 l-70 7 68 18 c41
11 82 15 106 11 31 -5 39 -3 45 12 8 21 -31 60 -131 131 -29 21 -51 42 -49 48
3 11 -36 45 -53 45 -6 0 -11 -4 -11 -9z m12 -695 c12 -18 9 -26 -10 -26 -11 0
-24 12 -31 26 -10 24 -10 25 11 18 13 -4 26 -12 30 -18z"/>
<path d="M880 2270 c0 -5 5 -10 10 -10 6 0 10 5 10 10 0 6 -4 10 -10 10 -5 0
-10 -4 -10 -10z"/>
<path d="M1755 2250 c3 -5 8 -10 11 -10 2 0 4 5 4 10 0 6 -5 10 -11 10 -5 0
-7 -4 -4 -10z"/>
<path d="M5996 2079 c7 -8 14 -23 17 -34 4 -13 5 -9 4 9 -1 16 -9 32 -17 34
-12 4 -13 2 -4 -9z"/>
<path d="M5760 2046 c0 -9 5 -16 10 -16 6 0 10 4 10 9 0 6 -4 13 -10 16 -5 3
-10 -1 -10 -9z"/>
<path d="M5663 2033 c9 -2 23 -2 30 0 6 3 -1 5 -18 5 -16 0 -22 -2 -12 -5z"/>
<path d="M6095 2009 c-10 -15 3 -25 16 -12 7 7 7 13 1 17 -6 3 -14 1 -17 -5z"/>
<path d="M5793 1983 c-26 -5 -43 -67 -24 -86 16 -16 29 1 33 43 2 19 8 35 15
35 6 0 15 3 19 8 8 7 -5 7 -43 0z"/>
<path d="M5996 1966 c21 -15 30 -14 19 3 -3 6 -14 11 -23 11 -13 0 -13 -2 4
-14z"/>
<path d="M6141 1933 c-33 -40 -36 -49 -22 -57 7 -5 120 22 131 31 3 3 -6 13
-20 24 -53 41 -56 42 -89 2z"/>
<path d="M5930 1916 c0 -41 2 -44 31 -50 23 -4 35 -2 44 11 7 9 17 13 23 9 7
-4 12 -3 12 2 0 14 -49 44 -60 37 -5 -3 -15 3 -22 15 -20 31 -28 24 -28 -24z"/>
<path d="M3590 1925 c0 -8 5 -15 10 -15 6 0 10 7 10 15 0 8 -4 15 -10 15 -5 0
-10 -7 -10 -15z"/>
<path d="M3647 1900 c-2 -19 -2 -63 1 -98 5 -61 6 -63 30 -60 22 3 32 17 65
91 22 48 37 90 33 94 -4 4 -34 8 -66 8 l-58 0 -5 -35z"/>
<path d="M3570 1879 c0 -5 5 -7 10 -4 6 3 10 8 10 11 0 2 -4 4 -10 4 -5 0 -10
-5 -10 -11z"/>
<path d="M6315 1881 c-6 -11 9 -23 19 -14 9 9 7 23 -3 23 -6 0 -12 -4 -16 -9z"/>
<path d="M3101 1864 c0 -11 3 -14 6 -6 3 7 2 16 -1 19 -3 4 -6 -2 -5 -13z"/>
<path d="M6246 1865 c-10 -8 -15 -18 -11 -24 3 -6 -1 -11 -10 -11 -9 0 -13 5
-10 10 4 6 -5 10 -19 10 -37 0 -32 -17 12 -39 63 -31 78 -34 79 -11 1 11 -2
20 -7 20 -14 0 -21 33 -9 40 6 4 7 10 2 13 -4 3 -16 -1 -27 -8z"/>
<path d="M6075 1849 c-22 -6 -50 -7 -62 -4 -12 3 -25 1 -28 -5 -11 -17 23 -23
67 -12 37 10 45 9 61 -8 25 -28 34 -25 34 10 0 33 -5 34 -72 19z"/>
<path d="M5767 1843 c-4 -3 -7 -73 -7 -154 0 -128 2 -148 15 -143 12 5 15 32
15 155 0 136 -4 162 -23 142z"/>
<path d="M5927 1753 c-9 -82 5 -98 81 -96 6 1 12 -3 12 -7 0 -5 8 -11 18 -13
9 -3 0 -5 -20 -6 -37 -1 -38 -2 -38 -42 0 -24 4 -38 10 -34 6 3 10 -5 10 -19
0 -37 10 -56 31 -56 15 0 63 -10 217 -45 21 -5 22 -3 22 69 0 66 -2 75 -20 81
-19 6 -19 7 2 36 26 35 31 35 70 8 16 -12 31 -19 34 -16 4 4 -54 44 -81 56 -5
2 -44 30 -86 62 -50 37 -80 54 -87 47 -10 -10 -78 4 -114 23 -42 22 -55 12
-61 -48z m166 -130 c-7 -2 -19 -2 -25 0 -7 3 -2 5 12 5 14 0 19 -2 13 -5z m97
-8 c10 -13 9 -15 -8 -15 -15 0 -20 5 -16 15 4 8 7 15 9 15 1 0 8 -7 15 -15z
m-53 -1 c-3 -3 -12 -4 -19 -1 -8 3 -5 6 6 6 11 1 17 -2 13 -5z"/>
<path d="M6210 1746 c0 -2 16 -13 35 -25 19 -11 35 -16 35 -11 0 5 -13 16 -30
25 -30 15 -40 18 -40 11z"/>
<path d="M6300 1718 c0 -4 7 -8 15 -8 8 0 15 -7 15 -15 0 -8 7 -15 15 -15 8 0
15 -4 15 -10 0 -5 9 -10 20 -10 11 0 20 5 20 10 0 6 -7 10 -16 10 -26 0 -10
24 24 35 28 10 24 11 -38 11 -39 0 -70 -4 -70 -8z"/>
<path d="M420 1572 c0 -54 2 -59 21 -58 30 1 36 -22 7 -26 -22 -3 -23 -7 -26
-97 -1 -52 1 -98 5 -102 4 -4 91 0 193 8 l185 15 37 -44 c21 -23 38 -49 38
-56 0 -9 5 -10 19 -2 11 5 30 10 43 10 22 0 22 0 3 19 -11 11 -68 55 -126 98
-59 43 -167 123 -240 179 -74 55 -140 104 -146 108 -10 5 -13 -7 -13 -52z"/>
<path d="M5762 1481 c-17 -49 -16 -147 2 -154 21 -8 31 69 20 136 l-9 52 -13
-34z"/>
<path d="M6005 1460 c-11 -5 -14 -9 -7 -9 7 -1 11 -5 8 -10 -4 -5 0 -12 6 -15
7 -4 -11 -4 -39 -2 l-53 5 0 -70 c0 -47 4 -71 13 -73 27 -7 207 -49 292 -67
50 -11 97 -22 106 -24 13 -4 18 3 21 30 2 20 0 38 -4 41 -4 3 -8 20 -8 38 l0
33 -103 21 c-142 30 -183 45 -179 66 3 17 -14 47 -27 45 -3 0 -15 -4 -26 -9z"/>
<path d="M5702 1439 c-13 -5 -27 -7 -31 -5 -4 3 -6 -8 -3 -23 3 -24 0 -29 -24
-35 -35 -9 -19 -20 44 -31 l42 -7 0 56 c0 31 -1 56 -2 55 -2 0 -14 -4 -26 -10z"/>
<path d="M6080 1420 c0 -5 5 -10 10 -10 6 0 10 5 10 10 0 6 -4 10 -10 10 -5 0
-10 -4 -10 -10z"/>
<path d="M800 1210 c-36 -4 -134 -13 -217 -20 -118 -10 -153 -16 -153 -27 0
-10 9 -13 33 -9 17 3 66 8 107 10 41 3 111 8 155 11 86 7 145 21 145 36 0 5
-1 8 -2 8 -2 -1 -32 -5 -68 -9z"/>
<path d="M1305 1060 c-3 -5 -1 -10 4 -10 6 0 11 5 11 10 0 6 -2 10 -4 10 -3 0
-8 -4 -11 -10z"/>
<path d="M124 1044 c5 -12 2 -15 -11 -10 -14 6 -15 5 -6 -5 16 -16 53 -22 53
-9 0 6 -4 10 -10 10 -5 0 -10 7 -10 15 0 8 -5 15 -11 15 -6 0 -8 -7 -5 -16z"/>
<path d="M1190 1034 l-45 -13 45 6 c25 3 54 9 65 14 l20 8 -20 -1 c-11 0 -40
-6 -65 -14z"/>
<path d="M1118 1013 c7 -3 16 -2 19 1 4 3 -2 6 -13 5 -11 0 -14 -3 -6 -6z"/>
<path d="M141 984 c0 -11 3 -14 6 -6 3 7 2 16 -1 19 -3 4 -6 -2 -5 -13z"/>
<path d="M1475 940 c-3 -5 -2 -10 4 -10 5 0 13 5 16 10 3 6 2 10 -4 10 -5 0
-13 -4 -16 -10z"/>
<path d="M458 893 c7 -3 16 -2 19 1 4 3 -2 6 -13 5 -11 0 -14 -3 -6 -6z"/>
<path d="M325 870 l-30 -8 30 0 c17 0 39 3 50 8 l20 9 -20 -1 c-11 0 -33 -4
-50 -8z"/>
<path d="M268 853 c7 -3 16 -2 19 1 4 3 -2 6 -13 5 -11 0 -14 -3 -6 -6z"/>
<path d="M237 714 c-9 -10 2 -24 19 -24 8 0 14 7 14 15 0 15 -21 21 -33 9z"/>
<path d="M330 588 c0 -14 8 -18 33 -17 27 2 28 2 7 6 -14 3 -28 10 -32 17 -5
7 -8 5 -8 -6z"/>
</g>
</svg>
